<svg
                            width="124"
                            height="23"
                            viewBox="0 0 124 23"
                            fill="none"
                            xmlns="http://www.w3.org/2000/svg"
                        >
                            <path
                                d="M66.7179 4.5728L67.3246 3.96607C67.3904 3.90028 67.4685 3.84809 67.5545 3.81248C67.6405 3.77687 67.7326 3.75854 67.8256 3.75854C67.9187 3.75854 68.0108 3.77687 68.0968 3.81248C68.1827 3.84809 68.2608 3.90028 68.3266 3.96607L68.9334 4.5728C68.9992 4.6386 69.0514 4.7167 69.087 4.80266C69.1226 4.88863 69.1409 4.98076 69.1409 5.0738C69.1409 5.16685 69.1226 5.25898 69.087 5.34494C69.0514 5.43091 68.9992 5.50901 68.9334 5.57481L68.3266 6.18154C68.2608 6.24733 68.1827 6.29952 68.0968 6.33513C68.0108 6.37074 67.9187 6.38906 67.8256 6.38906C67.7326 6.38906 67.6405 6.37074 67.5545 6.33513C67.4685 6.29952 67.3904 6.24733 67.3246 6.18154L66.7179 5.57481C66.585 5.44193 66.5104 5.26172 66.5104 5.0738C66.5104 4.88589 66.585 4.70568 66.7179 4.5728ZM66.6881 17.6905V7.45201H68.9632V17.6905H66.6881Z"
                                fill="black"
                                className="letter"
                            />
                            <path
                                d="M60.6025 7.16431C59.1631 7.16431 57.8716 7.86769 56.986 8.98319C56.5337 8.41539 55.9591 7.95696 55.305 7.64204C54.651 7.32712 53.9343 7.16382 53.2084 7.16431C52.8375 7.16409 52.4682 7.21144 52.1094 7.30519C51.7846 7.39205 51.4835 7.5509 51.2284 7.76996C50.9734 7.98902 50.7709 8.26268 50.6359 8.57065V7.44685H49.5663V7.44857H48.3737V17.687H50.6488V12.5678C50.6488 10.6832 51.7946 9.15515 53.2084 9.15515C54.6219 9.15515 55.768 10.4286 55.768 11.9993V17.687H58.0431V12.5678C58.0431 10.6832 59.1889 9.15515 60.6025 9.15515C62.0162 9.15515 63.1621 10.4286 63.1621 11.9993V17.687H65.4372V11.9993C65.4372 11.3643 65.3122 10.7356 65.0693 10.149C64.8263 9.56236 64.4702 9.02934 64.0213 8.58037C63.5723 8.13139 63.0393 7.77524 62.4527 7.53228C61.8661 7.28931 61.2374 7.16427 60.6025 7.16431Z"
                                fill="black"
                                className="letter"
                            />
                            <path
                                d="M45.7444 7.4486V7.44687H44.6748V8.78045C44.4345 8.30528 44.0356 7.92904 43.5472 7.71681C42.6973 7.34973 41.7808 7.16167 40.855 7.16433C37.4784 7.16433 34.7408 9.58332 34.7408 12.5678C34.7408 15.5518 36.9051 17.9713 39.5756 17.9713C42.2457 17.9713 44.2875 15.807 44.2875 13.1363H42.0122C42.0122 13.8597 41.9095 14.555 41.5092 15.0569C41.2778 15.3472 40.9835 15.5811 40.6486 15.7411C40.3136 15.9011 39.9467 15.9829 39.5756 15.9805C38.1618 15.9805 37.0159 14.4524 37.0159 12.5678C37.0159 10.6833 38.7353 9.15518 40.855 9.15518C42.9754 9.15518 44.6945 10.6833 44.6945 12.5678V17.687H46.9696V7.4486H45.7444Z"
                                fill="black"
                                className="letter"
                            />
                            <path
                                d="M29.0961 7.16445C28.1509 7.15827 27.215 7.35112 26.3492 7.73047C25.8666 7.94583 25.4752 8.32425 25.2437 8.79937V7.44699H24.1741V7.44872H22.9581V17.6872H25.2332V12.5679C25.2332 10.6834 26.9526 9.15529 29.0723 9.15529C30.4858 9.15529 31.6316 10.4287 31.6316 11.9994V17.6872H33.9067V12.014C33.9088 10.7339 33.4039 9.50503 32.5024 8.59624C31.6009 7.68744 30.3762 7.17265 29.0961 7.16445Z"
                                fill="black"
                                className="letter"
                            />
                            <path
                                d="M19.279 7.44946V12.5687C19.279 14.4532 17.5596 15.9813 15.4402 15.9813C14.0264 15.9813 12.8806 14.7079 12.8806 13.1372V7.44946H10.6055V13.1227C10.6035 14.4027 11.1084 15.6315 12.0099 16.5403C12.9114 17.4491 14.1361 17.9639 15.4161 17.9722C16.3613 17.9784 17.2972 17.7855 18.163 17.4061C18.6459 17.1904 19.0376 16.8116 19.2693 16.3361V17.6879H21.5541V7.44946H19.279Z"
                                fill="black"
                                className="letter"
                            />
                            <path
                                d="M0 8.55684V9.46551H6.19105L0 15.6211V17.6788H9.40386V15.6211H8.83835V15.6208H3.4169L3.75526 15.2317C3.77746 15.2083 3.79939 15.1847 3.82063 15.1604L4.43238 14.4613L9.40386 9.37047V7.4541H0V8.55684Z"
                                fill="black"
                                className="letter"
                            />
                            <path
                                d="M123.218 11.5L123.219 11.0195C123.221 7.35292 123.223 4.45673 121.847 2.59485C121.357 1.93942 120.72 1.40111 119.983 1.02153C118.913 0.438055 117.866 0.293418 116.942 0.165731L116.867 0.155845C116.023 0.0457763 115.172 -0.0064311 114.32 0.000631479H84.8988C84.047 -0.0064311 83.1958 0.0457777 82.3512 0.155843L82.2768 0.16573C81.3526 0.293416 80.3055 0.438053 79.2353 1.02152C78.4984 1.40111 77.8611 1.93941 77.3719 2.59485C75.9956 4.45673 75.9976 7.35292 76.0002 11.0195L76.0004 11.5L76.0002 11.9805C75.9976 15.6471 75.9956 18.5433 77.372 20.4051C77.8611 21.0606 78.4984 21.5989 79.2353 21.9785C80.3055 22.5619 81.3526 22.7066 82.2768 22.8343L82.3512 22.8442C83.1958 22.9542 84.047 23.0064 84.8988 22.9994H114.32C115.172 23.0064 116.023 22.9542 116.867 22.8442L116.942 22.8343C117.866 22.7066 118.913 22.5619 119.983 21.9785C120.72 21.5989 121.357 21.0606 121.847 20.4051C123.223 18.5433 123.221 15.6471 123.219 11.9805L123.218 11.5Z"
                                fill="url(#paint0_linear_0_4)"
                            />
                            <path
                                d="M82 6.54921V7.1973H88.0398L83.6241 11.5877V13.0553H91.9553V11.5877H91.552V11.5875H86.0611L86.3025 11.3099C86.3183 11.2933 86.3339 11.2765 86.3491 11.2591L86.7854 10.7605L90.3313 7.12951V5.7627H82V6.54921Z"
                                fill="url(#paint1_linear_0_5)"
                            />
                            <path
                                d="M102.836 14.5501V13.1584L102.861 9.43691H104.81V7.94259H102.871L102.891 5.01686H102.836V5.00732H100.878V7.94259H100.39V7.94347H100.389V9.41163H100.39V9.43691H100.878V14.5501C100.878 15.9015 102.193 16.9971 103.815 16.9971H105.038V15.2843H103.815C103.275 15.2843 102.836 14.9553 102.836 14.5501Z"
                                fill="white"
                            />
                            <path
                                d="M111.247 7.76292C110.382 7.76003 109.53 7.91429 108.841 8.25877C108.557 8.38495 108.106 8.76188 107.884 9.17458V5H105.861V17H107.884V12.1659C108.069 10.6705 109.495 9.50673 111.226 9.50673C112.465 9.50673 113.468 10.6221 113.468 11.998V16.9803H115.461V12.0111C115.461 9.67831 113.58 7.77081 111.247 7.76292Z"
                                fill="white"
                            />
                            <path
                                d="M94.7353 7.70068C91.8292 7.70068 89.4735 9.78242 89.4735 12.3503C89.4735 14.9183 91.8292 17 94.7353 17C96.8496 17 98.6723 15.8977 99.5081 14.3081H97.1974C96.5925 14.9091 95.7134 15.287 94.7353 15.287C93.1958 15.287 91.9024 14.3512 91.5349 13.0846H99.9311C99.9742 12.8457 99.9963 12.6003 99.9963 12.3503C99.9963 12.1003 99.9742 11.8551 99.9311 11.6163C99.533 9.39673 97.358 7.70068 94.7353 7.70068ZM94.7353 9.41369C96.265 9.41369 97.5519 10.3388 97.9279 11.5942H91.6094C91.6094 11.4424 91.6896 11.2222 91.7808 11.0365C92.3237 10.0744 93.4422 9.41369 94.7353 9.41369Z"
                                fill="white"
                            />
                            <defs>
                                <linearGradient
                                    id="paint0_linear_0_4"
                                    x1="81.3906"
                                    y1="20.4844"
                                    x2="97.2031"
                                    y2="-1.14914e-06"
                                    gradientUnits="userSpaceOnUse"
                                >
                                    <stop stopColor="#575757" />
                                    <stop offset="1" stopColor="#878787" />
                                </linearGradient>
                                <linearGradient
                                    id="paint1_linear_0_5"
                                    x1="82.4625"
                                    y1="6.36983"
                                    x2="91.2139"
                                    y2="12.2604"
                                    gradientUnits="userSpaceOnUse"
                                >
                                    <stop stopColor="white" />
                                    <stop
                                        offset="0.48479"
                                        stopColor="#FDFDFD"
                                        stopOpacity="0.99393"
                                    />
                                    <stop
                                        offset="0.65189"
                                        stopColor="#FCFCFC"
                                        stopOpacity="0.98669"
                                    />
                                    <stop
                                        offset="0.87254"
                                        stopColor="#595959"
                                        stopOpacity="0.41453"
                                    />
                                    <stop offset="1" stopOpacity="0.1" />
                                </linearGradient>
                            </defs>
                        </svg>