<svg width="111" height="22" viewBox="0 0 111 22" fill="none" xmlns="http://www.w3.org/2000/svg">
<path className="letter" d="M54.8981 6.7743C54.0352 6.76866 53.1807 6.94473 52.3901 7.29109C51.9495 7.48772 51.5921 7.83324 51.3807 8.26703V7.03227H50.4042V7.03384H49.2939V16.3819H51.3712V11.7079C51.3712 9.98723 52.9411 8.59201 54.8764 8.59201C56.167 8.59201 57.2132 9.75468 57.2132 11.1888V16.3819H59.2904V11.2021C59.2924 10.0333 58.8314 8.91133 58.0083 8.08158C57.1851 7.2518 56.0669 6.78178 54.8981 6.7743Z" fill="white"/>
<path className="letter" d="M45.926 7.03394V11.708C45.926 13.4287 44.3562 14.8239 42.4211 14.8239C41.1303 14.8239 40.0841 13.6612 40.0841 12.227V7.03394H38.0068V12.2138C38.005 13.3825 38.466 14.5045 39.2891 15.3342C40.1122 16.1639 41.2304 16.634 42.3991 16.6416C43.2621 16.6472 44.1166 16.4711 44.9072 16.1248C45.3481 15.9278 45.7056 15.5819 45.9172 15.1478V16.382H48.0033V7.03394H45.926Z" fill="white"/>
<path className="letter" d="M28.3232 8.04151V8.87116H33.9759L28.3232 14.4914V16.3702H36.9093V14.4914H36.393V14.4912H31.3608L31.6697 14.1359C31.69 14.1146 31.71 14.093 31.7294 14.0708L32.3702 13.4325L36.9093 8.78438V7.03467H28.3232V8.04151Z" fill="white"/>
<rect x="64.1299" width="46.129" height="21.9355" rx="10.9677" fill="url(#paint0_linear_841_163)"/>
<path d="M87.2712 13.8067V12.3038L87.2982 8.28497H89.4026V6.67125H87.309L87.3302 3.51177H87.2712V3.50146H85.1573V6.67125H84.6294V6.6722H84.6289V8.25766H84.6294V8.28497H85.1573V13.8067C85.1573 15.266 86.5772 16.4492 88.3283 16.4492H89.6495V14.5995H88.3283C87.7449 14.5995 87.2712 14.2443 87.2712 13.8067Z" fill="white"/>
<path d="M96.3532 6.47732C95.419 6.4742 94.4988 6.64078 93.755 7.0128C93.4478 7.14905 92.9609 7.5561 92.7216 8.00177V3.49365H90.5371V16.4524H92.7216V11.232C92.9214 9.61717 94.4614 8.36046 96.3307 8.36046C97.668 8.36046 98.7519 9.56499 98.7519 11.0508V16.4312H100.904V11.065C100.904 8.54575 98.8724 6.48584 96.3532 6.47732Z" fill="white"/>
<path d="M78.5221 6.41064C75.3838 6.41064 72.8398 8.6587 72.8398 11.4318C72.8398 14.2049 75.3838 16.4529 78.5221 16.4529C80.8052 16.4529 82.7736 15.2626 83.6762 13.5459H81.1809C80.5276 14.195 79.5783 14.6031 78.5221 14.6031C76.8595 14.6031 75.4628 13.5925 75.066 12.2247H84.1329C84.1795 11.9668 84.2033 11.7018 84.2033 11.4318C84.2033 11.1618 84.1795 10.897 84.1329 10.6391C83.7031 8.2422 81.3543 6.41064 78.5221 6.41064ZM78.5221 8.26052C80.174 8.26052 81.5637 9.25956 81.9698 10.6152H75.1464C75.1464 10.4513 75.233 10.2135 75.3315 10.013C75.9177 8.97403 77.1256 8.26052 78.5221 8.26052Z" fill="white"/>
<path d="M10.9677 21.9355C17.025 21.9355 21.9355 17.025 21.9355 10.9677C21.9355 4.91042 17.025 0 10.9677 0C4.91042 0 0 4.91042 0 10.9677C0 17.025 4.91042 21.9355 10.9677 21.9355Z" fill="url(#paint1_linear_841_163)"/>
<path d="M10.9527 18.6477C10.7096 18.6477 10.4665 18.5837 10.2499 18.4556L4.43975 15.0213C4.12017 14.8323 3.89415 14.53 3.80334 14.1701C3.71253 13.8103 3.76797 13.4369 3.95953 13.119L9.76948 3.47868C10.0218 3.06014 10.4641 2.8103 10.9527 2.8103H10.953C11.4417 2.81042 11.8839 3.06033 12.136 3.47887L13.112 5.09816C13.3578 5.5061 13.2264 6.03613 12.8185 6.28202C12.4108 6.52775 11.8807 6.39656 11.6346 5.98854L10.9527 4.85705L5.61565 13.7127L10.9527 16.8674L17.0385 13.2701C17.4486 13.0276 17.9775 13.1637 18.2197 13.5736C18.4621 13.9837 18.3263 14.5125 17.9162 14.7549L11.6558 18.4555C11.4389 18.5837 11.1957 18.6477 10.9527 18.6477Z" fill="white"/>
<path d="M11.6789 14.4142C11.4737 14.4142 11.27 14.3412 11.1086 14.1989C10.8285 13.9522 10.7389 13.5533 10.8867 13.2105L12.1813 10.2053L10.5455 11.1604C10.1345 11.4006 9.60623 11.2619 9.36581 10.8505C9.1257 10.4392 9.26444 9.91103 9.67575 9.67088L13.5758 7.39359C13.8974 7.20573 14.3034 7.24562 14.5824 7.49255C14.8612 7.73939 14.9502 8.13746 14.8027 8.47955L13.5163 11.4661L15.5685 10.2551C15.9783 10.013 16.5074 10.1493 16.7496 10.5596C16.9916 10.9698 16.8553 11.4986 16.4451 11.7406L12.117 14.2945C11.981 14.3748 11.8295 14.4142 11.6789 14.4142Z" fill="white"/>
<defs>
<linearGradient id="paint0_linear_841_163" x1="74.1447" y1="18.8709" x2="104.094" y2="3.1685" gradientUnits="userSpaceOnUse">
<stop stop-color="#595959"/>
<stop offset="1" stop-color="#878787"/>
</linearGradient>
<linearGradient id="paint1_linear_841_163" x1="5.72229" y1="18.7337" x2="17.9806" y2="5.06899" gradientUnits="userSpaceOnUse">
<stop stop-color="#F63B00"/>
<stop offset="1" stop-color="#FFAD00"/>
</linearGradient>
</defs>
</svg>
