<svg width="114" height="22" viewBox="0 0 114 22" fill="none" xmlns="http://www.w3.org/2000/svg">
<rect x="64.3252" width="49.1765" height="22" rx="11" fill="url(#paint0_linear_841_105)"/>
<path d="M91.5337 11.4259C90.6976 10.8968 89.5618 10.8262 88.2769 10.569C87.024 10.3186 85.9635 10.1086 85.9635 9.54096C85.9635 8.97337 86.9993 8.51278 88.2769 8.51278C89.5544 8.51278 90.59 8.97337 90.59 9.54096H92.6462C92.6462 7.97967 90.6901 6.71362 88.2769 6.71362C85.8636 6.71362 83.9074 7.97967 83.9074 9.54096C83.9074 10.2647 84.3282 10.9255 85.0197 11.4259C85.8197 12.0043 87.0073 12.1143 88.2769 12.3683C89.5618 12.6254 90.847 12.8864 90.847 13.5246C90.847 14.1633 89.6962 14.6816 88.2769 14.6816C86.8573 14.6816 85.7065 14.1633 85.7065 13.5246C85.7065 13.4814 85.7121 13.4389 85.7223 13.3963H83.6552C83.6517 13.4389 83.6504 13.4814 83.6504 13.5246C83.6504 15.1571 85.7216 16.4807 88.2769 16.4807C90.832 16.4807 92.9032 15.1571 92.9032 13.5246C92.9032 12.704 92.3796 11.9611 91.5337 11.4259Z" fill="white"/>
<path d="M80.9708 11.5961C80.9708 13.3002 79.4027 14.682 77.4698 14.682C76.1804 14.682 75.1355 13.5305 75.1355 12.1102V6.96704H73.0606V12.0971C73.0587 13.2546 73.5192 14.3657 74.3414 15.1874C75.1636 16.0092 76.2805 16.4747 77.4479 16.4822C78.3099 16.4878 79.1634 16.3134 79.953 15.9704C80.3895 15.7593 80.7543 15.4521 80.9656 14.9958V16.2212H80.9708V16.2252H83.0457V6.96704H80.9708L80.9708 11.5961Z" fill="white"/>
<path d="M102.367 3.88257V3.88293H102.365V8.20213C102.115 7.77385 101.733 7.43689 101.275 7.24139C100.518 6.89943 99.6978 6.71874 98.8664 6.71101C95.7874 6.71101 93.291 8.89805 93.291 11.5964C93.291 14.2943 95.2646 16.4818 97.6995 16.4818C98.2787 16.4818 98.8519 16.3687 99.3869 16.1491C99.9219 15.9294 100.408 15.6074 100.817 15.2015C101.227 14.7956 101.551 14.3136 101.773 13.7833C101.994 13.2529 102.108 12.6845 102.108 12.1104H100.033C100.033 13.5305 98.9884 14.6818 97.6995 14.6818C96.4104 14.6818 95.3656 13.3003 95.3656 11.5964C95.3656 9.89251 96.9335 8.51094 98.8664 8.51094C100.8 8.51094 102.368 9.89256 102.368 11.5964V16.2248H104.442V3.88257H102.367Z" fill="white"/>
<path className="letter" d="M55.066 6.79408C54.2005 6.78841 53.3435 6.96501 52.5506 7.31239C52.1087 7.50959 51.7502 7.85613 51.5382 8.2912V7.05281H50.5588V7.05438H49.4453V16.43H51.5287V11.7422C51.5287 10.0165 53.1031 8.61713 55.0442 8.61713C56.3386 8.61713 57.3879 9.78322 57.3879 11.2216V16.43H59.4711V11.2349C59.4732 10.0627 59.0108 8.9374 58.1853 8.1052C57.3597 7.27298 56.2381 6.80158 55.066 6.79408Z" fill="white"/>
<path className="letter" d="M46.0675 7.05444V11.7422C46.0675 13.468 44.4931 14.8673 42.5523 14.8673C41.2576 14.8673 40.2084 13.7012 40.2084 12.2628V7.05444H38.125V12.2495C38.1232 13.4217 38.5856 14.5469 39.4111 15.3791C40.2366 16.2113 41.3581 16.6828 42.5302 16.6903C43.3958 16.696 44.2527 16.5194 45.0456 16.172C45.4879 15.9744 45.8465 15.6276 46.0586 15.1921V16.43H48.1509V7.05444H46.0675Z" fill="white"/>
<path className="letter" d="M28.4131 8.06498V8.89707H34.0824L28.4131 14.5339V16.4182H37.0244V14.5339H36.5066V14.5337H31.4596L31.7694 14.1773C31.7897 14.1559 31.8098 14.1343 31.8293 14.1121L32.4719 13.4718L37.0244 8.81003V7.05518H28.4131V8.06498Z" fill="white"/>
<path d="M11 22C17.0751 22 22 17.0751 22 11C22 4.92487 17.0751 0 11 0C4.92487 0 0 4.92487 0 11C0 17.0751 4.92487 22 11 22Z" fill="url(#paint1_linear_841_105)"/>
<path d="M17.6362 12.3819C17.4104 11.9689 16.898 11.8202 16.4918 12.0495L13.1857 13.9163L11.6046 10.8454L14.0553 4.88089C14.1926 4.54682 14.108 4.16105 13.8441 3.91773C13.5802 3.67457 13.1944 3.62642 12.8804 3.79767L9.05203 5.88728L8.08425 4.00749C7.86876 3.58906 7.35993 3.4267 6.94838 3.64617C6.53653 3.86518 6.37738 4.38203 6.59287 4.80062L7.56906 6.69672L5.05681 8.06796C4.64736 8.29153 4.49373 8.81012 4.71356 9.22628C4.93353 9.64236 5.4434 9.79849 5.85331 9.57523L8.34953 8.2127L9.74698 10.9271L6.99649 17.6214C6.85842 17.9575 6.94494 18.3458 7.21213 18.5886C7.37009 18.7323 7.57078 18.8064 7.77326 18.8064C7.91314 18.8064 8.05391 18.771 8.18182 18.6988L12.4945 16.2637L13.1125 17.4641C13.2628 17.7561 13.5557 17.9231 13.8589 17.9231C13.9903 17.9231 14.1239 17.8917 14.2483 17.8254C14.6602 17.6064 14.8193 17.0895 14.6039 16.671L13.9663 15.4326L17.3093 13.5451C17.7156 13.3156 17.862 12.7949 17.6362 12.3819ZM9.8325 7.40324L11.5887 6.44465L10.5901 8.8749L9.8325 7.40324ZM9.48416 16.0063L10.7615 12.8976L11.7138 14.7474L9.48416 16.0063Z" fill="white"/>
<defs>
<linearGradient id="paint0_linear_841_105" x1="75.0017" y1="18.9265" x2="106.06" y2="1.61765" gradientUnits="userSpaceOnUse">
<stop stop-color="#FF6002"/>
<stop offset="1" stop-color="#FFA402"/>
</linearGradient>
<linearGradient id="paint1_linear_841_105" x1="5.73913" y1="18.7888" x2="18.0335" y2="5.0839" gradientUnits="userSpaceOnUse">
<stop stop-color="#F73C01"/>
<stop offset="1" stop-color="#FFAD01"/>
</linearGradient>
</defs>
</svg>
