<svg width="18" height="11" viewBox="0 0 18 11" fill="none" xmlns="http://www.w3.org/2000/svg">
<path d="M3.58572 3.3501C3.48981 3.71577 3.42369 4.07788 3.39165 4.45285C2.80973 4.56152 2.23336 4.6847 1.66289 4.87894C1.68728 4.8896 1.70265 4.89772 1.71891 4.90323C2.10591 5.03443 2.50218 5.1309 2.90159 5.21468C3.36221 5.31129 3.82588 5.39124 4.29294 5.4494C4.6932 5.49924 5.09387 5.54659 5.49509 5.58787C5.76738 5.61588 6.04093 5.63176 6.31395 5.65261C6.90348 5.69762 7.49408 5.725 8.08503 5.73252C8.72895 5.74071 9.37317 5.73961 10.0171 5.72989C10.4637 5.72316 10.9104 5.70003 11.3565 5.67488C11.7402 5.65325 12.1235 5.6232 12.5062 5.58818C13.0084 5.54222 13.5091 5.48277 14.0081 5.4078C14.5995 5.31892 15.1869 5.21071 15.7651 5.05698C15.9436 5.00954 16.1194 4.95227 16.2964 4.89917C16.3074 4.89584 16.3177 4.88961 16.3393 4.87968C15.7939 4.69266 15.2427 4.57361 14.6838 4.46656C14.6502 4.09402 14.5895 3.72864 14.4885 3.35912C14.612 3.38009 14.7226 3.39746 14.8327 3.4178C15.2977 3.50376 15.76 3.60211 16.2148 3.73299C16.5934 3.84195 16.966 3.96732 17.3181 4.14724C17.4746 4.22725 17.6236 4.31878 17.756 4.43554C17.8267 4.49796 17.8887 4.56802 17.9351 4.65048C18.0209 4.80309 18.0219 4.9565 17.9365 5.11006C17.8733 5.22356 17.7824 5.31177 17.6812 5.39049C17.4842 5.54364 17.2625 5.65285 17.034 5.74882C16.5991 5.93157 16.1466 6.05893 15.6886 6.16792C15.1932 6.28579 14.6929 6.37883 14.1891 6.45197C13.8376 6.50303 13.4851 6.54863 13.1319 6.58733C12.7428 6.62996 12.353 6.66718 11.9627 6.697C11.5939 6.72518 11.2242 6.74246 10.8547 6.76142C10.1345 6.79838 9.41361 6.8106 8.69265 6.80168C8.19059 6.79547 7.68858 6.77961 7.18675 6.76241C6.87466 6.75171 6.56266 6.73439 6.25112 6.71288C5.93488 6.69104 5.61893 6.66356 5.30343 6.63271C4.98084 6.60116 4.65824 6.56795 4.33689 6.52596C3.46984 6.41267 2.60887 6.26626 1.76665 6.02521C1.39476 5.91877 1.02931 5.79417 0.683748 5.61775C0.525123 5.53677 0.371643 5.44626 0.241455 5.32338C0.182576 5.2678 0.126954 5.20587 0.0825263 5.13847C-0.0289274 4.9694 -0.0258652 4.79587 0.0818711 4.62413C0.149374 4.51653 0.240819 4.43236 0.341284 4.35684C0.521006 4.22176 0.720349 4.122 0.92565 4.03308C1.34329 3.8522 1.77892 3.72707 2.21965 3.61832C2.64163 3.5142 3.06838 3.43325 3.49676 3.36067C3.5222 3.35636 3.54805 3.3545 3.58572 3.3501Z" fill="#888888"/>
<path d="M13.5047 1.29929C13.4506 1.28727 13.4267 1.24495 13.3977 1.20876C13.036 0.757793 12.6187 0.366774 12.14 0.0418868C12.1281 0.033813 12.1165 0.0253446 12.1052 0.0163935C12.1017 0.013632 12.1 0.00865464 12.0947 0.000244141C12.2262 0.0155645 12.3549 0.0269198 12.4825 0.0461423C12.8124 0.0958583 13.1428 0.143194 13.4711 0.202226C13.9558 0.289376 14.4342 0.403512 14.8968 0.575958C15.0838 0.645665 15.2655 0.727026 15.4343 0.834524C15.5298 0.895391 15.6187 0.964733 15.6888 1.05528C15.8122 1.21446 15.8101 1.38595 15.6827 1.54274C15.5806 1.66835 15.4478 1.75432 15.3077 1.83003C15.0445 1.97229 14.7635 2.06944 14.4774 2.15318C14.0044 2.29164 13.5226 2.39087 13.0356 2.46312C12.6841 2.51524 12.3317 2.56135 11.9788 2.60218C11.7307 2.63088 11.4815 2.65075 11.2322 2.66646C10.8199 2.69244 10.4073 2.72002 9.99438 2.73193C9.53331 2.74522 9.07169 2.74821 8.61043 2.74373C8.20933 2.73983 7.808 2.72652 7.40752 2.70406C7.00234 2.68134 6.59786 2.64488 6.19349 2.6097C5.74601 2.57077 5.3012 2.50956 4.85851 2.43375C4.34943 2.34656 3.8449 2.23947 3.35439 2.07468C3.1197 1.99583 2.88849 1.90707 2.67904 1.77293C2.59274 1.71766 2.5131 1.65067 2.4362 1.58252C2.37839 1.53128 2.3375 1.46486 2.31661 1.38866C2.28594 1.2768 2.31039 1.17526 2.37481 1.08111C2.43556 0.992317 2.51618 0.924513 2.6039 0.86456C2.81982 0.716996 3.05912 0.61807 3.3045 0.532913C3.75701 0.375876 4.2222 0.267242 4.69354 0.187251C5.07213 0.122999 5.45315 0.0729206 5.83318 0.0171877C5.87808 0.0106019 5.92358 0.0080324 5.98342 0.00216946C5.95144 0.0259489 5.9302 0.0427801 5.90795 0.0581405C5.43393 0.385321 5.01901 0.775424 4.66077 1.2262C4.63952 1.25293 4.61106 1.27393 4.58386 1.29956C4.5916 1.30215 4.6056 1.30847 4.62027 1.3115C5.01079 1.39201 5.40408 1.45645 5.80044 1.49892C6.23021 1.54497 6.66028 1.59049 7.09125 1.62251C7.45767 1.64974 7.82541 1.66492 8.19282 1.67201C8.69489 1.68169 9.19733 1.6866 9.69937 1.67865C10.1244 1.67191 10.5494 1.64969 10.9738 1.62392C11.4485 1.59511 11.9219 1.54872 12.3936 1.48639C12.7531 1.43888 13.1112 1.38357 13.4665 1.31098C13.4795 1.30833 13.492 1.30324 13.5047 1.29929Z" fill="#888888"/>
<path d="M13.5267 8.9413C13.5037 8.92204 13.4949 8.91468 13.4828 8.90455C13.7062 8.6074 13.9011 8.29726 14.0674 7.96471C14.0835 7.96662 14.0999 7.96681 14.1153 7.97063C14.4676 8.05777 14.8154 8.15895 15.1463 8.31053C15.3214 8.39076 15.4909 8.48117 15.6286 8.62001C15.6555 8.64718 15.6814 8.67612 15.7034 8.70738C15.8078 8.85618 15.8092 9.01041 15.6959 9.15284C15.6398 9.22329 15.5708 9.28633 15.4985 9.34039C15.3043 9.48545 15.0819 9.57696 14.856 9.66004C14.4606 9.80546 14.0535 9.9089 13.6403 9.98594C13.2629 10.0563 12.8837 10.1191 12.5033 10.171C12.1656 10.217 11.8255 10.2466 11.486 10.2778C10.9211 10.3296 10.3548 10.36 9.7876 10.3669C9.31428 10.3726 8.8408 10.3758 8.3675 10.37C8.02166 10.3659 7.67561 10.3519 7.33039 10.3305C6.93732 10.3061 6.54443 10.2748 6.15263 10.2351C5.79685 10.199 5.44159 10.1545 5.08796 10.1013C4.52275 10.0163 3.96306 9.90279 3.4181 9.72659C3.16656 9.64526 2.91995 9.55111 2.69221 9.41399C2.59725 9.35682 2.50711 9.29309 2.43174 9.21093C2.37085 9.14456 2.32122 9.07119 2.30759 8.97973C2.29102 8.86851 2.32524 8.77135 2.39438 8.6848C2.50495 8.54638 2.6516 8.45526 2.8054 8.37463C3.07021 8.23581 3.3521 8.14095 3.63831 8.05815C3.7351 8.03015 3.83286 8.00546 3.93032 7.97984C3.9531 7.97385 3.97651 7.97024 4.0042 7.9646C4.17247 8.29502 4.36395 8.60749 4.58685 8.89958C4.58071 8.91183 4.57579 8.92163 4.56717 8.93882C4.85209 8.98639 5.13288 9.03862 5.41537 9.079C5.71954 9.12249 6.02487 9.15892 6.33049 9.19085C6.58604 9.21754 6.84249 9.23741 7.09898 9.25288C7.45628 9.27443 7.81392 9.29104 8.17157 9.30583C8.354 9.31337 8.53679 9.315 8.7194 9.31461C9.10631 9.3138 9.49338 9.31619 9.88006 9.30554C10.2715 9.29476 10.6631 9.27838 11.0535 9.24882C11.494 9.21546 11.9342 9.17305 12.3727 9.1189C12.7536 9.07186 13.1318 9.00296 13.5267 8.9413Z" fill="#888888"/>
</svg>