<svg width="14" height="13" viewBox="0 0 14 13" fill="none" xmlns="http://www.w3.org/2000/svg">
    <path d="M10.2953 7.74402C12.4956 8.15466 14 8.95542 14 9.87936C14 11.214 10.8684 12.3022 7 12.3022C3.13158 12.3022 0 11.2242 0 9.87936C0 8.95542 1.49415 8.15466 3.70468 7.74402C4.66667 7.9904 5.7924 8.13413 7 8.13413C8.2076 8.13413 9.33333 8.00067 10.2953 7.74402Z" fill="black"/>
    <path d="M9.44387 3.84737C11.3069 4.15745 12.5897 4.81895 12.5897 5.59414C12.5897 6.65874 10.0852 7.52696 7.00052 7.52696C3.9158 7.52696 1.41138 6.65874 1.41138 5.5838C1.41138 4.81895 2.69413 4.15745 4.55718 3.83704C5.26982 4.02308 6.10463 4.12644 7.00052 4.12644C7.88624 4.13678 8.72105 4.02308 9.44387 3.84737Z" fill="black"/>
    <path d="M6.99995 0.581299C9.30767 0.581299 11.1782 1.24163 11.1782 2.04642C11.1782 2.8512 9.30767 3.51153 6.99995 3.51153C4.69223 3.51153 2.82166 2.8512 2.82166 2.04642C2.82166 1.24163 4.69223 0.581299 6.99995 0.581299Z" fill="black"/>
</svg>