<svg width="13" height="12" viewBox="0 0 13 12" fill="none" xmlns="http://www.w3.org/2000/svg">
<path d="M9.55994 7.32593C11.6031 7.70724 13 8.4508 13 9.30875C13 10.548 10.0921 11.5585 6.5 11.5585C2.90789 11.5585 0 10.5575 0 9.30875C0 8.4508 1.38743 7.70724 3.44006 7.32593C4.33333 7.55471 5.37865 7.68817 6.5 7.68817C7.62135 7.68817 8.66667 7.56425 9.55994 7.32593Z" fill="#888888"/>
<path d="M8.7688 3.7076C10.4988 3.99553 11.6899 4.60977 11.6899 5.3296C11.6899 6.31815 9.36436 7.12435 6.49998 7.12435C3.6356 7.12435 1.31006 6.31815 1.31006 5.32C1.31006 4.60977 2.50119 3.99552 4.23116 3.698C4.8929 3.87075 5.66808 3.96673 6.49998 3.96673C7.32243 3.97633 8.09761 3.87076 8.7688 3.7076Z" fill="#888888"/>
<path d="M6.50021 0.674805C8.64309 0.674805 10.3801 1.28797 10.3801 2.03527C10.3801 2.78257 8.64309 3.39573 6.50021 3.39573C4.35732 3.39573 2.62036 2.78257 2.62036 2.03527C2.62036 1.28797 4.35732 0.674805 6.50021 0.674805Z" fill="#888888"/>
</svg>