<svg width="22" height="22" viewBox="0 0 22 22" fill="none" xmlns="http://www.w3.org/2000/svg">
<path fill-rule="evenodd" clip-rule="evenodd" d="M11 22C17.0751 22 22 17.0751 22 11C22 4.92487 17.0751 0 11 0C4.92487 0 0 4.92487 0 11C0 17.0751 4.92487 22 11 22ZM10.282 18.8223C10.4727 18.9408 10.6865 19 10.9004 19C11.1144 19 11.3282 18.9408 11.5189 18.8223L17.6679 15.0022C17.8901 14.8642 18.0238 14.6035 17.9965 14.3337C17.9353 13.7308 17.3515 13.4712 16.9242 13.7362L11.3261 17.2141C11.0636 17.3772 10.7375 17.3772 10.475 17.2142L6.00953 14.4401C5.72383 14.2626 5.63058 13.8744 5.80189 13.5756L10.5688 5.26266C10.7194 5.00007 11.0817 5.00007 11.2323 5.26267L11.6844 6.05117C11.9403 6.4978 12.5719 6.55971 12.8984 6.06051C13.0444 5.83719 13.0446 5.54127 12.9115 5.30918L11.9416 3.61785C11.7952 3.3625 11.5727 3.15726 11.3024 3.06684C10.7241 2.87342 10.1495 3.1127 9.85946 3.61797L4.17479 13.5318C4.00618 13.8258 3.95761 14.171 4.03757 14.5037C4.11733 14.8365 4.31616 15.1159 4.59731 15.2907L10.282 18.8223ZM16.2415 12.0339L11.9958 14.7963C11.8812 14.8708 11.7521 14.9076 11.6236 14.9076C11.4183 14.9076 11.2143 14.814 11.0719 14.6308C10.9108 14.4234 10.8821 14.1342 10.9678 13.882L12.1083 10.5254C12.181 10.3115 11.9596 10.119 11.7733 10.2342L10.5669 10.98C10.1893 11.2139 9.68821 11.0363 9.53644 10.5748C9.42607 10.2392 9.57436 9.86805 9.86559 9.68799L13.2864 7.57307C13.5979 7.38029 14.0073 7.46206 14.2283 7.79118C14.3631 7.99208 14.3825 8.25522 14.3039 8.48675L13.1919 11.7594C13.1183 11.976 13.3454 12.1689 13.5314 12.0479L15.4809 10.7794C15.768 10.5926 16.1494 10.6276 16.3804 10.8865C16.6983 11.2426 16.6147 11.791 16.2415 12.0339Z" fill="#FA6C02"/>
</svg>
