<svg width="144" height="144" viewBox="0 0 144 144" fill="none" xmlns="http://www.w3.org/2000/svg">
<path d="M71.5996 143.199C111.143 143.199 143.199 111.143 143.199 71.5996C143.199 32.0562 111.143 0 71.5996 0C32.0562 0 0 32.0562 0 71.5996C0 111.143 32.0562 143.199 71.5996 143.199Z" fill="url(#paint0_linear_206_9)"/>
<path d="M71.5054 121.741C69.918 121.741 68.3315 121.323 66.9169 120.486L28.9874 98.0664C26.9011 96.8328 25.4256 94.8595 24.8328 92.51C24.24 90.1605 24.6018 87.7233 25.8524 85.648L63.781 22.7139C65.4284 19.9815 68.3155 18.3506 71.5054 18.3506H71.5074C74.6974 18.3513 77.5844 19.9828 79.2299 22.7152L85.6018 33.2862C87.2063 35.9493 86.3486 39.4094 83.6854 41.0146C81.0243 42.6189 77.5634 41.7624 75.957 39.0988L71.5054 31.7122L36.6639 89.5237L71.5054 110.118L111.234 86.6342C113.912 85.0514 117.364 85.9394 118.946 88.6158C120.528 91.2926 119.642 94.7452 116.965 96.3275L76.0949 120.486C74.6794 121.322 73.0919 121.741 71.5054 121.741Z" fill="white"/>
<path d="M76.2399 94.1018C74.9004 94.1018 73.5708 93.625 72.5171 92.6961C70.6887 91.0856 70.1039 88.4817 71.0686 86.2442L79.5198 66.6251L68.8414 72.8603C66.1582 74.4285 62.7094 73.5228 61.1399 70.8375C59.5724 68.1521 60.4781 64.7042 63.1632 63.1365L88.6238 48.2699C90.7232 47.0435 93.3733 47.304 95.1947 48.9159C97.0151 50.5274 97.5959 53.126 96.6332 55.3593L88.235 74.8561L101.633 66.9505C104.308 65.3703 107.762 66.2597 109.343 68.9381C110.923 71.6162 110.033 75.0681 107.355 76.6483L79.1 93.3206C78.2123 93.8447 77.2236 94.1018 76.2399 94.1018Z" fill="white"/>
<defs>
<linearGradient id="paint0_linear_206_9" x1="37.3563" y1="122.297" x2="117.381" y2="33.0914" gradientUnits="userSpaceOnUse">
<stop stop-color="#FF5528"/>
<stop offset="1" stop-color="#FFB416"/>
</linearGradient>
</defs>
</svg>
