<svg width="45" height="45" viewBox="0 0 45 30" fill="none" xmlns="http://www.w3.org/2000/svg">
<ellipse cx="22.0007" cy="14.9987" rx="15.0005" ry="14.9987" fill="black"/>
<path d="M19.0568 18.5913C19.2483 19.678 20.1964 20.5037 21.338 20.5037C22.6177 20.5037 23.6551 19.4663 23.6551 18.1866C23.6551 16.9068 22.6177 15.8694 21.338 15.8694C20.7904 15.8694 20.2875 16.0598 19.8909 16.3774C19.3858 16.1653 18.6134 15.7929 17.9538 14.6937C17.9157 14.6302 17.0261 13.118 17.5121 11.3612C17.9727 9.69628 19.5391 8.03052 21.6484 8.06663C23.4964 8.09877 25.1357 9.41186 25.6348 11.2597L27.9174 10.6431C27.2637 8.22314 25.3279 6.3963 22.9931 5.86194V4H20.6286V5.7766C17.8654 6.20765 15.859 8.46895 15.2333 10.7308C14.508 13.3523 15.6834 15.5052 15.9264 15.9102C17.0149 17.7245 18.4247 18.3299 19.0568 18.5913Z" fill="white"/>
<path d="M26.7679 13.9198C26.0748 13.0174 25.1055 12.3141 23.9966 11.8969C23.7942 10.7157 22.766 9.8165 21.5271 9.8165C20.1429 9.8165 19.0208 10.9386 19.0208 12.3228C19.0208 13.707 20.1429 14.8291 21.5271 14.8291C22.1944 14.8291 22.8003 14.5678 23.2494 14.1426C23.7519 14.3441 24.393 14.7094 24.8927 15.3601C26.1354 16.9779 25.4595 19.0283 25.3783 19.2568C24.7595 20.9991 23.0487 22.1899 21.2177 22.159C19.5905 22.1292 18.0701 21.1306 17.3443 19.6148L15.2118 20.636C16.1973 22.6941 18.1564 24.1273 20.3449 24.4529V26.2729H22.7093V24.3648C24.923 23.8679 26.8278 22.2404 27.6064 20.0482C27.8107 19.4731 28.7303 16.4749 26.7679 13.9198Z" fill="white"/>
<defs>
</defs>
</svg>
