<svg width="14" height="19" viewBox="0 0 14 19" fill="none" xmlns="http://www.w3.org/2000/svg">
<path d="M12.25 6.50021H11.3716V4.75021C11.3772 4.17439 11.268 3.60324 11.0504 3.07011C10.8327 2.53699 10.511 2.05261 10.104 1.64527C9.69693 1.23793 9.2128 0.915809 8.67984 0.697739C8.14689 0.479669 7.57582 0.370022 7 0.375208C6.4239 0.369566 5.85246 0.478877 5.31911 0.696743C4.78576 0.91461 4.30122 1.23666 3.89384 1.64404C3.48645 2.05143 3.1644 2.53597 2.94654 3.06932C2.72867 3.60266 2.61936 4.17411 2.625 4.75021V6.50021H1.75C1.28631 6.50164 0.842028 6.68648 0.51415 7.01436C0.186272 7.34224 0.00143669 7.78652 0 8.25021L0 17.0002C0.00143669 17.4639 0.186272 17.9082 0.51415 18.2361C0.842028 18.5639 1.28631 18.7488 1.75 18.7502H12.25C12.7137 18.7488 13.158 18.5639 13.4859 18.2361C13.8137 17.9082 13.9986 17.4639 14 17.0002V8.25021C13.9986 7.78652 13.8137 7.34224 13.4859 7.01436C13.158 6.68648 12.7137 6.50164 12.25 6.50021ZM7 14.3752C6.65388 14.3752 6.31554 14.2726 6.02775 14.0803C5.73997 13.888 5.51566 13.6147 5.38321 13.2949C5.25076 12.9751 5.2161 12.6233 5.28363 12.2838C5.35115 11.9443 5.51782 11.6325 5.76256 11.3878C6.00731 11.143 6.31913 10.9764 6.65859 10.9088C6.99806 10.8413 7.34993 10.876 7.6697 11.0084C7.98947 11.1409 8.26278 11.3652 8.45507 11.653C8.64736 11.9407 8.75 12.2791 8.75 12.6252C8.74856 13.0889 8.56373 13.5332 8.23585 13.8611C7.90797 14.1889 7.46369 14.3738 7 14.3752ZM9.71216 6.50021H4.28988V4.75021C4.28988 4.03081 4.57566 3.34087 5.08436 2.83218C5.59305 2.32349 6.28298 2.03771 7.00238 2.03771C7.72178 2.03771 8.41172 2.32349 8.92041 2.83218C9.4291 3.34087 9.71488 4.03081 9.71488 4.75021L9.71216 6.50021Z" fill="#F64A00"/>
</svg>
