<svg width="149" height="25" viewBox="0 0 149 25" fill="none" xmlns="http://www.w3.org/2000/svg">
<path d="M26.1241 21.4322C25.1927 21.4507 24.2691 21.2594 23.4218 20.8724C22.5744 20.4854 21.825 19.9127 21.2291 19.1966C19.926 17.685 19.2338 15.7416 19.2879 13.7466V6.9956C19.2817 6.65428 19.2966 6.31292 19.3322 5.97342C19.3766 5.70939 19.4595 5.45328 19.5781 5.21326C19.8507 4.6873 20.6108 4.42432 21.8586 4.42432C23.2211 4.42432 24.0194 4.79422 24.2536 5.53403C24.3935 6.01782 24.4528 6.52133 24.4293 7.02439V13.7759C24.4 14.116 24.4451 14.4583 24.5616 14.7791C24.6781 15.0999 24.8631 15.3914 25.1037 15.6334C25.3444 15.8754 25.6349 16.0621 25.955 16.1804C26.2751 16.2987 26.6172 16.3458 26.9574 16.3184C27.2997 16.3324 27.6414 16.2776 27.9621 16.1572C28.2829 16.0368 28.5763 15.8533 28.8249 15.6176C29.065 15.3765 29.2526 15.0883 29.3758 14.7712C29.499 14.454 29.5552 14.1147 29.5407 13.7748V8.60459C29.5359 8.26772 29.5505 7.93084 29.5845 7.59566C29.631 7.3235 29.7252 7.06169 29.8626 6.82226C30.1153 6.31587 30.865 6.06249 32.112 6.0621C33.3405 6.0621 34.0907 6.32432 34.3625 6.84875C34.4828 7.09338 34.5657 7.35466 34.6084 7.62387C34.6432 7.95862 34.658 8.29515 34.6528 8.63165V22.516C34.6579 22.8429 34.6435 23.1698 34.6096 23.495C34.5655 23.7588 34.4713 24.0118 34.332 24.2402C34.0391 24.7465 33.2889 24.9999 32.0815 25.0003C30.8913 25.0003 30.1609 24.7663 29.8903 24.2983C29.6884 23.9364 29.5875 23.5269 29.5983 23.1126V19.5618C29.4499 19.7791 29.2728 19.9755 29.072 20.1457C28.8254 20.3786 28.5625 20.5935 28.2853 20.7889C27.644 21.2112 26.8925 21.435 26.1246 21.4322" fill="black"/>
<path d="M45.4856 6.06131C47.8467 6.22141 48.695 6.78173 49.9907 8.27325C51.2864 9.76476 51.6032 11.6179 51.6032 13.7608V18.9033C51.6085 19.2398 51.5937 19.5764 51.5588 19.9111C51.5188 20.1714 51.4357 20.4232 51.3129 20.6563C51.0399 21.1822 50.2804 21.4454 49.0342 21.4458C47.6521 21.4458 46.8533 21.0853 46.638 20.3643C46.5011 19.8799 46.4418 19.3769 46.4623 18.8739V13.7314C46.4918 13.3914 46.4468 13.049 46.3304 12.7282C46.2141 12.4073 46.0291 12.1157 45.7885 11.8737C45.5479 11.6316 45.2574 11.445 44.9372 11.3267C44.6171 11.2084 44.275 11.1614 43.9348 11.1889C43.5925 11.1748 43.2508 11.2296 42.93 11.35C42.6092 11.4704 42.3158 11.6539 42.0672 11.8897C41.8272 12.1308 41.6396 12.419 41.5164 12.7362C41.3932 13.0534 41.3371 13.3926 41.3514 13.7325V22.457C41.3568 22.7935 41.342 23.1301 41.3071 23.4648C41.2633 23.7286 41.1693 23.9816 41.0301 24.21C40.7763 24.736 40.0262 24.9991 38.7796 24.9995C37.551 24.9995 36.8013 24.7363 36.5302 24.21C36.4089 23.9662 36.325 23.7054 36.2814 23.4366C36.2474 23.1014 36.233 22.7645 36.2382 22.4277V8.53009C36.233 8.20317 36.2476 7.87624 36.282 7.5511C36.3253 7.28704 36.4196 7.03394 36.5596 6.80592C36.8322 6.3195 37.5823 6.07609 38.8101 6.07571C39.9979 6.07571 40.7283 6.29992 41.0013 6.74833C41.2041 7.11405 41.305 7.52754 41.2933 7.94557C41.4418 7.72825 41.6188 7.53185 41.8196 7.36164C42.0608 7.1314 42.3243 6.92576 42.6063 6.74776C43.4892 6.2702 44.4822 6.03326 45.4856 6.06074" fill="black"/>
<path d="M63.5227 7.75614C63.5262 7.71698 63.5313 7.6784 63.5371 7.64097C63.6953 6.62743 64.4598 6.12047 65.8308 6.12008C66.4012 6.09842 66.9718 6.15755 67.5256 6.29573C67.6901 6.33878 67.8438 6.41559 67.9769 6.52128C68.1101 6.62697 68.2197 6.75922 68.299 6.90961C68.4288 7.1516 68.5179 7.41327 68.5628 7.68416C68.5966 8.01897 68.611 8.35546 68.6059 8.69194V18.9195C68.611 19.2559 68.5966 19.5924 68.5628 19.9272C68.5188 20.1964 68.4349 20.4574 68.314 20.7018C68.0406 21.2078 67.3734 21.4612 66.3122 21.462C65.5792 21.5321 64.8412 21.3959 64.1815 21.0686C64.0001 20.9331 63.8501 20.7601 63.7416 20.5613C63.6332 20.3626 63.5689 20.1428 63.5532 19.9169C62.8322 20.95 61.629 21.4664 59.9436 21.466C58.2583 21.4656 56.6938 20.6945 55.2503 19.1527C53.8605 17.7153 53.0849 15.7934 53.0877 13.794C53.0904 11.7947 53.8715 9.87491 55.2652 8.44143C56.7161 6.91268 58.3093 6.14811 60.045 6.14773C60.6665 6.13964 61.2831 6.25899 61.8567 6.49843C62.5347 6.72316 63.1199 7.16472 63.5221 7.75499L63.5227 7.75614ZM58.2028 13.8345C58.2058 14.1605 58.2747 14.4825 58.4054 14.7811C58.536 15.0798 58.7256 15.349 58.9629 15.5725C59.1996 15.8223 59.4857 16.0201 59.8029 16.1535C60.1201 16.2868 60.4617 16.3527 60.8057 16.347C61.1448 16.3544 61.4813 16.2876 61.7918 16.1512C62.1022 16.0148 62.3791 15.8122 62.603 15.5575C63.0556 15.0914 63.3119 14.4692 63.3188 13.8195C63.3107 13.1654 63.0651 12.5365 62.6278 12.0499C62.404 11.7813 62.1214 11.5678 61.8018 11.426C61.4822 11.2842 61.1343 11.2178 60.785 11.2321C60.4323 11.2201 60.0814 11.2874 59.7581 11.4289C59.4348 11.5704 59.1473 11.7826 58.9169 12.0499C58.4628 12.5341 58.2071 13.1713 58.2005 13.8351" fill="black"/>
<path d="M75.2539 8.16554C76.1695 6.78344 77.2702 6.0924 78.5559 6.0924C79.461 6.05313 80.3586 6.27112 81.1448 6.72111C81.931 7.17109 82.5737 7.83464 82.9982 8.63488C83.2371 8.31239 83.4954 8.00469 83.7716 7.71348C84.2026 7.2972 84.6897 6.94326 85.2188 6.66194C85.8379 6.2942 86.5436 6.09764 87.2637 6.0924C88.0091 6.08128 88.7476 6.23689 89.4251 6.54785C90.1026 6.85882 90.7021 7.31727 91.1797 7.8897C92.2335 9.08483 92.7604 11.067 92.7604 13.8362V18.9482C92.7662 19.2847 92.7518 19.6212 92.7173 19.956C92.6707 20.2286 92.5767 20.4909 92.4397 20.7311C92.1859 21.2571 91.4357 21.5193 90.1892 21.5178C88.9606 21.5178 88.2108 21.2452 87.9398 20.7C87.8183 20.4556 87.7345 20.1943 87.691 19.9249C87.6562 19.5902 87.6414 19.2536 87.6467 18.9171V13.8045C87.6467 12.1095 87.043 11.262 85.8356 11.262C85.5642 11.2303 85.2894 11.2768 85.0435 11.396C84.7977 11.5151 84.591 11.702 84.4477 11.9346C84.1736 12.5291 84.0483 13.1813 84.0826 13.835V18.9471C84.0889 19.2884 84.0743 19.6297 84.0388 19.9692C83.9903 20.2366 83.8964 20.4937 83.7613 20.7294C83.4879 21.2554 82.7283 21.5176 81.4825 21.516C80.254 21.516 79.5038 21.2435 79.232 20.6983C79.1113 20.4539 79.0285 20.1925 78.9867 19.9232C78.9517 19.5884 78.9369 19.2519 78.9423 18.9154V13.8028C78.9423 12.1078 78.3384 11.2603 77.1306 11.2603C75.9616 11.2603 75.3773 12.1078 75.3777 13.8028V18.977C75.3832 19.3139 75.3686 19.6508 75.3339 19.9859C75.2878 20.2583 75.1938 20.5203 75.0563 20.7599C74.7642 21.2671 74.0046 21.5205 72.7776 21.5201C71.5506 21.5197 70.8004 21.2575 70.5271 20.7334C70.4087 20.4933 70.3259 20.2372 70.2812 19.9733C70.2456 19.6338 70.2308 19.2924 70.2368 18.9511V8.66195C70.2316 8.32544 70.2464 7.98891 70.2812 7.65417C70.3249 7.39023 70.4192 7.13721 70.5588 6.90899C70.8509 6.38302 71.542 6.11985 72.6319 6.11946C73.7218 6.11908 74.4321 6.29453 74.7626 6.64581C75.1172 7.06954 75.2934 7.61444 75.2539 8.16554Z" fill="black"/>
<path d="M99.1531 4.462C99.0715 4.60908 98.9609 4.73802 98.8279 4.84099C98.695 4.94395 98.5425 5.01877 98.3797 5.06091C97.4104 5.29495 96.3993 5.29495 95.43 5.06091C95.2651 5.01802 95.1108 4.9413 94.9771 4.83562C94.8433 4.72994 94.733 4.59761 94.6532 4.44702C94.5241 4.20485 94.4354 3.94323 94.3906 3.67247C94.3557 3.33774 94.3408 3.0012 94.3462 2.66469C94.3408 2.32818 94.3556 1.99165 94.3906 1.65691C94.4318 1.39649 94.5159 1.1447 94.6394 0.911732C94.9135 0.386918 95.674 0.124512 96.921 0.124512C98.1495 0.124512 98.8895 0.387686 99.141 0.914036C99.2787 1.15337 99.3728 1.41522 99.4191 1.68743C99.4537 2.02258 99.4681 2.35949 99.4623 2.69637C99.4681 3.03286 99.4537 3.36939 99.4191 3.70415C99.3749 3.97089 99.2851 4.22803 99.1536 4.4643" fill="black"/>
<path d="M94.3469 8.68937C94.3415 8.35286 94.3563 8.01633 94.3912 7.68159C94.4347 7.41235 94.5185 7.15122 94.64 6.90704C94.9126 6.40066 95.6722 6.14727 96.9187 6.14689C97.6181 6.08238 98.3187 6.25741 98.9055 6.64329C99.0796 6.80191 99.2169 6.99666 99.3078 7.21392C99.3987 7.43117 99.4411 7.66567 99.4318 7.901C99.4507 8.09565 99.4601 8.37783 99.4601 8.74754V18.9768C99.4656 19.3133 99.4512 19.6498 99.4169 19.9846C99.3707 20.2568 99.2765 20.5187 99.1387 20.758C98.8861 21.2651 98.1363 21.5185 96.8894 21.5181C95.6608 21.5181 94.9109 21.2559 94.6394 20.7315C94.5198 20.4916 94.436 20.2355 94.3906 19.9713C94.355 19.6318 94.3402 19.2905 94.3463 18.9492L94.3469 8.68937Z" fill="black"/>
<path d="M18.3274 16.4588C18.3107 16.3546 18.1685 16.3379 17.9065 16.3477H10.4201C14.0251 13.0744 16.1194 11.1548 16.7029 10.589C16.9762 10.3439 17.1953 10.0444 17.3462 9.70969C17.497 9.375 17.5762 9.01248 17.5788 8.64537C17.5878 8.30484 17.525 7.96622 17.3944 7.65158C17.2639 7.33695 17.0685 7.05335 16.821 6.81928C16.5874 6.5852 16.3096 6.40001 16.0036 6.27453C15.6977 6.14905 15.3698 6.08581 15.0392 6.08849H2.6055C2.09484 6.07069 1.58405 6.12026 1.08634 6.23592C0.860767 6.31459 0.659264 6.45005 0.501254 6.62924C0.334922 6.85626 0.215859 7.11436 0.151122 7.38824C0.0349669 7.90071 -0.0145834 8.42602 0.00369847 8.95116C-0.0259136 9.556 0.148944 10.1532 0.500102 10.6465C0.792262 11.017 1.49368 11.2021 2.60435 11.2017H9.66284C9.58606 11.2785 9.11864 11.6923 8.26059 12.4433C7.40253 13.1942 6.44773 14.0369 5.39619 14.9714C4.34426 15.907 3.56529 16.623 3.05929 17.1194C2.81527 17.3501 2.62181 17.629 2.49116 17.9384C2.36051 18.2477 2.29552 18.5809 2.30029 18.9167C2.29661 19.2544 2.36205 19.5892 2.49258 19.9007C2.62311 20.2121 2.81596 20.4936 3.05929 20.7278C3.28908 20.9697 3.56609 21.1619 3.87316 21.2925C4.18023 21.423 4.51083 21.4892 4.8445 21.4868H17.9623C18.2986 21.4899 18.6348 21.4754 18.9695 21.4436C19.2428 21.4127 19.5075 21.3294 19.7493 21.1983C19.8998 21.1156 20.0315 21.0026 20.1363 20.8666C20.241 20.7305 20.3165 20.5742 20.358 20.4076C20.3983 20.2562 20.4605 20.1001 20.3632 19.9936C19.2787 19.1 18.5556 17.8431 18.328 16.4565" fill="black"/>
<path d="M145.008 13.7594H107.001C106.207 13.7578 105.446 13.4419 104.885 12.8806C104.324 12.3193 104.008 11.5586 104.006 10.7648V2.99455C104.008 2.20081 104.324 1.44002 104.885 0.878764C105.446 0.317507 106.207 0.00152203 107.001 0L145.008 0C145.802 0.00152203 146.563 0.317507 147.124 0.878764C147.685 1.44002 148.001 2.20081 148.003 2.99455V10.7689C148.001 11.5626 147.685 12.3234 147.124 12.8846C146.563 13.4459 145.802 13.7619 145.008 13.7634" fill="#F64A00"/>
<path d="M110.624 10.0238C110.642 10.2757 110.585 10.5273 110.461 10.7471C110.401 10.8209 110.326 10.8803 110.24 10.9212C110.155 10.962 110.061 10.9832 109.966 10.9832C109.871 10.9832 109.778 10.962 109.692 10.9212C109.607 10.8803 109.531 10.8209 109.472 10.7471C109.349 10.5267 109.294 10.2754 109.312 10.0238V5.61379C109.294 5.3643 109.349 5.11506 109.472 4.89682C109.527 4.81883 109.601 4.75637 109.688 4.71542C109.774 4.67448 109.87 4.65644 109.965 4.66302C110.091 4.66092 110.214 4.69707 110.319 4.76668C110.433 4.84875 110.526 4.95668 110.591 5.08168C110.723 4.93504 110.886 4.81974 111.069 4.74422C111.26 4.66618 111.465 4.62703 111.672 4.62904C111.943 4.62572 112.212 4.68311 112.458 4.797C112.704 4.9109 112.921 5.07841 113.094 5.28727C113.485 5.74458 113.691 6.33179 113.67 6.93312C113.687 7.54368 113.476 8.1386 113.08 8.60315C112.909 8.81757 112.693 8.99074 112.446 9.10971C112.199 9.22867 111.929 9.29037 111.655 9.29017C111.468 9.29181 111.281 9.25942 111.105 9.19457C110.929 9.12682 110.766 9.02943 110.623 8.90664L110.624 10.0238ZM110.599 6.95154C110.585 7.24124 110.67 7.52716 110.839 7.76238C110.913 7.8582 111.008 7.9358 111.116 7.9892C111.225 8.0426 111.344 8.07038 111.465 8.07038C111.586 8.07038 111.705 8.0426 111.814 7.9892C111.922 7.9358 112.017 7.8582 112.091 7.76238C112.259 7.52836 112.344 7.24427 112.331 6.95615C112.343 6.67206 112.256 6.39259 112.085 6.16548C112.012 6.07027 111.918 5.99316 111.81 5.94009C111.703 5.88701 111.584 5.85941 111.464 5.85941C111.344 5.85941 111.226 5.88701 111.118 5.94009C111.01 5.99316 110.916 6.07027 110.843 6.16548C110.673 6.39341 110.586 6.67345 110.599 6.95788" fill="white"/>
<path d="M114.697 8.25127V5.61376C114.679 5.36409 114.735 5.11468 114.857 4.89623C114.912 4.81814 114.987 4.75562 115.073 4.71468C115.16 4.67373 115.255 4.65574 115.351 4.66242C115.476 4.66039 115.6 4.69654 115.704 4.76608C115.819 4.84815 115.912 4.95608 115.977 5.08108C116.099 4.9452 116.245 4.83295 116.408 4.74995C116.55 4.67749 116.708 4.63924 116.868 4.63823C116.955 4.63715 117.042 4.65368 117.123 4.68683C117.203 4.71998 117.276 4.76907 117.338 4.83115C117.401 4.88944 117.451 4.96022 117.485 5.03895C117.519 5.11768 117.536 5.20264 117.535 5.2884C117.535 5.55138 117.294 5.77079 116.812 5.94662C116.639 6.0092 116.509 6.06064 116.422 6.10095C116.288 6.1534 116.173 6.24491 116.093 6.36355C116.026 6.52917 115.998 6.70785 116.011 6.88587V8.25127C116.029 8.50176 115.972 8.7519 115.849 8.97054C115.789 9.04417 115.714 9.10355 115.628 9.14433C115.543 9.18511 115.449 9.20627 115.354 9.20627C115.259 9.20627 115.166 9.18511 115.08 9.14433C114.994 9.10355 114.919 9.04417 114.859 8.97054C114.737 8.75135 114.682 8.50147 114.699 8.25127" fill="white"/>
<path d="M117.973 6.93446C117.961 6.62621 118.011 6.31877 118.119 6.02974C118.227 5.7407 118.39 5.47574 118.6 5.25002C119.023 4.82789 119.597 4.59082 120.194 4.59082C120.792 4.59082 121.365 4.82789 121.788 5.25002C122.21 5.70812 122.434 6.31451 122.41 6.93676C122.434 7.55953 122.21 8.16647 121.788 8.62522C121.579 8.83487 121.331 9.00119 121.057 9.11468C120.784 9.22816 120.491 9.28657 120.194 9.28657C119.898 9.28657 119.605 9.22816 119.332 9.11468C119.058 9.00119 118.81 8.83487 118.6 8.62522C118.176 8.16841 117.95 7.56171 117.973 6.93849V6.93446ZM119.33 6.92236C119.316 7.21207 119.4 7.49804 119.57 7.73319C119.644 7.82892 119.739 7.90643 119.847 7.95976C119.956 8.01309 120.075 8.04083 120.196 8.04083C120.317 8.04083 120.436 8.01309 120.544 7.95976C120.653 7.90643 120.748 7.82892 120.822 7.73319C120.99 7.49908 121.074 7.21502 121.061 6.92697C121.073 6.64285 120.986 6.3633 120.815 6.13629C120.742 6.04117 120.648 5.96415 120.54 5.91115C120.432 5.85815 120.314 5.83058 120.194 5.83058C120.073 5.83058 119.955 5.85815 119.847 5.91115C119.739 5.96415 119.645 6.04117 119.572 6.13629C119.403 6.3648 119.317 6.64462 119.33 6.9287" fill="white"/>
<path d="M123.699 5.92694H123.65C123.457 5.93787 123.267 5.88417 123.108 5.77433C123.044 5.72654 122.993 5.66409 122.959 5.5923C122.925 5.52052 122.908 5.44151 122.911 5.362C122.907 5.28202 122.923 5.20231 122.957 5.12997C122.992 5.05764 123.043 4.99491 123.108 4.94737C123.285 4.83619 123.49 4.77841 123.699 4.78095V4.20507C123.682 3.95458 123.738 3.70445 123.862 3.48581C123.917 3.40743 123.992 3.34463 124.079 3.30339C124.166 3.26216 124.262 3.24387 124.357 3.25027C124.452 3.24403 124.547 3.26243 124.633 3.3037C124.719 3.34496 124.793 3.4077 124.847 3.48581C124.969 3.70487 125.025 3.9548 125.008 4.20507V4.78095H125.123C125.336 4.76863 125.549 4.82274 125.73 4.93586C125.8 4.98269 125.856 5.04643 125.894 5.12107C125.932 5.19572 125.951 5.27883 125.948 5.36258C125.953 5.44515 125.936 5.5275 125.899 5.60159C125.862 5.67568 125.807 5.73897 125.738 5.78527C125.549 5.89265 125.332 5.94211 125.115 5.92751H125.01V8.25059C125.028 8.50135 124.973 8.75191 124.852 8.97216C124.797 9.05026 124.723 9.11284 124.637 9.15381C124.551 9.19479 124.456 9.21275 124.36 9.20597C124.264 9.21243 124.168 9.19416 124.082 9.15292C123.995 9.11168 123.92 9.04885 123.864 8.97043C123.741 8.75178 123.685 8.50166 123.702 8.25117L123.699 5.92694Z" fill="white"/>
<path d="M126.321 6.93469C126.31 6.62645 126.36 6.31902 126.467 6.02999C126.575 5.74096 126.739 5.476 126.949 5.25026C127.372 4.82799 127.945 4.59082 128.543 4.59082C129.141 4.59082 129.714 4.82799 130.137 5.25026C130.559 5.7082 130.783 6.31465 130.759 6.937C130.783 7.55985 130.559 8.1668 130.137 8.62546C129.928 8.8351 129.679 9.00143 129.406 9.11491C129.132 9.2284 128.839 9.28681 128.543 9.28681C128.247 9.28681 127.954 9.2284 127.68 9.11491C127.407 9.00143 127.158 8.8351 126.949 8.62546C126.525 8.16858 126.299 7.56193 126.321 6.93872V6.93469ZM127.679 6.9226C127.664 7.2123 127.749 7.49824 127.919 7.73343C127.993 7.82915 128.087 7.90667 128.196 7.96C128.304 8.01333 128.424 8.04107 128.544 8.04107C128.665 8.04107 128.785 8.01333 128.893 7.96C129.001 7.90667 129.096 7.82915 129.17 7.73343C129.338 7.49928 129.423 7.21524 129.41 6.92721C129.422 6.6431 129.335 6.36358 129.164 6.13653C129.09 6.0413 128.996 5.96418 128.888 5.91111C128.781 5.85804 128.662 5.83045 128.542 5.83045C128.422 5.83045 128.303 5.85804 128.195 5.91111C128.087 5.96418 127.993 6.0413 127.92 6.13653C127.751 6.36508 127.665 6.64487 127.678 6.92894" fill="white"/>
<path d="M131.523 6.93479C131.51 6.6271 131.558 6.31991 131.665 6.03105C131.772 5.74219 131.935 5.47741 132.145 5.25209C132.357 5.03618 132.612 4.86712 132.893 4.75583C133.175 4.64454 133.476 4.59348 133.779 4.60596C134.147 4.59012 134.512 4.67072 134.839 4.83976C134.957 4.89285 135.058 4.97785 135.13 5.08513C135.201 5.19241 135.242 5.31768 135.246 5.44674C135.248 5.52011 135.236 5.5932 135.209 5.66166C135.183 5.73012 135.143 5.79255 135.092 5.84524C135.041 5.89723 134.981 5.93816 134.913 5.96542C134.846 5.99269 134.774 6.00569 134.702 6.00361C134.561 5.98751 134.424 5.95424 134.291 5.90456C134.127 5.84573 133.954 5.81214 133.779 5.80493C133.654 5.80103 133.529 5.82655 133.415 5.87944C133.301 5.93234 133.201 6.01114 133.123 6.10957C132.948 6.3386 132.859 6.6221 132.873 6.91003C132.856 7.20258 132.947 7.49113 133.129 7.72086C133.216 7.81904 133.324 7.89645 133.445 7.94737C133.566 7.9983 133.697 8.02145 133.828 8.01514C134.004 8.00933 134.177 7.9757 134.343 7.91551C134.467 7.86711 134.598 7.83385 134.731 7.81646C134.799 7.81551 134.867 7.82978 134.93 7.85826C134.992 7.88674 135.048 7.92871 135.092 7.98116C135.19 8.09232 135.242 8.23628 135.239 8.38427C135.228 8.51796 135.182 8.64631 135.104 8.75529C135.026 8.86426 134.919 8.94967 134.796 9.00218C134.459 9.18278 134.081 9.271 133.699 9.25787C133.406 9.26877 133.114 9.21695 132.844 9.10591C132.573 8.99487 132.329 8.82716 132.128 8.61405C131.714 8.1545 131.498 7.55118 131.524 6.93364" fill="white"/>
<path d="M135.852 6.93446C135.841 6.62621 135.89 6.31876 135.998 6.02972C136.106 5.74068 136.269 5.47573 136.48 5.25002C136.903 4.82789 137.476 4.59082 138.074 4.59082C138.671 4.59082 139.245 4.82789 139.668 5.25002C140.089 5.70812 140.313 6.31451 140.289 6.93676C140.313 7.55948 140.089 8.1663 139.668 8.62522C139.459 8.83487 139.21 9.00119 138.937 9.11468C138.663 9.22816 138.37 9.28657 138.074 9.28657C137.778 9.28657 137.484 9.22816 137.211 9.11468C136.937 9.00119 136.689 8.83487 136.48 8.62522C136.055 8.16844 135.829 7.56172 135.852 6.93849V6.93446ZM137.209 6.92236C137.195 7.21208 137.28 7.49807 137.449 7.73319C137.523 7.82902 137.618 7.90662 137.726 7.96002C137.835 8.01343 137.954 8.0412 138.075 8.0412C138.196 8.0412 138.315 8.01343 138.424 7.96002C138.532 7.90662 138.627 7.82902 138.701 7.73319C138.869 7.49908 138.954 7.21502 138.94 6.92697C138.953 6.64285 138.866 6.3633 138.694 6.13629C138.621 6.04117 138.527 5.96415 138.419 5.91115C138.311 5.85815 138.193 5.83058 138.073 5.83058C137.953 5.83058 137.834 5.85815 137.726 5.91115C137.619 5.96415 137.524 6.04117 137.451 6.13629C137.282 6.3648 137.196 6.64462 137.209 6.9287" fill="white"/>
<path d="M141.355 3.75649C141.337 3.50468 141.393 3.25317 141.517 3.03319C141.573 2.95478 141.648 2.89194 141.734 2.8507C141.821 2.80946 141.917 2.7912 142.013 2.79766C142.108 2.79174 142.202 2.81057 142.287 2.85227C142.373 2.89397 142.445 2.95712 142.499 3.03549C142.621 3.25542 142.677 3.50606 142.659 3.75706V8.25176C142.677 8.50234 142.622 8.75275 142.501 8.97276C142.447 9.05058 142.373 9.11303 142.288 9.154C142.202 9.19498 142.108 9.21309 142.013 9.20656C141.917 9.21302 141.821 9.19476 141.734 9.15352C141.648 9.11228 141.573 9.04945 141.517 8.97103C141.394 8.75244 141.337 8.50227 141.355 8.25176V3.75649Z" fill="white"/>
</svg>
