<svg width="194" height="33" viewBox="0 0 194 33" fill="none" xmlns="http://www.w3.org/2000/svg">
<path d="M34.244 28.0925C33.0232 28.1168 31.8125 27.866 30.7018 27.3587C29.5912 26.8515 28.6088 26.1007 27.8278 25.1622C26.1197 23.1808 25.2123 20.6334 25.2832 18.0183V9.16923C25.2751 8.72184 25.2946 8.27438 25.3413 7.82937C25.3995 7.48328 25.5081 7.14759 25.6636 6.83297C26.0209 6.14354 27.0173 5.79883 28.6528 5.79883C30.4388 5.79883 31.4852 6.28369 31.7922 7.25342C31.9756 7.88757 32.0534 8.54757 32.0224 9.20697V18.0568C31.984 18.5025 32.0432 18.9512 32.1959 19.3717C32.3486 19.7922 32.5911 20.1744 32.9065 20.4916C33.2219 20.8088 33.6027 21.0535 34.0223 21.2085C34.442 21.3636 34.8903 21.4254 35.3362 21.3895C35.785 21.4078 36.2328 21.336 36.6533 21.1782C37.0738 21.0204 37.4583 20.7799 37.7842 20.4708C38.099 20.1548 38.3448 19.7771 38.5063 19.3613C38.6678 18.9456 38.7414 18.5009 38.7225 18.0553V11.2783C38.7161 10.8367 38.7353 10.3951 38.7799 9.95578C38.8408 9.59904 38.9642 9.25586 39.1445 8.94202C39.4756 8.27825 40.4584 7.94612 42.0929 7.94562C43.7032 7.94562 44.6865 8.28933 45.0428 8.97674C45.2005 9.2974 45.3091 9.63989 45.3652 9.99277C45.4108 10.4315 45.4302 10.8727 45.4233 11.3138V29.5132C45.43 29.9417 45.4111 30.3702 45.3667 30.7964C45.3089 31.1422 45.1854 31.4738 45.0028 31.7732C44.6189 32.4369 43.6355 32.7691 42.0529 32.7696C40.4929 32.7696 39.5355 32.4629 39.1807 31.8494C38.916 31.375 38.7838 30.8382 38.798 30.2952V25.6408C38.6034 25.9257 38.3713 26.1832 38.108 26.4062C37.7849 26.7115 37.4403 26.9932 37.0769 27.2494C36.2363 27.8029 35.2512 28.0962 34.2447 28.0925" fill="white"/>
<path d="M59.6228 7.94497C62.7176 8.15482 63.8295 8.88929 65.5279 10.8443C67.2263 12.7994 67.6415 15.2285 67.6415 18.0373V24.7781C67.6486 25.2192 67.6292 25.6603 67.5834 26.0991C67.5309 26.4403 67.422 26.7704 67.2611 27.0759C66.9033 27.7653 65.9076 28.1103 64.2741 28.1108C62.4625 28.1108 61.4155 27.6382 61.1332 26.6932C60.9539 26.0582 60.8761 25.3989 60.903 24.7396V17.9988C60.9416 17.5531 60.8826 17.1044 60.7301 16.6838C60.5776 16.2632 60.3351 15.881 60.0197 15.5638C59.7043 15.2465 59.3236 15.0018 58.9039 14.8468C58.4843 14.6918 58.0359 14.6301 57.59 14.6661C57.1412 14.6477 56.6933 14.7195 56.2728 14.8773C55.8524 15.0351 55.4678 15.2757 55.142 15.5848C54.8273 15.9008 54.5815 16.2786 54.42 16.6943C54.2585 17.1101 54.1849 17.5547 54.2037 18.0003V29.4363C54.2108 29.8774 54.1914 30.3185 54.1456 30.7573C54.0882 31.1031 53.9649 31.4347 53.7825 31.734C53.4499 32.4235 52.4665 32.7684 50.8325 32.7689C49.2222 32.7689 48.2394 32.424 47.8841 31.734C47.725 31.4144 47.6151 31.0727 47.558 30.7203C47.5134 30.2809 47.4945 29.8393 47.5014 29.3978V11.181C47.4945 10.7525 47.5137 10.324 47.5588 9.89777C47.6155 9.55164 47.7391 9.21988 47.9226 8.92099C48.2799 8.2834 49.2632 7.96435 50.8726 7.96384C52.4296 7.96384 53.3869 8.25773 53.7447 8.84551C54.0106 9.32488 54.1428 9.86689 54.1275 10.4148C54.3221 10.13 54.5542 9.87253 54.8174 9.64942C55.1335 9.34763 55.4789 9.07808 55.8485 8.84475C57.0058 8.21877 58.3075 7.9082 59.6228 7.94422" fill="white"/>
<path d="M83.2641 10.1659C83.2686 10.1145 83.2754 10.064 83.2829 10.0149C83.4903 8.68636 84.4925 8.02184 86.2895 8.02134C87.0372 7.99294 87.7851 8.07046 88.511 8.25157C88.7266 8.308 88.9281 8.40869 89.1026 8.54723C89.2771 8.68576 89.4209 8.85911 89.5248 9.05624C89.6949 9.37344 89.8117 9.71643 89.8705 10.0715C89.9148 10.5104 89.9337 10.9514 89.9271 11.3925V24.7986C89.9337 25.2397 89.9148 25.6807 89.8705 26.1196C89.8129 26.4723 89.703 26.8145 89.5444 27.1349C89.1861 27.7981 88.3115 28.1303 86.9206 28.1313C85.9597 28.2232 84.9923 28.0447 84.1276 27.6157C83.8898 27.4381 83.6932 27.2113 83.551 26.9508C83.4089 26.6902 83.3247 26.4021 83.3041 26.106C82.359 27.4602 80.7819 28.1371 78.5727 28.1366C76.3635 28.136 74.3128 27.1253 72.4207 25.1043C70.599 23.2202 69.5823 20.701 69.5859 18.0803C69.5896 15.4595 70.6133 12.9431 72.4403 11.0641C74.342 9.06026 76.4304 8.05808 78.7055 8.05757C79.5202 8.04697 80.3284 8.20342 81.0803 8.51728C81.969 8.81185 82.7361 9.39063 83.2633 10.1644L83.2641 10.1659ZM76.2908 18.1333C76.2948 18.5606 76.3851 18.9826 76.5563 19.3741C76.7276 19.7656 76.9762 20.1184 77.2872 20.4114C77.5974 20.7389 77.9724 20.9982 78.3882 21.173C78.8041 21.3478 79.2517 21.4342 79.7027 21.4267C80.1471 21.4364 80.5882 21.3487 80.9952 21.17C81.4021 20.9912 81.7651 20.7256 82.0586 20.3918C82.6519 19.7808 82.9877 18.9653 82.9969 18.1137C82.9861 17.2562 82.6642 16.4318 82.091 15.794C81.7977 15.4419 81.4272 15.1621 81.0083 14.9763C80.5895 14.7904 80.1334 14.7034 79.6755 14.7221C79.2132 14.7064 78.7532 14.7946 78.3295 14.9801C77.9057 15.1656 77.5289 15.4437 77.2268 15.794C76.6316 16.4288 76.2965 17.2639 76.2878 18.1341" fill="white"/>
<path d="M98.6424 10.7038C99.8426 8.89219 101.285 7.98637 102.971 7.98637C104.157 7.93491 105.334 8.22065 106.364 8.81048C107.395 9.40031 108.237 10.2701 108.794 11.319C109.107 10.8963 109.445 10.493 109.807 10.1113C110.372 9.56562 111.011 9.10168 111.704 8.73292C112.516 8.25089 113.441 7.99325 114.385 7.98637C115.362 7.9718 116.33 8.17577 117.218 8.58338C118.106 8.99099 118.892 9.59193 119.518 10.3423C120.899 11.9088 121.59 14.507 121.59 18.1368V24.8376C121.597 25.2787 121.579 25.7198 121.533 26.1586C121.472 26.5159 121.349 26.8598 121.169 27.1746C120.837 27.8641 119.853 28.2078 118.219 28.2058C116.609 28.2058 115.626 27.8485 115.271 27.1339C115.112 26.8135 115.002 26.471 114.945 26.1178C114.899 25.6791 114.88 25.2379 114.887 24.7969V18.0953C114.887 15.8735 114.095 14.7627 112.513 14.7627C112.157 14.7211 111.797 14.782 111.475 14.9382C111.152 15.0944 110.881 15.3394 110.694 15.6443C110.334 16.4235 110.17 17.2785 110.215 18.1353V24.8361C110.223 25.2835 110.204 25.7309 110.158 26.176C110.094 26.5264 109.971 26.8634 109.794 27.1724C109.435 27.8618 108.44 28.2055 106.807 28.2035C105.197 28.2035 104.213 27.8462 103.857 27.1316C103.699 26.8113 103.59 26.4686 103.535 26.1156C103.49 25.6768 103.47 25.2357 103.477 24.7946V18.093C103.477 15.8713 102.686 14.7604 101.102 14.7604C99.5701 14.7604 98.8042 15.8713 98.8047 18.093V24.8754C98.812 25.3169 98.7928 25.7586 98.7473 26.1979C98.6869 26.5549 98.5637 26.8983 98.3835 27.2124C98.0005 27.8771 97.0049 28.2093 95.3966 28.2088C93.7882 28.2083 92.8049 27.8646 92.4466 27.1777C92.2915 26.8629 92.1829 26.5272 92.1243 26.1812C92.0777 25.7362 92.0583 25.2888 92.0662 24.8414V11.3545C92.0592 10.9134 92.0787 10.4723 92.1243 10.0335C92.1816 9.68756 92.3052 9.35591 92.4881 9.05675C92.8711 8.36732 93.7769 8.02236 95.2056 8.02185C96.6343 8.02135 97.5652 8.25133 97.9985 8.71178C98.4633 9.2672 98.6942 9.98145 98.6424 10.7038Z" fill="white"/>
<path d="M129.968 5.84763C129.861 6.04042 129.716 6.20944 129.542 6.3444C129.368 6.47937 129.168 6.57745 128.954 6.63267C127.684 6.93946 126.359 6.93946 125.088 6.63267C124.872 6.57646 124.67 6.4759 124.494 6.33737C124.319 6.19885 124.174 6.02539 124.07 5.828C123.901 5.51057 123.784 5.16763 123.726 4.81273C123.68 4.37396 123.66 3.93284 123.667 3.49175C123.66 3.05065 123.68 2.60953 123.726 2.17076C123.78 1.82941 123.89 1.49936 124.052 1.19399C124.411 0.506069 125.408 0.162109 127.042 0.162109C128.653 0.162109 129.623 0.507075 129.952 1.19701C130.133 1.51072 130.256 1.85395 130.317 2.21077C130.362 2.65007 130.381 3.0917 130.374 3.53326C130.381 3.97433 130.362 4.41545 130.317 4.85425C130.259 5.20389 130.141 5.54095 129.969 5.85065" fill="white"/>
<path d="M123.669 11.3908C123.661 10.9497 123.681 10.5086 123.727 10.0699C123.784 9.71694 123.894 9.37465 124.053 9.05459C124.41 8.39082 125.406 8.05869 127.04 8.05819C127.956 7.97363 128.875 8.20306 129.644 8.70887C129.872 8.91678 130.052 9.17206 130.171 9.45683C130.29 9.74161 130.346 10.049 130.334 10.3575C130.358 10.6126 130.371 10.9825 130.371 11.4671V24.8755C130.378 25.3165 130.359 25.7576 130.314 26.1964C130.254 26.5533 130.13 26.8965 129.95 27.2102C129.619 27.875 128.636 28.2071 127.001 28.2066C125.391 28.2066 124.408 27.8629 124.052 27.1755C123.895 26.8611 123.785 26.5254 123.726 26.1791C123.679 25.7341 123.66 25.2866 123.668 24.8392L123.669 11.3908Z" fill="white"/>
<path d="M24.0234 21.5745C24.0015 21.4379 23.815 21.416 23.4716 21.4288H13.6586C18.3839 17.1383 21.129 14.6221 21.894 13.8803C22.2522 13.5591 22.5394 13.1665 22.7371 12.7278C22.9349 12.2891 23.0387 11.8139 23.0421 11.3327C23.0539 10.8863 22.9716 10.4425 22.8004 10.0301C22.6292 9.61765 22.3731 9.24592 22.0487 8.93909C21.7426 8.63226 21.3784 8.38952 20.9774 8.22505C20.5764 8.06058 20.1466 7.97768 19.7132 7.98119H3.41526C2.74588 7.95786 2.07636 8.02283 1.42396 8.17443C1.12828 8.27756 0.864154 8.45512 0.657037 8.68999C0.439011 8.98757 0.282945 9.32588 0.198089 9.68488C0.0458342 10.3566 -0.0191158 11.0452 0.0048479 11.7335C-0.0339673 12.5264 0.195234 13.3091 0.655528 13.9558C1.03849 14.4414 1.95789 14.684 3.41375 14.6835H12.6659C12.5653 14.7841 11.9526 15.3266 10.8279 16.3109C9.70315 17.2953 8.45161 18.3999 7.07325 19.6247C5.6944 20.8511 4.67334 21.7896 4.01008 22.4403C3.69022 22.7428 3.43664 23.1083 3.26539 23.5139C3.09413 23.9194 3.00893 24.356 3.01518 24.7962C3.01037 25.2388 3.09615 25.6778 3.26724 26.086C3.43834 26.4943 3.69113 26.8632 4.01008 27.1702C4.31129 27.4873 4.67439 27.7393 5.07689 27.9104C5.4794 28.0815 5.91274 28.1682 6.35011 28.1651H23.5448C23.9856 28.1691 24.4262 28.1502 24.865 28.1085C25.2232 28.068 25.5702 27.9588 25.8871 27.7869C26.0844 27.6785 26.2571 27.5305 26.3944 27.3521C26.5317 27.1737 26.6306 26.9689 26.685 26.7505C26.7378 26.552 26.8193 26.3474 26.6918 26.2078C25.2703 25.0365 24.3224 23.389 24.0241 21.5715" fill="white"/>
<path d="M190.075 18.0356H140.255C139.215 18.0336 138.218 17.6194 137.482 16.8837C136.746 16.148 136.332 15.1508 136.33 14.1104V3.92521C136.332 2.8848 136.746 1.88756 137.482 1.15187C138.218 0.416184 139.215 0.00199506 140.255 0L190.075 0C191.116 0.00199506 192.113 0.416184 192.849 1.15187C193.584 1.88756 193.999 2.8848 194.001 3.92521V14.1157C193.999 15.1561 193.584 16.1533 192.849 16.889C192.113 17.6247 191.116 18.0389 190.075 18.0409" fill="#F64A00"/>
<path d="M145.006 13.138C145.029 13.4682 144.955 13.7979 144.792 14.0861C144.714 14.1827 144.615 14.2607 144.503 14.3142C144.391 14.3677 144.268 14.3955 144.144 14.3955C144.02 14.3955 143.897 14.3677 143.785 14.3142C143.672 14.2607 143.574 14.1827 143.495 14.0861C143.335 13.7971 143.262 13.4677 143.286 13.138V7.35738C143.262 7.03035 143.335 6.70366 143.495 6.41759C143.568 6.31536 143.666 6.23348 143.779 6.17981C143.892 6.12615 144.017 6.10249 144.142 6.11112C144.307 6.10837 144.469 6.15575 144.606 6.24699C144.756 6.35457 144.878 6.49605 144.963 6.6599C145.136 6.46768 145.35 6.31655 145.589 6.21755C145.84 6.11527 146.109 6.06395 146.38 6.06658C146.735 6.06223 147.087 6.13745 147.41 6.28674C147.732 6.43603 148.017 6.65561 148.244 6.92938C148.757 7.52882 149.026 8.29853 148.999 9.08674C149.02 9.88705 148.744 10.6669 148.225 11.2758C148.001 11.5569 147.718 11.7838 147.394 11.9398C147.071 12.0957 146.717 12.1766 146.358 12.1763C146.112 12.1785 145.867 12.136 145.636 12.051C145.406 11.9622 145.192 11.8346 145.005 11.6736L145.006 13.138ZM144.973 9.11089C144.955 9.49062 145.066 9.86541 145.288 10.1737C145.385 10.2993 145.509 10.401 145.651 10.471C145.793 10.541 145.95 10.5774 146.108 10.5774C146.267 10.5774 146.423 10.541 146.565 10.471C146.708 10.401 146.832 10.2993 146.928 10.1737C147.149 9.86697 147.26 9.49459 147.243 9.11693C147.259 8.74455 147.145 8.37822 146.921 8.08052C146.825 7.95573 146.702 7.85465 146.561 7.78508C146.42 7.71552 146.264 7.67934 146.107 7.67934C145.95 7.67934 145.795 7.71552 145.654 7.78508C145.512 7.85465 145.389 7.95573 145.293 8.08052C145.07 8.3793 144.957 8.74637 144.973 9.11919" fill="white"/>
<path d="M150.342 10.8161V7.35886C150.319 7.03159 150.392 6.70466 150.552 6.41832C150.625 6.31597 150.722 6.23402 150.836 6.18035C150.949 6.12667 151.074 6.10309 151.2 6.11185C151.364 6.10919 151.526 6.15657 151.663 6.24772C151.813 6.3553 151.935 6.49678 152.02 6.66062C152.18 6.48251 152.372 6.33537 152.585 6.22658C152.772 6.1316 152.979 6.08146 153.189 6.08014C153.303 6.07873 153.416 6.10039 153.522 6.14384C153.628 6.18729 153.724 6.25164 153.804 6.33302C153.886 6.40943 153.952 6.5022 153.997 6.60539C154.041 6.70859 154.064 6.81995 154.063 6.93237C154.063 7.27708 153.747 7.56468 153.115 7.79516C152.888 7.87719 152.717 7.94462 152.604 7.99746C152.428 8.06621 152.278 8.18616 152.172 8.34167C152.085 8.55875 152.048 8.79297 152.065 9.02632V10.8161C152.089 11.1444 152.014 11.4723 151.853 11.7589C151.774 11.8554 151.675 11.9332 151.563 11.9867C151.451 12.0401 151.328 12.0679 151.204 12.0679C151.079 12.0679 150.957 12.0401 150.844 11.9867C150.732 11.9332 150.633 11.8554 150.555 11.7589C150.395 11.4716 150.322 11.144 150.345 10.8161" fill="white"/>
<path d="M154.637 9.08959C154.622 8.68554 154.687 8.28256 154.828 7.90369C154.97 7.52483 155.184 7.17753 155.46 6.88165C156.014 6.32833 156.766 6.01758 157.549 6.01758C158.332 6.01758 159.084 6.32833 159.638 6.88165C160.191 7.48212 160.484 8.27697 160.453 9.09261C160.484 9.90893 160.191 10.7045 159.638 11.3058C159.364 11.5806 159.039 11.7986 158.68 11.9474C158.322 12.0961 157.937 12.1727 157.549 12.1727C157.161 12.1727 156.776 12.0961 156.418 11.9474C156.059 11.7986 155.734 11.5806 155.46 11.3058C154.903 10.707 154.607 9.91178 154.637 9.09487V9.08959ZM156.416 9.07373C156.397 9.45348 156.508 9.82833 156.731 10.1366C156.827 10.262 156.952 10.3636 157.094 10.4335C157.236 10.5035 157.392 10.5398 157.551 10.5398C157.709 10.5398 157.866 10.5035 158.008 10.4335C158.15 10.3636 158.274 10.262 158.371 10.1366C158.592 9.82969 158.702 9.45734 158.685 9.07977C158.701 8.70736 158.587 8.34092 158.363 8.04337C158.267 7.91868 158.143 7.81772 158.002 7.74824C157.861 7.67877 157.705 7.64264 157.548 7.64264C157.39 7.64264 157.235 7.67877 157.094 7.74824C156.953 7.81772 156.829 7.91868 156.733 8.04337C156.511 8.34288 156.399 8.70967 156.416 9.08204" fill="white"/>
<path d="M162.143 7.76994H162.079C161.827 7.78427 161.576 7.71388 161.368 7.56991C161.285 7.50726 161.218 7.4254 161.173 7.33131C161.128 7.23721 161.106 7.13365 161.11 7.02943C161.105 6.92459 161.126 6.82011 161.171 6.72529C161.216 6.63048 161.284 6.54826 161.368 6.48594C161.6 6.34021 161.869 6.26447 162.143 6.26779V5.51294C162.12 5.1846 162.194 4.85673 162.356 4.57014C162.429 4.46741 162.527 4.38508 162.641 4.33103C162.755 4.27698 162.881 4.25301 163.006 4.2614C163.131 4.25322 163.255 4.27734 163.368 4.33143C163.48 4.38552 163.577 4.46775 163.648 4.57014C163.808 4.85729 163.881 5.18489 163.859 5.51294V6.26779H164.009C164.29 6.25165 164.568 6.32258 164.806 6.47085C164.897 6.53223 164.971 6.61578 165.021 6.71363C165.071 6.81147 165.095 6.92041 165.091 7.03019C165.097 7.13842 165.075 7.24637 165.027 7.34348C164.979 7.4406 164.906 7.52356 164.816 7.58425C164.568 7.725 164.284 7.78982 163.999 7.7707H163.862V10.8158C163.886 11.1444 163.814 11.4729 163.655 11.7616C163.583 11.864 163.486 11.946 163.373 11.9997C163.26 12.0534 163.135 12.0769 163.01 12.0681C162.884 12.0765 162.759 12.0526 162.645 11.9985C162.531 11.9445 162.433 11.8621 162.36 11.7593C162.198 11.4727 162.124 11.1449 162.147 10.8165L162.143 7.76994Z" fill="white"/>
<path d="M165.58 9.0899C165.565 8.68586 165.631 8.28288 165.772 7.90403C165.913 7.52517 166.127 7.17786 166.403 6.88197C166.957 6.32845 167.709 6.01758 168.492 6.01758C169.276 6.01758 170.027 6.32845 170.582 6.88197C171.135 7.48222 171.428 8.27715 171.397 9.09292C171.428 9.90934 171.135 10.7049 170.582 11.3061C170.308 11.5809 169.982 11.7989 169.623 11.9477C169.265 12.0965 168.881 12.173 168.492 12.173C168.104 12.173 167.72 12.0965 167.361 11.9477C167.003 11.7989 166.677 11.5809 166.403 11.3061C165.847 10.7073 165.551 9.91207 165.58 9.09518V9.0899ZM167.359 9.07405C167.341 9.45378 167.452 9.82859 167.674 10.1369C167.771 10.2623 167.895 10.3639 168.037 10.4339C168.179 10.5038 168.336 10.5401 168.494 10.5401C168.653 10.5401 168.809 10.5038 168.951 10.4339C169.093 10.3639 169.218 10.2623 169.314 10.1369C169.535 9.82995 169.646 9.45764 169.628 9.08009C169.644 8.70768 169.531 8.34129 169.306 8.04368C169.21 7.91885 169.086 7.81776 168.945 7.7482C168.804 7.67864 168.648 7.64247 168.491 7.64247C168.333 7.64247 168.178 7.67864 168.037 7.7482C167.895 7.81776 167.772 7.91885 167.676 8.04368C167.454 8.34325 167.342 8.71 167.359 9.08235" fill="white"/>
<path d="M172.399 9.09033C172.382 8.68701 172.446 8.28435 172.585 7.90571C172.725 7.52708 172.939 7.18001 173.214 6.88466C173.492 6.60165 173.826 6.38005 174.195 6.23417C174.564 6.08829 174.96 6.02136 175.356 6.03772C175.838 6.01696 176.317 6.12261 176.746 6.34419C176.901 6.41377 177.032 6.52519 177.127 6.66581C177.221 6.80644 177.274 6.97064 177.279 7.1398C177.282 7.23598 177.266 7.33179 177.231 7.42152C177.196 7.51126 177.144 7.59309 177.077 7.66215C177.011 7.7303 176.931 7.78395 176.843 7.81969C176.755 7.85542 176.661 7.87247 176.566 7.86974C176.382 7.84864 176.201 7.80503 176.028 7.7399C175.812 7.66279 175.586 7.61876 175.357 7.60931C175.192 7.60421 175.028 7.63766 174.879 7.70699C174.73 7.77632 174.599 7.87961 174.496 8.00863C174.267 8.30885 174.151 8.68045 174.169 9.05787C174.146 9.44134 174.266 9.81956 174.504 10.1207C174.619 10.2494 174.76 10.3508 174.919 10.4176C175.077 10.4844 175.249 10.5147 175.421 10.5064C175.651 10.4988 175.879 10.4547 176.095 10.3758C176.259 10.3124 176.43 10.2688 176.604 10.246C176.694 10.2448 176.783 10.2635 176.865 10.3008C176.947 10.3381 177.02 10.3931 177.078 10.4619C177.206 10.6076 177.274 10.7963 177.269 10.9903C177.256 11.1655 177.195 11.3338 177.093 11.4766C176.99 11.6195 176.851 11.7314 176.689 11.8002C176.248 12.037 175.751 12.1526 175.251 12.1354C174.867 12.1497 174.485 12.0818 174.13 11.9362C173.775 11.7906 173.455 11.5708 173.192 11.2915C172.65 10.6891 172.366 9.89828 172.401 9.08882" fill="white"/>
<path d="M178.072 9.08959C178.058 8.68554 178.123 8.28254 178.264 7.90367C178.405 7.5248 178.62 7.1775 178.895 6.88165C179.45 6.32833 180.201 6.01758 180.985 6.01758C181.768 6.01758 182.519 6.32833 183.074 6.88165C183.627 7.48212 183.92 8.27697 183.888 9.09261C183.919 9.90886 183.627 10.7043 183.074 11.3058C182.8 11.5806 182.474 11.7986 182.116 11.9474C181.757 12.0961 181.373 12.1727 180.985 12.1727C180.596 12.1727 180.212 12.0961 179.854 11.9474C179.495 11.7986 179.169 11.5806 178.895 11.3058C178.339 10.7071 178.043 9.91179 178.072 9.09487V9.08959ZM179.852 9.07373C179.833 9.45349 179.944 9.82836 180.166 10.1366C180.263 10.2622 180.387 10.3639 180.529 10.4339C180.672 10.5039 180.828 10.5403 180.986 10.5403C181.145 10.5403 181.301 10.5039 181.444 10.4339C181.586 10.3639 181.71 10.2622 181.807 10.1366C182.027 9.82969 182.138 9.45734 182.121 9.07977C182.137 8.70736 182.023 8.34092 181.798 8.04337C181.702 7.91868 181.579 7.81772 181.437 7.74824C181.296 7.67877 181.141 7.64264 180.983 7.64264C180.826 7.64264 180.671 7.67877 180.529 7.74824C180.388 7.81772 180.265 7.91868 180.169 8.04337C179.947 8.34288 179.835 8.70967 179.852 9.08204" fill="white"/>
<path d="M185.287 4.9245C185.264 4.59444 185.338 4.26476 185.5 3.97641C185.573 3.87363 185.671 3.79127 185.785 3.73721C185.899 3.68315 186.025 3.65921 186.15 3.66768C186.274 3.65993 186.398 3.6846 186.51 3.73926C186.621 3.79393 186.717 3.8767 186.787 3.97943C186.947 4.26771 187.02 4.59625 186.997 4.92526V10.8169C187.021 11.1453 186.949 11.4735 186.79 11.7619C186.719 11.8639 186.622 11.9458 186.51 11.9995C186.398 12.0532 186.274 12.077 186.15 12.0684C186.025 12.0769 185.899 12.0529 185.785 11.9989C185.671 11.9448 185.573 11.8624 185.5 11.7597C185.338 11.4731 185.264 11.1452 185.287 10.8169V4.9245Z" fill="white"/>
</svg>
