<svg width="17" height="17" viewBox="0 0 17 17" fill="none" xmlns="http://www.w3.org/2000/svg">
<mask id="path-1-inside-1_1_151" fill="white">
<path fill-rule="evenodd" clip-rule="evenodd" d="M15.4898 7C15.5585 6.99991 15.6281 7.01138 15.6953 7.03533C15.7468 7.05397 15.794 7.07918 15.8359 7.10958C15.9642 7.2021 16.0434 7.34245 16.0475 7.4906C16.0484 7.51566 16.0473 7.54099 16.044 7.5664C15.6129 10.7718 13.2582 13.3844 10.1153 14.4898C9.97231 14.5401 9.83057 14.5705 9.6917 14.5829C9.16899 14.7408 8.62668 14.8579 8.06964 14.9305C7.63155 14.9876 7.28493 15.3485 7.28493 15.7903C7.28493 16.5345 6.82003 16.8679 6.35884 16.8679C6.05758 16.8679 5.75631 16.7366 5.46621 16.4739L2.30483 13.6116C1.60933 12.9819 1.60933 11.9616 2.30483 11.3319L5.46621 8.46967C5.75631 8.21038 6.05758 8.07569 6.35884 8.07569C6.82003 8.07569 7.28493 8.40906 7.28493 9.15325C7.28493 9.65279 7.64578 10.086 8.14437 10.1168C8.32142 10.1278 8.49868 10.1331 8.67594 10.1331C11.179 10.1331 13.5593 9.03875 15.0396 7.20691C15.1466 7.07374 15.3151 6.99976 15.4898 7Z"/>
</mask>
<path d="M15.6953 7.03533L16.1377 5.8129L16.1316 5.81072L15.6953 7.03533ZM15.4898 7L15.4881 8.3L15.4916 8.3L15.4898 7ZM15.8359 7.10958L15.0729 8.16208L15.0754 8.1639L15.8359 7.10958ZM16.0475 7.4906L14.7479 7.5265L14.7484 7.53914L16.0475 7.4906ZM16.044 7.5664L17.3324 7.73969L17.333 7.73517L16.044 7.5664ZM10.1153 14.4898L10.5466 15.7162H10.5466L10.1153 14.4898ZM9.6917 14.5829L9.57583 13.2881L9.4433 13.3L9.31592 13.3384L9.6917 14.5829ZM8.06964 14.9305L7.90168 13.6414H7.90168L8.06964 14.9305ZM5.46621 16.4739L4.59369 17.4376L4.5937 17.4376L5.46621 16.4739ZM2.30483 13.6116L1.43231 14.5753H1.43231L2.30483 13.6116ZM2.30483 11.3319L1.43231 10.3682L2.30483 11.3319ZM5.46621 8.46967L4.59988 7.50037L4.59369 7.50597L5.46621 8.46967ZM8.14437 10.1168L8.22466 8.81929L8.22466 8.81929L8.14437 10.1168ZM15.0396 7.20691L16.0508 8.02398L16.0531 8.02103L15.0396 7.20691ZM16.1316 5.81072C15.9205 5.73553 15.7025 5.69971 15.488 5.7L15.4916 8.3C15.4144 8.30011 15.3356 8.28722 15.2591 8.25994L16.1316 5.81072ZM16.599 6.05708C16.4584 5.95514 16.3032 5.87281 16.1377 5.81292L15.2529 8.25774C15.1904 8.23512 15.1296 8.20321 15.0729 8.16208L16.599 6.05708ZM17.347 7.45469C17.3306 6.86005 17.0179 6.3593 16.5965 6.05526L15.0754 8.1639C14.9104 8.0449 14.7562 7.82485 14.748 7.5265L17.347 7.45469ZM17.333 7.73517C17.3458 7.6371 17.3502 7.53907 17.3466 7.44205L14.7484 7.53914C14.7467 7.49225 14.7488 7.44488 14.755 7.39763L17.333 7.73517ZM10.5466 15.7162C14.0873 14.4709 16.8277 11.4922 17.3324 7.73968L14.7556 7.39312C14.3981 10.0514 12.4291 12.2979 9.68394 13.2635L10.5466 15.7162ZM9.80756 15.8778C10.0564 15.8555 10.304 15.8015 10.5466 15.7162L9.68394 13.2635C9.64058 13.2787 9.60471 13.2855 9.57583 13.2881L9.80756 15.8778ZM8.23761 16.2196C8.86521 16.1378 9.47701 16.0057 10.0675 15.8274L9.31592 13.3384C8.86096 13.4758 8.38815 13.578 7.90168 13.6414L8.23761 16.2196ZM8.58493 15.7903C8.58493 16.0624 8.3849 16.2004 8.23761 16.2196L7.90168 13.6414C6.8782 13.7748 5.98493 14.6347 5.98493 15.7903H8.58493ZM6.35884 18.1679C6.89956 18.1679 7.47704 17.9707 7.92058 17.5209C8.37409 17.0609 8.58493 16.4428 8.58493 15.7903H5.98493C5.98493 15.8409 5.97718 15.8448 5.98735 15.8175C5.99818 15.7886 6.0228 15.7424 6.06908 15.6955C6.16487 15.5983 6.2793 15.5679 6.35884 15.5679V18.1679ZM4.5937 17.4376C5.05481 17.8551 5.65376 18.1679 6.35884 18.1679V15.5679C6.37867 15.5679 6.39636 15.5701 6.41053 15.5732C6.41736 15.5747 6.42268 15.5762 6.4264 15.5775C6.4301 15.5787 6.43195 15.5795 6.4319 15.5795C6.43137 15.5792 6.39886 15.5646 6.33873 15.5102L4.5937 17.4376ZM1.43231 14.5753L4.59369 17.4376L6.33873 15.5102L3.17735 12.6479L1.43231 14.5753ZM1.43231 10.3682C0.166833 11.514 0.166833 13.4296 1.43231 14.5753L3.17735 12.6479C3.09656 12.5748 3.0832 12.5101 3.0832 12.4718C3.0832 12.4335 3.09656 12.3688 3.17735 12.2956L1.43231 10.3682ZM4.59369 7.50597L1.43231 10.3682L3.17735 12.2956L6.33873 9.43337L4.59369 7.50597ZM6.35884 6.77569C5.64781 6.77569 5.05121 7.09702 4.5999 7.50039L6.33253 9.43895C6.39581 9.38239 6.43128 9.36563 6.43471 9.36412C6.43583 9.36362 6.42902 9.36673 6.41477 9.3699C6.40024 9.37312 6.38112 9.37569 6.35884 9.37569V6.77569ZM8.58493 9.15325C8.58493 8.50082 8.37409 7.88272 7.92058 7.42272C7.47704 6.97283 6.89956 6.77569 6.35884 6.77569V9.37569C6.2793 9.37569 6.16487 9.34524 6.06908 9.24808C6.0228 9.20113 5.99818 9.155 5.98735 9.12602C5.97718 9.09881 5.98493 9.10269 5.98493 9.15325H8.58493ZM8.22466 8.81929C8.34485 8.82673 8.44627 8.88632 8.50668 8.95547C8.56269 9.01958 8.58493 9.09089 8.58493 9.15325H5.98493C5.98493 10.2513 6.79523 11.3358 8.06408 11.4143L8.22466 8.81929ZM8.67594 8.83315C8.52501 8.83315 8.37453 8.82856 8.22466 8.81929L8.06408 11.4143C8.26831 11.427 8.47235 11.4331 8.67594 11.4331V8.83315ZM14.0285 6.38984C12.8124 7.89479 10.8148 8.83315 8.67594 8.83315V11.4331C11.5432 11.4331 14.3063 10.1827 16.0507 8.02398L14.0285 6.38984ZM15.4916 5.7C14.9619 5.69928 14.404 5.92231 14.0261 6.39278L16.0531 8.02103C15.8892 8.22516 15.6683 8.30024 15.4881 8.3L15.4916 5.7Z" fill="#636363" mask="url(#path-1-inside-1_1_151)"/>
<mask id="path-3-inside-2_1_151" fill="white">
<path fill-rule="evenodd" clip-rule="evenodd" d="M0.558216 9.86786C0.489521 9.86797 0.419829 9.8565 0.352523 9.83253C0.301026 9.81389 0.253854 9.78868 0.211917 9.75828C0.0836611 9.66576 0.00444129 9.5254 0.00034718 9.37726C-0.000589326 9.3522 0.000545549 9.32687 0.00387292 9.30146C0.434982 6.09604 2.78962 3.48346 5.93259 2.37804C6.07554 2.32776 6.21728 2.29736 6.35615 2.28493C6.87886 2.1271 7.42117 2.00993 7.97821 1.93735C8.4163 1.88027 8.76292 1.51933 8.76292 1.07753C8.76292 0.333343 9.22783 -2.61895e-05 9.68902 -2.61492e-05C9.99028 -2.61229e-05 10.2915 0.131301 10.5816 0.393955L13.743 3.25622C14.4385 3.88592 14.4385 4.90623 13.743 5.53593L10.5816 8.39819C10.2915 8.65748 9.99028 8.79217 9.68902 8.79217C9.22783 8.79217 8.76292 8.4588 8.76292 7.71461C8.76292 7.21507 8.40207 6.7819 7.90348 6.75105C7.72643 6.74009 7.54917 6.73471 7.37191 6.73471C4.86884 6.73471 2.48851 7.8291 1.00824 9.66095C0.901302 9.79407 0.732881 9.86804 0.558216 9.86786Z"/>
</mask>
<path d="M0.352523 9.83253L-0.0898763 11.055L-0.0837413 11.0571L0.352523 9.83253ZM0.558216 9.86786L0.559596 8.56785L0.556021 8.56786L0.558216 9.86786ZM0.211917 9.75828L0.974971 8.70578L0.972452 8.70396L0.211917 9.75828ZM0.00034718 9.37726L1.29991 9.34135L1.29944 9.32872L0.00034718 9.37726ZM0.00387292 9.30146L-1.28453 9.12817L-1.28513 9.13269L0.00387292 9.30146ZM5.93259 2.37804L5.50127 1.15168L5.50127 1.15168L5.93259 2.37804ZM6.35615 2.28493L6.47202 3.57976L6.60455 3.5679L6.73193 3.52944L6.35615 2.28493ZM7.97821 1.93735L8.14617 3.22645L8.14618 3.22645L7.97821 1.93735ZM10.5816 0.393955L11.4542 -0.569743L11.4542 -0.569744L10.5816 0.393955ZM13.743 3.25622L14.6155 2.29252L14.6155 2.29252L13.743 3.25622ZM13.743 5.53593L14.6155 6.49962L14.6155 6.49962L13.743 5.53593ZM10.5816 8.39819L11.448 9.36748L11.4542 9.36189L10.5816 8.39819ZM7.90348 6.75105L7.82319 8.04857L7.82319 8.04857L7.90348 6.75105ZM1.00824 9.66095L-0.0029029 8.84387L-0.00526992 8.84682L1.00824 9.66095ZM-0.0837413 11.0571C0.127499 11.1324 0.345751 11.1682 0.560411 11.1679L0.556021 8.56786C0.633291 8.56773 0.712159 8.58062 0.788787 8.60792L-0.0837413 11.0571ZM-0.551135 10.8108C-0.41052 10.9127 -0.255367 10.995 -0.0898706 11.0549L0.794916 8.61012C0.85742 8.63274 0.918227 8.66464 0.974969 8.70578L-0.551135 10.8108ZM-1.29916 9.41317C-1.28272 10.0078 -0.970098 10.5086 -0.548618 10.8126L0.972452 8.70396C1.13742 8.82296 1.29161 9.04301 1.29985 9.34135L-1.29916 9.41317ZM-1.28513 9.13269C-1.29797 9.23076 -1.30237 9.32879 -1.29875 9.4258L1.29944 9.32872C1.30119 9.37561 1.29906 9.42297 1.29287 9.47022L-1.28513 9.13269ZM5.50127 1.15168C1.96052 2.397 -0.779838 5.37567 -1.28453 9.12817L1.29227 9.47474C1.6498 6.81641 3.61872 4.56992 6.36392 3.6044L5.50127 1.15168ZM6.24028 0.990106C5.99141 1.01238 5.74381 1.06638 5.50127 1.15168L6.36392 3.6044C6.40727 3.58915 6.44314 3.58234 6.47202 3.57976L6.24028 0.990106ZM7.81024 0.648246C7.18264 0.73002 6.57084 0.862138 5.98038 1.04043L6.73193 3.52944C7.18689 3.39206 7.65971 3.28984 8.14617 3.22645L7.81024 0.648246ZM7.46292 1.07753C7.46292 0.805462 7.66296 0.667437 7.81024 0.648246L8.14618 3.22645C9.16965 3.0931 10.0629 2.2332 10.0629 1.07753L7.46292 1.07753ZM9.68902 -1.30003C9.14829 -1.30003 8.57081 -1.10289 8.12727 -0.652999C7.67376 -0.192998 7.46292 0.425106 7.46292 1.07753L10.0629 1.07753C10.0629 1.02697 10.0707 1.0231 10.0605 1.05031C10.0497 1.07928 10.0251 1.12542 9.97877 1.17236C9.88298 1.26952 9.76855 1.29997 9.68902 1.29997L9.68902 -1.30003ZM11.4542 -0.569744C10.993 -0.987227 10.3941 -1.30003 9.68902 -1.30003L9.68902 1.29997C9.66918 1.29997 9.6515 1.29774 9.63732 1.29464C9.63049 1.29315 9.62517 1.29161 9.62145 1.29039C9.61775 1.28917 9.61591 1.28836 9.61595 1.28838C9.61648 1.28861 9.64899 1.30321 9.70912 1.35765L11.4542 -0.569744ZM14.6155 2.29252L11.4542 -0.569743L9.70912 1.35765L12.8705 4.21992L14.6155 2.29252ZM14.6155 6.49962C15.881 5.35388 15.881 3.43827 14.6155 2.29252L12.8705 4.21992C12.9513 4.29306 12.9646 4.35776 12.9646 4.39607C12.9646 4.43438 12.9513 4.49909 12.8705 4.57223L14.6155 6.49962ZM11.4542 9.36189L14.6155 6.49962L12.8705 4.57223L9.70912 7.43449L11.4542 9.36189ZM9.68902 10.0922C10.4 10.0922 10.9966 9.77084 11.448 9.36746L9.71532 7.42891C9.65205 7.48547 9.61657 7.50222 9.61314 7.50374C9.61202 7.50424 9.61884 7.50112 9.63308 7.49796C9.64761 7.49474 9.66674 7.49217 9.68902 7.49217L9.68902 10.0922ZM7.46292 7.71461C7.46292 8.36704 7.67376 8.98514 8.12727 9.44514C8.57081 9.89503 9.14829 10.0922 9.68902 10.0922L9.68902 7.49217C9.76855 7.49217 9.88298 7.52262 9.97877 7.61978C10.0251 7.66673 10.0497 7.71286 10.0605 7.74183C10.0707 7.76904 10.0629 7.76517 10.0629 7.71461L7.46292 7.71461ZM7.82319 8.04857C7.703 8.04113 7.60159 7.98154 7.54118 7.91239C7.48516 7.84828 7.46292 7.77697 7.46292 7.71461L10.0629 7.71461C10.0629 6.61658 9.25263 5.53205 7.98377 5.45353L7.82319 8.04857ZM7.37191 8.03471C7.52284 8.03471 7.67332 8.03929 7.82319 8.04857L7.98378 5.45353C7.77954 5.44089 7.5755 5.43471 7.37191 5.43471L7.37191 8.03471ZM2.01937 10.478C3.23549 8.97307 5.23307 8.03471 7.37191 8.03471L7.37191 5.43471C4.50461 5.43471 1.74152 6.68514 -0.00289908 8.84388L2.01937 10.478ZM0.556836 11.1679C1.08637 11.1684 1.64397 10.9454 2.02174 10.4751L-0.00526992 8.84682C0.158638 8.64277 0.379387 8.56767 0.559596 8.56786L0.556836 11.1679Z" fill="#636363" mask="url(#path-3-inside-2_1_151)"/>
</svg>
