<svg width="26" height="24" viewBox="0 0 26 24" fill="none" xmlns="http://www.w3.org/2000/svg">
<path d="M24.1807 0.320312L14.5781 7.45231L16.3539 3.24453L24.1807 0.320312Z" fill="#E2761B"/>
<path d="M14.5775 7.50004C14.567 7.50004 14.5565 7.4966 14.5478 7.48972C14.5306 7.47629 14.5246 7.45306 14.5331 7.43303L16.3089 3.22523C16.314 3.21298 16.324 3.20342 16.3365 3.1988L24.1633 0.274604C24.1856 0.266076 24.2111 0.275546 24.2226 0.296753C24.234 0.317862 24.2282 0.344204 24.209 0.358534L14.6063 7.49052C14.5978 7.49688 14.5876 7.50004 14.5775 7.50004ZM16.3897 3.28193L14.6908 7.30759L23.8778 0.484306L16.3897 3.28193V3.28193Z" fill="#E2761B"/>
<path d="M2.01139 0.320312L11.5368 7.51987L9.8479 3.24453L2.01139 0.320312ZM20.7244 16.8523L18.167 20.7705L23.639 22.2761L25.2121 16.9391L20.7244 16.8523ZM0.998047 16.9391L2.56149 22.2761L8.03354 20.7705L5.47606 16.8523L0.998047 16.9391V16.9391Z" fill="#E4761B"/>
<path d="M2.56083 22.3237C2.53996 22.3237 2.52073 22.3101 2.51456 22.2891L0.951144 16.9521C0.946952 16.9377 0.949682 16.9222 0.958592 16.91C0.96745 16.8978 0.981495 16.8906 0.996527 16.8903L5.47453 16.8035C5.49196 16.805 5.50681 16.8114 5.5159 16.8254L8.07338 20.7436C8.08177 20.7565 8.08351 20.7726 8.07809 20.787C8.07263 20.8015 8.06061 20.8124 8.04577 20.8165L2.5737 22.322C2.56941 22.3232 2.56507 22.3237 2.56084 22.3237L2.56083 22.3237ZM1.06151 16.9856L2.59387 22.2164L7.95642 20.741L5.44969 16.9005L1.06151 16.9856V16.9856ZM23.6385 22.3237C23.6342 22.3237 23.6299 22.3232 23.6256 22.322L18.1536 20.8165C18.1387 20.8124 18.1267 20.8015 18.1212 20.787C18.1158 20.7726 18.1176 20.7565 18.126 20.7436L20.6835 16.8254C20.6926 16.8114 20.7079 16.8051 20.7248 16.8035L25.2125 16.8903C25.2275 16.8906 25.2415 16.8979 25.2504 16.91C25.2593 16.9222 25.262 16.9378 25.2578 16.9522L23.6847 22.2892C23.6785 22.3101 23.6593 22.3237 23.6385 22.3237L23.6385 22.3237ZM18.2429 20.741L23.6055 22.2164L25.1473 16.9856L20.7496 16.9005L18.2429 20.741V20.741ZM11.5362 7.5676C11.526 7.5676 11.5157 7.56435 11.5071 7.55785L1.98173 0.358284C1.9626 0.343817 1.95699 0.317567 1.96849 0.296554C1.98009 0.27549 2.00543 0.266112 2.02768 0.274594L9.86416 3.19879C9.87698 3.20355 9.88716 3.21354 9.89215 3.22626L11.5811 7.50163C11.589 7.52175 11.5826 7.5447 11.5654 7.55776C11.5568 7.56431 11.5465 7.5676 11.5362 7.5676H11.5362ZM2.30344 0.480471L11.4281 7.37722L9.8103 3.28167L2.30344 0.480471Z" fill="#E4761B"/>
<path d="M7.72406 10.2325L6.19922 12.5391L11.6327 12.7804L11.4396 6.94158L7.72405 10.2325H7.72406ZM18.4655 10.2325L14.7016 6.87402L14.5762 12.7804L20 12.5391L18.4655 10.2325V10.2325ZM8.03289 20.7713L11.2949 19.1789L8.47683 16.9785L8.03289 20.7713V20.7713ZM14.8947 19.1789L18.1663 20.7713L17.7127 16.9785L14.8947 19.1789H14.8947Z" fill="#E4761B"/>
<path d="M18.1657 20.819C18.1585 20.819 18.1513 20.8174 18.1446 20.8141L14.873 19.2217C14.858 19.2144 14.8479 19.1999 14.8461 19.1834C14.8444 19.1669 14.8513 19.1505 14.8644 19.1403L17.6824 16.9399C17.6961 16.9291 17.7146 16.9267 17.7307 16.9334C17.7468 16.9401 17.758 16.955 17.76 16.9722L18.2137 20.765C18.2157 20.7825 18.2081 20.7999 18.1937 20.81C18.1854 20.816 18.1756 20.819 18.1657 20.819ZM14.9847 19.1688L18.1073 20.6887L17.6744 17.0686L14.9847 19.1688V19.1688ZM8.03232 20.819C8.02252 20.819 8.01271 20.816 8.00442 20.8101C7.99 20.7999 7.98232 20.7826 7.98439 20.7651L8.42834 16.9723C8.43037 16.9551 8.44158 16.9402 8.45765 16.9335C8.47363 16.9265 8.49219 16.9291 8.50595 16.9399L11.324 19.1403C11.3371 19.1505 11.344 19.1668 11.3423 19.1833C11.3406 19.1999 11.3304 19.2144 11.3154 19.2217L8.05347 20.8141C8.04678 20.8174 8.03952 20.819 8.03231 20.819L8.03232 20.819ZM8.5142 17.0688L8.09052 20.6887L11.2037 19.1688L8.5142 17.0688V17.0688ZM14.5756 12.8281C14.563 12.8281 14.5509 12.8232 14.5419 12.8143C14.5323 12.805 14.5271 12.7921 14.5273 12.7788L14.6528 6.87245C14.6532 6.85364 14.6646 6.83677 14.6818 6.82923C14.6991 6.82165 14.719 6.82494 14.7332 6.83748L18.4971 10.196C18.5001 10.1987 18.5028 10.2018 18.5051 10.2052L20.0396 12.5118C20.0492 12.5263 20.0503 12.5449 20.0424 12.5604C20.0346 12.5759 20.0189 12.586 20.0016 12.5868L14.5777 12.828C14.577 12.8281 14.5763 12.8281 14.5756 12.8281V12.8281ZM14.7471 6.97923L14.6249 12.7293L19.9119 12.4942L18.4282 10.2639L14.7471 6.97923V6.97923ZM11.6321 12.8281C11.6314 12.8281 11.6307 12.8281 11.63 12.828L6.19653 12.5868C6.17914 12.586 6.16354 12.5759 6.15567 12.5605C6.14776 12.545 6.14879 12.5265 6.15841 12.5119L7.68323 10.2053C7.68554 10.2019 7.68832 10.1987 7.69148 10.1958L11.4071 6.90492C11.4211 6.89257 11.4411 6.88932 11.4581 6.89671C11.4753 6.90411 11.4867 6.92079 11.4873 6.93945L11.6803 12.7782C11.6808 12.7917 11.6756 12.8047 11.666 12.8141C11.657 12.8231 11.6448 12.8281 11.6321 12.8281L11.6321 12.8281ZM6.28587 12.4941L11.5821 12.7293L11.3942 7.04525L7.76022 10.2639L6.28587 12.4941V12.4941Z" fill="#E4761B"/>
<path d="M18.1666 20.7701L14.895 19.1777L15.1555 21.3106L15.1266 22.2081L18.1666 20.7701H18.1666ZM8.0332 20.7701L11.0732 22.2081L11.0539 21.3106L11.2952 19.1777L8.0332 20.7701V20.7701Z" fill="#D7C1B3"/>
<path d="M15.126 22.2559C15.1168 22.2559 15.1076 22.2532 15.0995 22.2479C15.0855 22.2387 15.0773 22.2229 15.0778 22.206L15.1068 21.3085L14.8465 19.183C14.8444 19.1655 14.852 19.1482 14.8664 19.1379C14.8808 19.1276 14.8996 19.126 14.9155 19.1338L18.1872 20.7262C18.2039 20.7343 18.2144 20.7513 18.2143 20.7699C18.2142 20.7884 18.2035 20.8053 18.1867 20.8132L15.1467 22.2512C15.1401 22.2543 15.133 22.2559 15.126 22.2559L15.126 22.2559ZM14.9531 19.2594L15.2028 21.3042L15.1767 22.1302L18.0545 20.7689L14.9531 19.2594ZM11.0727 22.2559C11.0656 22.2559 11.0586 22.2543 11.052 22.2512L8.01199 20.8132C7.99522 20.8053 7.98447 20.7884 7.98438 20.7699C7.98428 20.7513 7.99479 20.7343 8.01147 20.7262L11.2734 19.1338C11.2893 19.1261 11.308 19.1277 11.3225 19.1378C11.3368 19.1479 11.3446 19.1651 11.3426 19.1827L11.1013 21.3155L11.1209 22.2066C11.1212 22.2232 11.1129 22.239 11.0989 22.2481C11.0909 22.2532 11.0818 22.2559 11.0727 22.2559H11.0727ZM8.14403 20.7689L11.0228 22.1306L11.0051 21.311L11.2368 19.2591L8.14403 20.7689V20.7689Z" fill="#D7C1B3"/>
<path d="M11.1219 15.5699L8.40039 14.7689L10.3209 13.8906L11.1219 15.5699ZM15.0691 15.5699L15.8702 13.8906L17.8003 14.7689L15.0691 15.5699Z" fill="#233447"/>
<path d="M15.0686 15.6176C15.0547 15.6176 15.0411 15.6116 15.0318 15.6007C15.0195 15.5862 15.0168 15.5658 15.025 15.5486L15.8261 13.8694C15.8374 13.8457 15.8659 13.8353 15.8896 13.8462L17.8198 14.7244C17.8382 14.7328 17.8494 14.7517 17.8479 14.7717C17.8465 14.7918 17.8327 14.809 17.8134 14.8147L15.0821 15.6157C15.0777 15.617 15.0731 15.6176 15.0686 15.6176L15.0686 15.6176ZM15.8928 13.9537L15.1586 15.4927L17.6617 14.7585L15.8928 13.9537V13.9537ZM11.1214 15.6176C11.1168 15.6176 11.1122 15.617 11.1077 15.6157L8.38618 14.8146C8.36686 14.8089 8.3531 14.7918 8.35169 14.7718C8.35023 14.7517 8.36145 14.7328 8.37973 14.7244L10.3003 13.8463C10.3243 13.8351 10.3526 13.8455 10.3639 13.8693L11.1649 15.5486C11.1731 15.5658 11.1704 15.5862 11.1581 15.6007C11.1488 15.6116 11.1353 15.6176 11.1214 15.6176L11.1214 15.6176ZM8.5373 14.7585L11.0313 15.4926L10.2973 13.9538L8.5373 14.7585H8.5373Z" fill="#233447"/>
<path d="M8.03405 20.7722L8.49729 16.854L5.47656 16.9408L8.03404 20.7722H8.03405ZM17.7042 16.854L18.1675 20.7722L20.725 16.9408L17.7042 16.854H17.7042ZM20.0011 12.54L14.5773 12.7813L15.0792 15.5704L15.8802 13.8912L17.8104 14.7694L20.0011 12.54H20.0011ZM8.40079 14.7694L10.331 13.8912L11.1223 15.5704L11.6338 12.7813L6.20038 12.54L8.40079 14.7694Z" fill="#CD6116"/>
<path d="M18.1669 20.82C18.1632 20.82 18.1594 20.8195 18.1556 20.8187C18.136 20.814 18.1213 20.7975 18.119 20.7774L17.6557 16.8592C17.6541 16.8452 17.6586 16.8313 17.668 16.8209C17.6775 16.8106 17.6925 16.8052 17.705 16.8053L20.7257 16.8921C20.7433 16.8927 20.7592 16.9026 20.7673 16.9182C20.7753 16.9338 20.7742 16.9525 20.7645 16.9671L18.207 20.7985C18.1979 20.8122 18.1828 20.82 18.1669 20.82L18.1669 20.82ZM17.7581 16.9034L18.1995 20.636L20.6358 16.9861L17.7581 16.9034V16.9034ZM8.03347 20.82C8.01759 20.82 8.00242 20.8122 7.99332 20.7985L5.43584 16.9671C5.42613 16.9525 5.42505 16.9338 5.4331 16.9182C5.44116 16.9026 5.45704 16.8927 5.47462 16.8921L8.49533 16.8053C8.50706 16.8052 8.5228 16.8106 8.53232 16.8209C8.54174 16.8313 8.54627 16.8452 8.54462 16.8592L8.08139 20.7774C8.07903 20.7975 8.06438 20.814 8.04473 20.8187C8.04096 20.8196 8.03719 20.82 8.03347 20.82L8.03347 20.82ZM5.56454 16.9861L8.00091 20.636L8.44222 16.9034L5.56454 16.9861V16.9861ZM15.0786 15.6182C15.0765 15.6182 15.0743 15.6181 15.0722 15.6178C15.0514 15.615 15.0348 15.5991 15.0311 15.5785L14.5292 12.7894C14.5268 12.7757 14.5304 12.7616 14.5391 12.7507C14.5477 12.7399 14.5607 12.7333 14.5746 12.7327L19.9984 12.4914C20.0189 12.4898 20.0365 12.5018 20.0446 12.5199C20.0527 12.5381 20.0489 12.5593 20.035 12.5734L17.8442 14.8027C17.83 14.8172 17.8081 14.8212 17.7898 14.8128L15.9028 13.9543L15.1222 15.5907C15.1141 15.6077 15.097 15.6182 15.0786 15.6182L15.0786 15.6182ZM14.634 12.8266L15.0996 15.4139L15.8361 13.8699C15.8474 13.8462 15.8758 13.8359 15.8996 13.8468L17.799 14.711L19.8802 12.5933L14.634 12.8266V12.8266ZM11.1218 15.6182C11.1032 15.6182 11.0861 15.6076 11.0781 15.5905L10.307 13.9543L8.42017 14.8128C8.40175 14.8211 8.38012 14.8173 8.36584 14.8028L6.16546 12.5735C6.15151 12.5594 6.14765 12.5381 6.1557 12.52C6.16376 12.5018 6.18177 12.4896 6.20193 12.4914L11.6354 12.7327C11.6493 12.7333 11.6623 12.7399 11.671 12.7508C11.6796 12.7617 11.6832 12.7759 11.6807 12.7896L11.1692 15.5787C11.1654 15.5993 11.1488 15.6151 11.128 15.6178C11.1259 15.6181 11.1238 15.6182 11.1218 15.6182H11.1218ZM10.3303 13.8425C10.3485 13.8425 10.3658 13.8527 10.374 13.8701L11.1014 15.4135L11.5758 12.8266L6.32058 12.5933L8.41089 14.711L10.3104 13.8468C10.3168 13.8438 10.3237 13.8425 10.3303 13.8425V13.8425Z" fill="#CD6116"/>
<path d="M6.19922 12.54L8.47683 16.9795L8.39962 14.7694L6.19922 12.54V12.54ZM17.8092 14.7694L17.7127 16.9794L20 12.54L17.8092 14.7694V14.7694ZM11.6327 12.7813L11.1212 15.5704L11.7581 18.8614L11.9029 14.5281L11.6327 12.7813V12.7813ZM14.5762 12.7813L14.3156 14.5185L14.4314 18.8614L15.078 15.5704L14.5762 12.7813V12.7813Z" fill="#E4751F"/>
<path d="M14.4309 18.9091C14.4295 18.9091 14.4281 18.909 14.4268 18.9089C14.4023 18.9068 14.3832 18.8867 14.3826 18.8621L14.2668 14.5192L14.5279 12.7736C14.5314 12.7502 14.5513 12.7328 14.5749 12.7325C14.5974 12.7318 14.6189 12.7489 14.6231 12.7722L15.125 15.5613C15.126 15.5672 15.1259 15.5732 15.1248 15.5791L14.4782 18.8701C14.4737 18.893 14.4537 18.9091 14.4309 18.9091L14.4309 18.9091ZM14.5799 13.0773L14.3628 14.5251L14.4674 18.4245L15.0284 15.5695L14.5799 13.0773V13.0773ZM11.7575 18.9091C11.7346 18.9091 11.7146 18.8929 11.7102 18.87L11.0732 15.5791C11.0721 15.5731 11.0721 15.5671 11.0731 15.5611L11.5846 12.7721C11.5889 12.7489 11.6088 12.7329 11.6327 12.7325C11.6563 12.7328 11.6762 12.7501 11.6798 12.7734L11.95 14.5201L11.8058 18.8624C11.805 18.887 11.7858 18.907 11.7614 18.9089C11.7601 18.909 11.7588 18.9091 11.7575 18.9091H11.7575ZM11.1697 15.5696L11.7236 18.4315L11.8541 14.5259L11.6281 13.0699L11.1697 15.5696V15.5696ZM17.7121 17.0272C17.708 17.0272 17.7039 17.0266 17.6997 17.0256C17.6778 17.0197 17.6629 16.9994 17.6639 16.9768L17.7604 14.7667C17.761 14.7548 17.7659 14.7435 17.7742 14.735L19.965 12.5057C19.9817 12.4886 20.0085 12.4864 20.0277 12.5004C20.047 12.5144 20.0532 12.5404 20.0423 12.5616L17.755 17.001C17.7466 17.0173 17.7299 17.0272 17.7121 17.0272V17.0272ZM17.856 14.7894L17.77 16.7614L19.8107 12.8003L17.856 14.7894V14.7894ZM8.47627 17.0272C8.45851 17.0272 8.44173 17.0174 8.43334 17.001L6.15572 12.5615C6.14484 12.5403 6.15106 12.5144 6.17038 12.5004C6.1896 12.4864 6.21623 12.4886 6.23301 12.5056L8.43339 14.7349C8.44187 14.7436 8.44681 14.755 8.44724 14.7671L8.52448 16.9772C8.52528 16.9998 8.5103 17.0199 8.48843 17.0257C8.48437 17.0267 8.48028 17.0272 8.47627 17.0272V17.0272ZM6.38498 12.797L8.42047 16.7645L8.35148 14.7893L6.38498 12.797V12.797Z" fill="#E4751F"/>
<path d="M15.0788 15.5686L14.4322 18.8596L14.8954 19.178L17.7135 16.9776L17.81 14.7676L15.0788 15.5686V15.5686ZM8.40039 14.7676L8.4776 16.9776L11.2957 19.178L11.7589 18.8595L11.1219 15.5686L8.40039 14.7676Z" fill="#F6851B"/>
<path d="M14.8949 19.2257C14.8854 19.2257 14.8758 19.2229 14.8675 19.2173L14.4043 18.8988C14.3884 18.8879 14.3805 18.8687 14.3842 18.8497L15.0309 15.5588C15.0344 15.5411 15.0474 15.5268 15.0647 15.5218L17.7958 14.7207C17.8108 14.7165 17.8268 14.7194 17.8392 14.729C17.8514 14.7387 17.8583 14.7536 17.8576 14.7691L17.7611 16.9792C17.7605 16.9933 17.7537 17.0064 17.7426 17.0152L14.9246 19.2156C14.9159 19.2223 14.9054 19.2257 14.8949 19.2257L14.8949 19.2257ZM14.4851 18.8373L14.893 19.1176L17.6657 16.9528L17.7583 14.8323L15.1199 15.6062L14.4851 18.8373V18.8373ZM11.2951 19.2257C11.2846 19.2257 11.2741 19.2224 11.2654 19.2156L8.44735 17.0152C8.43609 17.0063 8.4293 16.993 8.42883 16.9788L8.35159 14.7687C8.35103 14.7532 8.35796 14.7384 8.37021 14.7289C8.38251 14.7193 8.39862 14.7163 8.41342 14.7208L11.135 15.5218C11.1523 15.5269 11.1653 15.5412 11.1687 15.5589L11.8057 18.8499C11.8094 18.8687 11.8015 18.888 11.7857 18.8988L11.3224 19.2173C11.3141 19.2229 11.3046 19.2258 11.2951 19.2258V19.2257ZM8.52449 16.9529L11.2969 19.1176L11.7049 18.8372L11.0796 15.6061L8.45036 14.8322L8.52448 16.9529H8.52449Z" fill="#F6851B"/>
<path d="M15.1266 22.2075L15.1556 21.31L14.9143 21.0977H11.2759L11.0539 21.31L11.0732 22.2075L8.0332 20.7695L9.0948 21.6381L11.2469 23.134H14.9432L17.105 21.6381L18.1666 20.7695L15.1266 22.2075V22.2075Z" fill="#C0AD9E"/>
<path d="M14.9427 23.1817H11.2464C11.2365 23.1817 11.2269 23.1787 11.2188 23.173L9.06671 21.6771L8.0021 20.8063C7.9832 20.7908 7.97882 20.7638 7.99183 20.7431C8.00488 20.7226 8.03104 20.7149 8.05328 20.7253L11.0228 22.13L11.0051 21.3104C11.0048 21.2968 11.0102 21.2838 11.02 21.2745L11.242 21.0622C11.251 21.0537 11.2629 21.0489 11.2753 21.0489H14.9137C14.9254 21.0489 14.9367 21.0531 14.9455 21.0609L15.1868 21.2732C15.1977 21.2827 15.2036 21.2965 15.2032 21.3109L15.1768 22.1296L18.1454 20.7253C18.1676 20.715 18.1939 20.7227 18.2069 20.7431C18.2199 20.7638 18.2155 20.7908 18.1966 20.8063L17.135 21.6749L14.9701 23.1731C14.962 23.1787 14.9525 23.1817 14.9427 23.1817L14.9427 23.1817ZM11.2615 23.0852H14.9276L17.077 21.5979L17.8309 20.9808L15.1467 22.2506C15.1315 22.2578 15.1136 22.2566 15.0995 22.2473C15.0855 22.2381 15.0772 22.2222 15.0778 22.2055L15.106 21.3306L14.8955 21.1454H11.2947L11.102 21.3295L11.1209 22.2059C11.1212 22.2226 11.1129 22.2383 11.0989 22.2475C11.0849 22.2564 11.0672 22.2578 11.052 22.2506L8.36791 20.9809L9.12476 21.6002L11.2615 23.0852H11.2615Z" fill="#C0AD9E"/>
<path d="M14.8938 19.1769L14.4305 18.8584H11.7572L11.294 19.1769L11.0527 21.3097L11.2747 21.0974H14.9131L15.1544 21.3097L14.8938 19.1769H14.8938Z" fill="#161616"/>
<path d="M11.0522 21.3573C11.0449 21.3573 11.0376 21.3557 11.0307 21.3524C11.0125 21.3433 11.0019 21.3239 11.0042 21.3036L11.2455 19.1708C11.2471 19.157 11.2546 19.1444 11.2661 19.1365L11.7294 18.8181C11.7374 18.8125 11.747 18.8096 11.7567 18.8096H14.43C14.4397 18.8096 14.4493 18.8125 14.4573 18.8181L14.9206 19.1365C14.932 19.1443 14.9395 19.1567 14.9411 19.1704L15.2017 21.3032C15.2041 21.3231 15.194 21.3425 15.1763 21.3518C15.1586 21.3612 15.137 21.3587 15.1219 21.3453L14.8943 21.1451H11.2935L11.0855 21.344C11.0763 21.3527 11.0643 21.3573 11.0522 21.3573V21.3573ZM11.2742 21.0486H14.9125C14.9243 21.0486 14.9356 21.0528 14.9444 21.0607L15.0906 21.1892L14.848 19.2037L14.415 18.9061H11.7717L11.3389 19.2036L11.1151 21.1821L11.2408 21.062C11.2498 21.0534 11.2617 21.0486 11.2742 21.0486H11.2742Z" fill="#161616"/>
<path d="M24.5843 7.91555L25.4047 3.978L24.179 0.320312L14.8949 7.21104L18.4657 10.2318L23.5131 11.7083L24.6326 10.4055L24.1501 10.0581L24.9221 9.35353L24.3238 8.89029L25.0958 8.30159L24.5843 7.91556L24.5843 7.91555ZM0.794922 3.978L1.61525 7.91555L1.0941 8.30159L1.86617 8.89029L1.27746 9.35353L2.04953 10.058L1.56699 10.4055L2.67684 11.7083L7.72425 10.2318L11.2951 7.21103L2.01093 0.320312L0.794922 3.978Z" fill="#763D16"/>
<path d="M2.67626 11.756C2.66236 11.756 2.64883 11.75 2.63951 11.739L1.52965 10.4362C1.52094 10.4259 1.51688 10.4125 1.51849 10.3991C1.52014 10.3857 1.52725 10.3736 1.53823 10.3657L1.97252 10.053L1.24437 9.38857C1.23391 9.37905 1.22816 9.36533 1.22868 9.3512C1.2292 9.33702 1.23589 9.32377 1.24706 9.31501L1.78681 8.89029L1.06427 8.33932C1.05221 8.33013 1.04518 8.31581 1.04528 8.30063C1.04538 8.28546 1.05263 8.27123 1.06479 8.26218L1.56114 7.89452L0.747123 3.98723C0.745381 3.97889 0.745849 3.97022 0.748539 3.96216L1.96456 0.304486C1.96946 0.289785 1.9811 0.278333 1.99584 0.273667C2.01055 0.269144 2.02671 0.271686 2.0391 0.280972L11.3232 7.17169C11.335 7.18045 11.3423 7.19417 11.3427 7.20887C11.3432 7.22362 11.3369 7.23776 11.3256 7.24727L7.7548 10.268C7.74966 10.2723 7.74368 10.2756 7.73722 10.2774L2.68978 11.7541C2.68535 11.7554 2.68078 11.756 2.67626 11.756V11.756ZM1.63709 10.4134L2.6927 11.6527L7.70027 10.1877L11.2168 7.21287L2.0351 0.398166L0.844246 3.98025L1.66189 7.90507C1.66575 7.9235 1.65854 7.94249 1.64342 7.9537L1.17383 8.30152L1.89486 8.85131C1.90674 8.86036 1.91376 8.87436 1.91385 8.88929C1.91395 8.90423 1.90716 8.91837 1.89543 8.92761L1.35148 9.35568L2.08148 10.0218C2.09222 10.0316 2.09797 10.0457 2.09712 10.0602C2.09627 10.0747 2.08897 10.0881 2.07714 10.0966L1.6371 10.4135L1.63709 10.4134ZM23.5125 11.756C23.508 11.756 23.5034 11.7554 23.4989 11.7541L18.4516 10.2774C18.4451 10.2756 18.4391 10.2723 18.434 10.268L14.8631 7.24727C14.8519 7.23775 14.8456 7.22362 14.8461 7.20887C14.8465 7.19417 14.8537 7.18045 14.8655 7.17169L24.1497 0.280972C24.162 0.271691 24.1781 0.269189 24.1929 0.273667C24.2076 0.278287 24.2193 0.289734 24.2242 0.304389L25.4498 3.96206C25.4526 3.97017 25.453 3.97884 25.4513 3.98723L24.6372 7.89484L25.1243 8.26245C25.1364 8.27154 25.1434 8.28573 25.1435 8.30081C25.1435 8.31593 25.1365 8.33017 25.1245 8.33931L24.4024 8.88995L24.9511 9.31477C24.9623 9.32348 24.9692 9.33677 24.9697 9.351C24.9703 9.36524 24.9646 9.379 24.954 9.38856L24.2259 10.053L24.6602 10.3657C24.6712 10.3736 24.6783 10.3857 24.6799 10.3992C24.6815 10.4126 24.6774 10.4261 24.6686 10.4363L23.5491 11.7392C23.5398 11.75 23.5264 11.756 23.5125 11.756L23.5125 11.756ZM18.4885 10.1877L23.4962 11.6527L24.5611 10.4133L24.1213 10.0966C24.1095 10.0881 24.1021 10.0747 24.1013 10.0602C24.1005 10.0457 24.1062 10.0316 24.1169 10.0218L24.8466 9.35596L24.2936 8.92784C24.2818 8.91865 24.2749 8.90447 24.2749 8.88948C24.2749 8.87449 24.282 8.8604 24.2939 8.85131L25.0154 8.30115L24.5547 7.95342C24.5398 7.94221 24.5327 7.92336 24.5365 7.90508L25.3542 3.98036L24.1538 0.398075L14.9719 7.21287L18.4885 10.1877H18.4885Z" fill="#763D16"/>
<path d="M23.5135 11.7089L18.4661 10.2324L20.0006 12.5389L17.7134 16.9783L20.7244 16.9397H25.2121L23.5135 11.7089V11.7089ZM7.72471 10.2324L2.6773 11.7089L0.998047 16.9397H5.47606L8.47748 16.9783L6.19987 12.5389L7.72471 10.2324H7.72471ZM14.5768 12.7802L14.8953 7.21163L16.3622 3.24512H9.8479L11.2955 7.21163L11.6333 12.7802L11.7491 14.5366L11.7588 18.8602H14.4321L14.4514 14.5366L14.5768 12.7802H14.5768Z" fill="#F6851B"/>
<path d="M14.4315 18.9089H11.7582C11.7316 18.9089 11.71 18.8873 11.7099 18.8608L11.7003 14.5371L11.5845 12.7838L11.2472 7.22198L9.80196 3.26206C9.79654 3.24726 9.79871 3.23077 9.80776 3.21786C9.81681 3.20495 9.83156 3.19727 9.8473 3.19727H16.3616C16.3774 3.19727 16.3922 3.20499 16.4012 3.21795C16.4103 3.23091 16.4124 3.24745 16.4069 3.26225L14.9425 7.22203L14.6244 12.7834C14.6244 12.7836 14.6244 12.7838 14.6243 12.7841L14.4989 14.5405L14.4797 18.8609C14.4796 18.8874 14.458 18.9089 14.4315 18.9089V18.9089ZM11.8064 18.8124H14.3834L14.4025 14.5368L14.5281 12.7776L14.8448 7.24022L14.8602 7.16628L16.2923 3.29378H9.91629L11.3299 7.1671L11.3449 7.23925L11.6809 12.7777L11.7967 14.5339L11.8064 18.8124L11.8064 18.8124ZM14.5762 12.7806H14.5772H14.5762ZM17.7128 17.027C17.696 17.027 17.6805 17.0183 17.6717 17.0041C17.6628 16.9897 17.6621 16.9717 17.6699 16.9566L19.9441 12.5425L18.4254 10.2595C18.4141 10.2426 18.4147 10.2205 18.4267 10.2041C18.4387 10.1878 18.4595 10.1806 18.4791 10.1864L23.5265 11.663C23.5418 11.6675 23.5539 11.6793 23.5588 11.6945L25.2574 16.9252C25.2622 16.9399 25.2596 16.9559 25.2505 16.9685C25.2415 16.981 25.227 16.9884 25.2115 16.9884H20.7238L17.7134 17.027H17.7128L17.7128 17.027ZM18.579 10.3162L20.0402 12.5126C20.0499 12.5272 20.0509 12.5459 20.0429 12.5615L17.7924 16.9295L20.7232 16.8919H25.1451L23.4749 11.7485L18.579 10.3162H18.579ZM8.4769 17.027H8.47629L5.47485 16.9884H0.99747C0.98206 16.9884 0.967547 16.981 0.9585 16.9686C0.949407 16.9561 0.946814 16.94 0.951526 16.9253L2.63077 11.6946C2.63567 11.6793 2.64778 11.6676 2.66314 11.663L7.71058 10.1864C7.72986 10.1806 7.75092 10.1878 7.76293 10.2041C7.77494 10.2204 7.77551 10.2425 7.76435 10.2594L6.25508 12.5424L8.51983 16.9567C8.52756 16.9718 8.52685 16.9898 8.5179 17.0042C8.50913 17.0183 8.49359 17.027 8.4769 17.027H8.4769ZM1.06363 16.8919H5.47546L8.3974 16.9295L6.15635 12.5614C6.14839 12.5459 6.14942 12.5273 6.15904 12.5127L7.61119 10.3161L2.71483 11.7485L1.06363 16.8919V16.8919Z" fill="#F6851B"/>
</svg>
