<svg width="20" height="19" viewBox="0 0 20 19" fill="none" xmlns="http://www.w3.org/2000/svg">
    <path d="M19.9996 9.5L19.9998 9.10284C20.002 6.07413 20.0037 3.68187 18.8431 2.14341C18.4307 1.60189 17.8932 1.15729 17.2718 0.843705C16.3698 0.362154 15.4867 0.242582 14.7072 0.137058L14.6446 0.128598C13.9326 0.037644 13.2146 -0.0051606 12.4962 0.000495112H7.50382C6.78538 -0.0051606 6.06742 0.037644 5.35536 0.128598L5.2928 0.137085C4.5133 0.242582 3.63024 0.362154 2.72824 0.843705C2.10685 1.15729 1.56931 1.6019 1.15684 2.14344C-0.00372351 3.68186 -0.00200369 6.07413 0.000187701 9.10284L0.000381896 9.5L0.000187701 9.89717C-0.00200369 12.9259 -0.00372362 15.3182 1.15687 16.8566C1.56932 17.3981 2.10683 17.8427 2.72818 18.1563C3.63025 18.6379 4.51325 18.7574 5.29277 18.8629L5.35536 18.8714C6.06742 18.9623 6.78538 19.0052 7.50382 18.9995H12.4962C13.2146 19.0052 13.9326 18.9623 14.6446 18.8714L14.7072 18.8629C15.4868 18.7574 16.3698 18.6379 17.2718 18.1563C17.8932 17.8427 18.4307 17.3981 18.8431 16.8566C20.0037 15.3182 20.002 12.9259 19.9998 9.89717L19.9996 9.5Z" fill="#2F2F2F"/>
    <path d="M5 9.70294V9.68167C5.01046 9.65206 5.0188 9.62132 5.02472 9.59045C5.11724 8.79862 5.2098 8.00696 5.30245 7.21543C5.30699 7.16671 5.32456 7.11997 5.35325 7.07999C5.67049 6.68448 5.99024 6.29105 6.31242 5.89969C6.34208 5.86615 6.38295 5.84393 6.42771 5.83697C6.78273 5.79542 7.13828 5.75751 7.49436 5.72319C7.62696 5.71203 7.75611 5.6733 7.87233 5.60992C8.23446 5.41068 8.60201 5.2206 8.9659 5.02412C8.99058 5.00839 9.01936 5 9.04875 5C9.07564 5 9.10203 5.007 9.12525 5.02023C9.65652 5.2771 10.1891 5.53055 10.7214 5.78569C10.7557 5.8023 10.7887 5.8214 10.8517 5.85439L10.4175 6.26731C10.4483 6.2754 10.4678 6.2824 10.488 6.2856C10.9839 6.36298 11.4809 6.43444 11.9752 6.51947C12.5115 6.61112 13.0607 6.66701 13.5412 6.94878C13.8942 7.15589 14.2359 7.38168 14.5866 7.59221C14.7522 7.69151 14.8147 7.83672 14.8037 8.013C14.7857 8.31643 14.7627 8.62008 14.7286 8.92242C14.6975 9.19563 14.627 9.45847 14.4463 9.6811C14.4301 9.70129 14.4301 9.74128 14.4353 9.76998C14.6049 10.7079 14.7752 11.6456 14.9459 12.5831C14.9707 12.7208 14.9824 12.861 15 13H13.698C13.7631 12.9266 13.8224 12.8475 13.8934 12.7816C13.9531 12.727 13.9624 12.6847 13.9253 12.6099C13.557 11.8683 13.192 11.1254 12.8304 10.3811C12.787 10.2935 12.7406 10.2762 12.6474 10.2896C12.2366 10.3487 11.8246 10.3994 11.4129 10.4529C10.8081 10.5317 10.2032 10.6105 9.59817 10.6893C9.53002 10.6981 9.48221 10.7197 9.44752 10.7872C9.06654 11.5244 8.6831 12.2616 8.29705 12.9987H6.97399C6.9845 12.9622 6.9984 12.9264 7.01544 12.8924C7.12897 12.7072 7.24621 12.5241 7.36 12.3395C7.38662 12.2976 7.40789 12.2523 7.42299 12.2052C7.70765 11.2539 7.99054 10.3021 8.27162 9.34984C8.27357 9.34007 8.27454 9.33017 8.27454 9.32022C8.27454 9.28456 8.262 9.24993 8.23905 9.22227C8.08098 9.06171 7.91771 8.90587 7.75121 8.75448C7.72305 8.73226 7.68792 8.72016 7.65172 8.72016C7.64413 8.72016 7.63649 8.72067 7.62899 8.72176C7.23279 8.8019 6.83826 8.88953 6.44206 8.96968C6.37408 8.98329 6.35524 9.01559 6.34698 9.07451C6.30531 9.40154 6.26016 9.72792 6.21955 10.055C6.21562 10.0869 6.21955 10.1311 6.23954 10.1528C6.36592 10.2929 6.49768 10.4292 6.63535 10.5734L7.10474 10.1322C7.15664 10.4762 7.20485 10.7964 7.25539 11.1315C7.0003 11.1791 6.75342 11.2257 6.50593 11.2703C6.505 11.2703 6.50399 11.2704 6.50306 11.2704C6.48236 11.2704 6.46183 11.2666 6.44259 11.2593C6.29516 11.2242 6.14601 11.1943 6.00141 11.1507C5.94513 11.133 5.89618 11.0978 5.86201 11.0505C5.69984 10.8033 5.54676 10.5504 5.38808 10.3008C5.26065 10.1007 5.13035 9.90192 5.00009 9.70311L5 9.70294Z" fill="white"/>
</svg>