<svg width="26" height="23" viewBox="0 0 26 23" fill="none" xmlns="http://www.w3.org/2000/svg">
<path d="M25.81 19.3011C25.8084 18.8036 25.4926 18.496 24.9882 18.4922C24.7643 18.4905 24.5404 18.4919 24.2981 18.4919C24.2981 18.364 24.2983 18.2656 24.2981 18.1671C24.2952 16.34 24.2922 14.5128 24.2892 12.6856C24.2982 12.5896 24.3073 12.4937 24.3176 12.3845C24.5356 12.3845 24.7361 12.3849 24.9365 12.3844C25.5076 12.3831 25.8105 12.0874 25.8108 11.5273C25.8113 10.5934 25.8109 9.65952 25.8091 8.72562C25.8081 8.17774 25.5053 7.87979 24.9515 7.87779C24.1291 7.87482 23.3066 7.87204 22.4842 7.86918C22.4004 7.87208 22.3167 7.87753 22.233 7.87753C16.0149 7.87791 9.79678 7.87791 3.57867 7.8775C3.49494 7.87749 3.4112 7.87205 3.32746 7.86914C2.48825 7.87202 1.64903 7.87344 0.809842 7.87837C0.321328 7.88124 0.00507838 8.19164 0.00320487 8.6752C-0.000516922 9.64241 -0.000836914 10.6096 0.00141817 11.5768C0.00256388 12.0739 0.317816 12.3802 0.823433 12.3841C1.047 12.3859 1.27057 12.3844 1.52214 12.3844V18.4919C1.26741 18.4919 1.05821 18.4911 0.849001 18.492C0.311506 18.4943 0.00231656 18.7967 0.00130612 19.3258C-0.00046847 20.2436 0.000271447 21.1614 0.000172522 22.0792C9.88334e-05 22.7279 0.276856 23.0003 0.936341 23.0003C6.59756 23.0003 12.2588 23.0003 17.92 23.0003C20.2718 23.0003 22.6237 23.0008 24.9755 22.9999C25.4961 22.9996 25.81 22.6917 25.8109 22.1797C25.8127 21.2202 25.8129 20.2606 25.81 19.3011H25.81ZM12.9226 10.882C13.3308 10.891 13.6654 11.2358 13.6601 11.6419C13.6549 12.0466 13.3087 12.3832 12.9005 12.3805C12.4819 12.3777 12.1442 12.0287 12.1515 11.6065C12.1585 11.2067 12.5136 10.873 12.9226 10.882ZM21.2744 15.9111C21.275 16.9876 21.2733 18.0641 21.2713 19.1405C21.2703 19.69 20.9679 19.9913 20.4159 19.9913C15.4092 19.9918 10.4024 19.9918 5.39568 19.9913C4.84399 19.9912 4.54102 19.6893 4.54027 19.1405C4.53773 17.2796 4.53608 15.4187 4.53473 13.5578C4.53468 13.483 4.5411 13.4081 4.5445 13.3332C4.53988 13.2676 4.53527 13.2019 4.53066 13.1362C4.53362 12.6534 4.53613 12.1706 4.53967 11.6878C4.5434 11.1792 4.83655 10.8832 5.34895 10.8824C6.8414 10.88 8.33384 10.8801 9.82628 10.8824C10.325 10.8832 10.6255 11.1973 10.6384 11.7001C10.6529 12.2674 10.8685 12.7579 11.2436 13.182C11.7406 13.6426 12.3149 13.9107 13.0086 13.8838C13.5968 13.8609 14.0846 13.6094 14.5184 13.2335C14.9604 12.7639 15.1532 12.1996 15.1799 11.5647C15.1963 11.1724 15.5366 10.8836 15.9689 10.8826C17.2438 10.8797 18.5187 10.8815 19.7936 10.8815C20.02 10.8815 20.2465 10.8792 20.4729 10.882C20.9447 10.888 21.2669 11.2135 21.272 11.6867C21.2757 12.0197 21.2784 12.3527 21.2816 12.6857C21.2768 12.9016 21.272 13.1174 21.2672 13.3333C21.2697 14.1925 21.2739 15.0518 21.2744 15.9111H21.2744Z" fill="url(#paint0_linear_572_164)"/>
<path d="M22.2541 7.85984C22.1724 7.8627 22.0907 7.86807 22.009 7.86807C15.9419 7.86845 9.87474 7.86844 3.80762 7.86804C3.72591 7.86804 3.64421 7.86267 3.5625 7.8598C3.69537 7.43094 3.82307 7.00038 3.9622 6.57358C4.23589 5.73401 4.52381 4.89903 4.78985 4.05706C4.91367 3.66519 5.19974 3.42319 5.61502 3.42221C6.39156 3.42038 7.16812 3.42104 7.94467 3.42066C9.07546 3.42139 10.2062 3.42115 11.337 3.42336C11.7545 3.42417 12.011 3.60895 12.1445 4.00609C12.3695 4.6751 12.5904 5.34548 12.8139 6.01501C12.8369 6.08407 12.8655 6.15126 12.914 6.27807C13.1742 5.49738 13.4102 4.7894 13.6461 4.08138C13.8135 3.57914 14.0261 3.42356 14.5459 3.42282C15.6521 3.42126 16.7582 3.41959 17.8644 3.41797C18.625 3.41924 19.3855 3.42058 20.1461 3.42176C20.6152 3.42249 20.8616 3.59612 21.0064 4.03307C21.4082 5.24515 21.8092 6.45752 22.2094 7.67014C22.2297 7.73158 22.2394 7.79652 22.2541 7.85984V7.85984Z" fill="#FFB800"/>
<path d="M17.7987 4.33156C16.7069 4.33314 15.615 4.33477 14.5232 4.33629C14.0102 4.33701 13.8004 4.48873 13.6352 4.97849C13.4024 5.66892 13.1694 6.35931 12.9126 7.12061C12.8647 6.99695 12.8365 6.93143 12.8137 6.86409C12.5932 6.21119 12.3751 5.55746 12.1531 4.90507C12.0213 4.5178 11.7682 4.3376 11.3561 4.33681C10.24 4.33467 9.12391 4.3349 8.00781 4.33418C8.44359 3.04585 8.87565 1.75626 9.3179 0.470118C9.42228 0.166534 9.66246 0.00406187 9.98482 0.00332776C11.9333 -0.0011107 13.8817 -0.00111166 15.8301 0.00333933C16.1528 0.00407634 16.3935 0.167188 16.4958 0.471339C16.8172 1.42729 17.1217 2.38885 17.4392 3.34611C17.5493 3.67779 17.6783 4.00325 17.7987 4.33156L17.7987 4.33156Z" fill="#FFA102"/>
<defs>
<linearGradient id="paint0_linear_572_164" x1="2.22519" y1="22.5554" x2="25.3672" y2="7.86914" gradientUnits="userSpaceOnUse">
<stop stop-color="#FF6202"/>
<stop offset="1" stop-color="#FFA402"/>
</linearGradient>
</defs>
</svg>
