<svg width="32" height="20" viewBox="0 0 32 20" fill="none" xmlns="http://www.w3.org/2000/svg">
<path d="M7.18261 4.89743C12.1263 -0.331697 20.1429 -0.331697 25.0866 4.89743L25.6819 5.52652C25.9238 5.77987 25.9299 6.19719 25.6954 6.45862C25.691 6.46357 25.6865 6.46845 25.6819 6.47325L23.6464 8.62596C23.5216 8.75665 23.3233 8.75665 23.1985 8.62596L22.3798 7.75974C18.9311 4.11262 13.3389 4.11262 9.88946 7.75974L9.01256 8.68701C8.88776 8.8177 8.68949 8.8177 8.56469 8.68701L6.52923 6.5343C6.28731 6.28095 6.28125 5.86364 6.51569 5.60221C6.52014 5.59725 6.52465 5.59238 6.52923 5.58757L7.18261 4.89743Z" fill="white"/>
<path d="M29.328 8.96567L31.1474 10.7272C31.3905 10.96 31.3966 11.3436 31.161 11.5839C31.1566 11.5884 31.152 11.5929 31.1474 11.5973L22.9418 19.5379C22.6913 19.7785 22.2926 19.7785 22.042 19.5379L16.2185 13.9021C16.1558 13.8415 16.0557 13.8415 15.9931 13.9021L10.1696 19.5379C9.91899 19.7785 9.52026 19.7785 9.2697 19.5379L1.06329 11.5973C0.820257 11.3645 0.814162 10.9809 1.04969 10.7406C1.05415 10.7361 1.05868 10.7316 1.06329 10.7272L2.88356 8.96567C3.13402 8.72551 3.53212 8.72551 3.78258 8.96567L9.60612 14.6015C9.66876 14.662 9.76885 14.662 9.83149 14.6015L15.655 8.96567C15.9056 8.72499 16.3043 8.72499 16.5549 8.96567L22.3792 14.6015C22.4419 14.662 22.542 14.662 22.6046 14.6015L28.4281 8.96567C28.6787 8.72499 29.0774 8.72499 29.328 8.96567Z" fill="white"/>
</svg>
