<svg width="22" height="21" viewBox="0 0 22 21" fill="none" xmlns="http://www.w3.org/2000/svg">
<path d="M11 21C16.799 21 21.5 16.299 21.5 10.5C21.5 4.70101 16.799 0 11 0C5.20101 0 0.5 4.70101 0.5 10.5C0.5 16.299 5.20101 21 11 21Z" fill="url(#paint0_linear_390_9810)"/>
<path d="M10.9057 17.9782C10.6715 17.9782 10.4373 17.9165 10.2285 17.7931L4.63065 14.4842C4.32274 14.3022 4.10497 14.0109 4.01748 13.6642C3.92999 13.3174 3.9834 12.9577 4.16797 12.6514L9.76572 3.36321C10.0089 2.95995 10.4349 2.71924 10.9057 2.71924H10.906C11.3768 2.71935 11.8029 2.96013 12.0458 3.36339L12.9862 4.92353C13.223 5.31657 13.0964 5.82724 12.7034 6.06415C12.3106 6.30091 11.7998 6.17451 11.5627 5.78139L10.9057 4.69123L5.7636 13.2234L10.9057 16.2629L16.7692 12.797C17.1643 12.5634 17.6739 12.6944 17.9073 13.0894C18.1409 13.4845 18.01 13.9941 17.6149 14.2276L11.5831 17.793C11.3742 17.9165 11.1399 17.9782 10.9057 17.9782Z" fill="white"/>
<path d="M11.6045 13.8993C11.4068 13.8993 11.2106 13.8289 11.055 13.6918C10.7852 13.4542 10.6989 13.0699 10.8413 12.7396L12.0886 9.84412L10.5125 10.7644C10.1166 10.9958 9.60755 10.8621 9.37591 10.4658C9.14457 10.0695 9.27824 9.56063 9.67453 9.32925L13.4322 7.13514C13.742 6.95414 14.1331 6.99258 14.402 7.23048C14.6706 7.46832 14.7563 7.85184 14.6143 8.18144L13.3748 11.0589L15.3521 9.89215C15.7469 9.65892 16.2567 9.7902 16.4901 10.1855C16.7232 10.5807 16.5919 11.0902 16.1966 11.3234L12.0266 13.784C11.8956 13.8614 11.7497 13.8993 11.6045 13.8993Z" fill="white"/>
<defs>
<linearGradient id="paint0_linear_390_9810" x1="3.57538" y1="17.9246" x2="18.4246" y2="3.07538" gradientUnits="userSpaceOnUse">
<stop stop-color="#FF0000"/>
<stop offset="0.15924" stop-color="#FF0F00" stop-opacity="0.99755"/>
<stop offset="0.4855" stop-color="#FF2A00" stop-opacity="0.99341"/>
<stop offset="0.77624" stop-color="#FF3B00" stop-opacity="0.99089"/>
<stop offset="1" stop-color="#FF4100" stop-opacity="0.99"/>
</linearGradient>
</defs>
</svg>
