<svg width="21" height="21" viewBox="0 0 21 21" fill="none" xmlns="http://www.w3.org/2000/svg">
<path d="M10.5 21C16.299 21 21 16.299 21 10.5C21 4.70101 16.299 0 10.5 0C4.70101 0 0 4.70101 0 10.5C0 16.299 4.70101 21 10.5 21Z" fill="url(#paint0_linear_390_9902)"/>
<path d="M10.4057 17.9782C10.1715 17.9782 9.93731 17.9165 9.72854 17.7931L4.13065 14.4842C3.82274 14.3022 3.60497 14.0109 3.51748 13.6642C3.42999 13.3174 3.4834 12.9577 3.66797 12.6514L9.26572 3.36321C9.50886 2.95995 9.93495 2.71924 10.4057 2.71924H10.406C10.8768 2.71935 11.3029 2.96013 11.5458 3.36339L12.4862 4.92353C12.723 5.31657 12.5964 5.82724 12.2034 6.06415C11.8106 6.30091 11.2998 6.17451 11.0627 5.78139L10.4057 4.69123L5.2636 13.2234L10.4057 16.2629L16.2692 12.797C16.6643 12.5634 17.1739 12.6944 17.4073 13.0894C17.6409 13.4845 17.51 13.9941 17.1149 14.2276L11.0831 17.793C10.8742 17.9165 10.6399 17.9782 10.4057 17.9782Z" fill="white"/>
<path d="M11.1045 13.8993C10.9068 13.8993 10.7106 13.8289 10.555 13.6918C10.2852 13.4542 10.1989 13.0699 10.3413 12.7396L11.5886 9.84412L10.0125 10.7644C9.61656 10.9958 9.10755 10.8621 8.87591 10.4658C8.64457 10.0695 8.77824 9.56063 9.17453 9.32925L12.9322 7.13514C13.242 6.95414 13.6331 6.99258 13.902 7.23048C14.1706 7.46832 14.2563 7.85184 14.1143 8.18144L12.8748 11.0589L14.8521 9.89215C15.2469 9.65892 15.7567 9.7902 15.9901 10.1855C16.2232 10.5807 16.0919 11.0902 15.6966 11.3234L11.5266 13.784C11.3956 13.8614 11.2497 13.8993 11.1045 13.8993Z" fill="white"/>
<defs>
<linearGradient id="paint0_linear_390_9902" x1="3.07538" y1="17.9246" x2="17.9246" y2="3.07538" gradientUnits="userSpaceOnUse">
<stop stop-color="#FF0000"/>
<stop offset="0.15924" stop-color="#FF0F00" stop-opacity="0.99755"/>
<stop offset="0.4855" stop-color="#FF2A00" stop-opacity="0.99341"/>
<stop offset="0.77624" stop-color="#FF3B00" stop-opacity="0.99089"/>
<stop offset="1" stop-color="#FF4100" stop-opacity="0.99"/>
</linearGradient>
</defs>
</svg>
