<svg width="242" height="148" viewBox="0 0 242 148" fill="none" xmlns="http://www.w3.org/2000/svg">
<path d="M66.676 3.9H72.877V5.044L68.132 11.804H72.955V13H66.546V11.856L71.291 5.096H66.676V3.9ZM80.3155 13H79.1195V11.921H78.9375C78.5389 12.7097 77.8239 13.104 76.7925 13.104C76.0819 13.104 75.4882 12.8743 75.0115 12.415C74.5435 11.9557 74.3095 11.3057 74.3095 10.465V6.63H75.5315V10.361C75.5315 10.907 75.6702 11.323 75.9475 11.609C76.2335 11.895 76.6409 12.038 77.1695 12.038C77.7675 12.038 78.2355 11.856 78.5735 11.492C78.9202 11.128 79.0935 10.6167 79.0935 9.958V6.63H80.3155V13ZM82.1317 6.63H83.3277V7.709H83.5097C83.9083 6.92033 84.6233 6.526 85.6547 6.526C86.3653 6.526 86.9547 6.75567 87.4227 7.215C87.8993 7.67433 88.1377 8.32433 88.1377 9.165V13H86.9157V9.269C86.9157 8.723 86.7727 8.307 86.4867 8.021C86.2093 7.735 85.8063 7.592 85.2777 7.592C84.6797 7.592 84.2073 7.774 83.8607 8.138C83.5227 8.502 83.3537 9.01333 83.3537 9.672V13H82.1317V6.63ZM89.6678 8.307C89.9192 7.76967 90.3005 7.32767 90.8118 6.981C91.3318 6.62567 91.9602 6.448 92.6968 6.448C93.5548 6.448 94.2395 6.67767 94.7508 7.137C95.2622 7.59633 95.5178 8.21167 95.5178 8.983V13H94.3218V11.999H94.1398C93.9838 12.337 93.7195 12.6187 93.3468 12.844C92.9742 13.0693 92.4888 13.182 91.8908 13.182C91.1802 13.182 90.6082 13.0043 90.1748 12.649C89.7502 12.2937 89.5378 11.83 89.5378 11.258C89.5378 10.1227 90.3482 9.477 91.9688 9.321L94.3218 9.1V8.931C94.3218 8.49767 94.1745 8.15967 93.8798 7.917C93.5938 7.66567 93.1908 7.54 92.6708 7.54C91.7088 7.54 91.0588 7.956 90.7208 8.788L89.6678 8.307ZM90.7728 11.206C90.7728 11.5093 90.8898 11.7477 91.1238 11.921C91.3578 12.0857 91.6828 12.168 92.0988 12.168C92.8182 12.168 93.3685 11.9817 93.7498 11.609C94.1312 11.2277 94.3218 10.7467 94.3218 10.166V10.062L92.0988 10.27C91.2148 10.348 90.7728 10.66 90.7728 11.206ZM97.2645 6.63H98.4605V7.462H98.6425C99.0152 6.838 99.5958 6.526 100.384 6.526C101.182 6.526 101.771 6.88133 102.152 7.592H102.334C102.681 6.88133 103.296 6.526 104.18 6.526C104.77 6.526 105.277 6.721 105.701 7.111C106.126 7.501 106.338 8.01233 106.338 8.645V13H105.116V8.723C105.116 8.359 104.995 8.07733 104.752 7.878C104.51 7.67 104.193 7.566 103.803 7.566C103.387 7.566 103.049 7.69167 102.789 7.943C102.538 8.19433 102.412 8.554 102.412 9.022V13H101.19V8.723C101.19 8.359 101.078 8.07733 100.852 7.878C100.627 7.67 100.324 7.566 99.9425 7.566C99.5178 7.566 99.1668 7.69167 98.8895 7.943C98.6208 8.19433 98.4865 8.554 98.4865 9.022V13H97.2645V6.63ZM107.99 5.369C107.799 5.17833 107.704 4.94867 107.704 4.68C107.704 4.41133 107.799 4.186 107.99 4.004C108.181 3.81333 108.415 3.718 108.692 3.718C108.969 3.718 109.203 3.81333 109.394 4.004C109.585 4.186 109.68 4.41133 109.68 4.68C109.68 4.94867 109.585 5.17833 109.394 5.369C109.203 5.551 108.969 5.642 108.692 5.642C108.415 5.642 108.181 5.551 107.99 5.369ZM109.303 6.63V13H108.081V6.63H109.303ZM115.025 3.9H116.325V9.932C116.325 11.3013 117.027 11.986 118.431 11.986C119.835 11.986 120.537 11.3013 120.537 9.932V3.9H121.837V9.932C121.837 10.9807 121.538 11.7867 120.94 12.35C120.351 12.9047 119.515 13.182 118.431 13.182C117.348 13.182 116.507 12.9047 115.909 12.35C115.32 11.7867 115.025 10.9807 115.025 9.932V3.9ZM123.658 6.63H124.854V7.709H125.036C125.435 6.92033 126.15 6.526 127.181 6.526C127.892 6.526 128.481 6.75567 128.949 7.215C129.426 7.67433 129.664 8.32433 129.664 9.165V13H128.442V9.269C128.442 8.723 128.299 8.307 128.013 8.021C127.736 7.735 127.333 7.592 126.804 7.592C126.206 7.592 125.734 7.774 125.387 8.138C125.049 8.502 124.88 9.01333 124.88 9.672V13H123.658V6.63ZM131.311 5.369C131.121 5.17833 131.025 4.94867 131.025 4.68C131.025 4.41133 131.121 4.186 131.311 4.004C131.502 3.81333 131.736 3.718 132.013 3.718C132.291 3.718 132.525 3.81333 132.715 4.004C132.906 4.186 133.001 4.41133 133.001 4.68C133.001 4.94867 132.906 5.17833 132.715 5.369C132.525 5.551 132.291 5.642 132.013 5.642C131.736 5.642 131.502 5.551 131.311 5.369ZM132.624 6.63V13H131.402V6.63H132.624ZM133.799 6.63H135.125L136.971 11.83H137.127L138.973 6.63H140.299L137.92 13H136.178L133.799 6.63ZM140.927 9.763C140.927 8.81833 141.226 8.02533 141.824 7.384C142.422 6.74267 143.18 6.422 144.099 6.422C145.026 6.422 145.776 6.72533 146.348 7.332C146.928 7.93867 147.219 8.71 147.219 9.646V10.257H142.201C142.235 10.829 142.439 11.284 142.812 11.622C143.184 11.9513 143.657 12.116 144.229 12.116C145.061 12.116 145.667 11.7347 146.049 10.972L147.076 11.557C146.408 12.6403 145.468 13.182 144.255 13.182C143.275 13.182 142.474 12.857 141.85 12.207C141.234 11.5483 140.927 10.7337 140.927 9.763ZM142.201 9.269H145.945C145.927 8.723 145.754 8.28967 145.425 7.969C145.095 7.64833 144.653 7.488 144.099 7.488C143.544 7.488 143.098 7.644 142.76 7.956C142.43 8.268 142.244 8.70567 142.201 9.269ZM149.736 6.63V7.67H149.918C150.152 6.95933 150.707 6.604 151.582 6.604H152.31V7.8H151.192C150.733 7.8 150.382 7.93 150.139 8.19C149.905 8.44133 149.788 8.80533 149.788 9.282V13H148.566V6.63H149.736ZM153.197 8.333C153.197 7.75233 153.431 7.293 153.899 6.955C154.367 6.617 154.943 6.448 155.628 6.448C156.261 6.448 156.815 6.578 157.292 6.838C157.777 7.08933 158.276 7.501 158.787 8.073L157.877 8.723C157.227 7.88233 156.486 7.462 155.654 7.462C155.29 7.462 154.991 7.54 154.757 7.696C154.523 7.84333 154.406 8.05133 154.406 8.32C154.406 8.46733 154.436 8.58867 154.497 8.684C154.558 8.77933 154.666 8.85733 154.822 8.918C154.987 8.97 155.112 9.009 155.199 9.035C155.294 9.05233 155.468 9.07833 155.719 9.113L156.252 9.191C157.093 9.31233 157.73 9.50733 158.163 9.776C158.605 10.036 158.826 10.4693 158.826 11.076C158.826 11.7087 158.562 12.22 158.033 12.61C157.513 12.9913 156.841 13.182 156.018 13.182C155.195 13.182 154.51 12.9913 153.964 12.61C153.418 12.22 152.998 11.7433 152.703 11.18L153.795 10.595C153.994 11.0803 154.293 11.4617 154.692 11.739C155.091 12.0077 155.546 12.142 156.057 12.142C156.516 12.142 156.889 12.051 157.175 11.869C157.47 11.6783 157.617 11.427 157.617 11.115C157.617 11.0457 157.608 10.9807 157.591 10.92C157.574 10.8593 157.543 10.8073 157.5 10.764C157.457 10.712 157.418 10.6687 157.383 10.634C157.348 10.5993 157.292 10.569 157.214 10.543C157.136 10.5083 157.071 10.4823 157.019 10.465C156.976 10.4477 156.902 10.4303 156.798 10.413C156.694 10.387 156.62 10.3697 156.577 10.361C156.534 10.3523 156.451 10.3437 156.33 10.335C156.217 10.3177 156.144 10.3047 156.109 10.296L155.576 10.218C154.805 10.1053 154.215 9.906 153.808 9.62C153.401 9.334 153.197 8.905 153.197 8.333ZM159.766 9.763C159.766 8.81833 160.065 8.02533 160.663 7.384C161.261 6.74267 162.02 6.422 162.938 6.422C163.866 6.422 164.615 6.72533 165.187 7.332C165.768 7.93867 166.058 8.71 166.058 9.646V10.257H161.04C161.075 10.829 161.279 11.284 161.651 11.622C162.024 11.9513 162.496 12.116 163.068 12.116C163.9 12.116 164.507 11.7347 164.888 10.972L165.915 11.557C165.248 12.6403 164.308 13.182 163.094 13.182C162.115 13.182 161.313 12.857 160.689 12.207C160.074 11.5483 159.766 10.7337 159.766 9.763ZM161.04 9.269H164.784C164.767 8.723 164.594 8.28967 164.264 7.969C163.935 7.64833 163.493 7.488 162.938 7.488C162.384 7.488 161.937 7.644 161.599 7.956C161.27 8.268 161.084 8.70567 161.04 9.269Z" fill="white"/>
<path d="M104.159 91.4016C103.308 91.4016 102.458 91.1776 101.7 90.7295L81.3753 78.7158C80.2573 78.0547 79.4667 76.9973 79.149 75.7383C78.8314 74.4794 79.0253 73.1734 79.6954 72.0613L100.019 38.3381C100.902 36.874 102.449 36 104.159 36H104.16C105.869 36.0004 107.416 36.8746 108.298 38.3388L111.712 44.0032C112.572 45.4303 112.112 47.2844 110.685 48.1445C109.259 49.0042 107.405 48.5452 106.544 47.1179L104.159 43.1598L85.4887 74.1382L104.159 85.1737L125.447 72.5898C126.882 71.7417 128.732 72.2175 129.58 73.6516C130.428 75.086 129.952 76.9361 128.518 77.784L106.618 90.7292C105.859 91.1774 105.009 91.4016 104.159 91.4016Z" fill="url(#paint0_linear_1_9583)"/>
<path d="M106.695 76.5915C105.978 76.5915 105.265 76.336 104.7 75.8382C103.721 74.9752 103.407 73.5799 103.924 72.3809L108.453 61.8681L102.731 65.2092C101.293 66.0495 99.445 65.5642 98.604 64.1253C97.764 62.6863 98.2493 60.8388 99.6882 59.9987L113.331 52.0324C114.456 51.3753 115.876 51.5148 116.852 52.3786C117.828 53.2421 118.139 54.6346 117.623 55.8313L113.123 66.2787L120.302 62.0424C121.735 61.1956 123.586 61.6723 124.434 63.1075C125.28 64.5425 124.803 66.3922 123.368 67.239L108.228 76.1728C107.752 76.4537 107.222 76.5915 106.695 76.5915Z" fill="url(#paint1_linear_1_9583)"/>
<path d="M63.7774 61.0003C62.4848 60.9918 61.205 61.2555 60.0209 61.7743C59.361 62.0688 58.8257 62.5863 58.5091 63.236V61.3867H57.0465V61.389H55.3836V75.3902H58.4949V68.3896C58.4949 65.8125 60.8461 63.7228 63.7448 63.7228C65.6779 63.7228 67.2448 65.4642 67.2448 67.6121V75.3902H70.3558V67.632C70.3589 65.8815 69.6684 64.201 68.4356 62.9583C67.2027 61.7155 65.5278 61.0115 63.7774 61.0003Z" fill="white"/>
<path d="M50.3399 61.3892V68.3898C50.3399 70.9669 47.9887 73.0566 45.0903 73.0566C43.1569 73.0566 41.59 71.3152 41.59 69.1672V61.3892H38.4788V69.1473C38.476 70.8979 39.1666 72.5782 40.3994 73.821C41.6322 75.0637 43.3069 75.7678 45.0574 75.7791C46.35 75.7875 47.6298 75.5238 48.8138 75.0051C49.4743 74.71 50.0097 74.192 50.3266 73.5417V75.3904H53.4511V61.3892H50.3399Z" fill="white"/>
<path d="M23.9737 62.8985V64.1411H32.44L23.9737 72.5589V75.3729H36.8336V72.5589H36.0602V72.5586H28.5232L28.9859 72.0264C29.0162 71.9945 29.0462 71.9623 29.0753 71.929L30.035 70.9729L36.8336 64.0112V61.3905H23.9737V62.8985Z" fill="white"/>
<path fill-rule="evenodd" clip-rule="evenodd" d="M32.3975 85C15.0005 85 0.897461 99.103 0.897461 116.5C0.897461 133.897 15.0005 148 32.3975 148H101.883C119.28 148 133.383 133.897 133.383 116.5C133.383 99.103 119.28 85 101.883 85H32.3975ZM68.286 120.338V124.654C68.286 125.911 69.6465 126.931 71.3219 126.931H75.1166V132.244H71.3219C66.2928 132.244 62.2147 128.846 62.2147 124.654V108.796H60.6984V108.717H60.6971V104.164H60.6984V104.161H62.2147V95.057H68.286V95.0866H68.4554L68.3945 104.161H74.4073V108.796H68.3634L68.286 120.338ZM94.3706 103.604C91.6877 103.595 89.0447 104.073 86.9085 105.142C86.0262 105.533 84.6277 106.702 83.9405 107.982V95.0343H77.6665V132.253H83.9405V117.259C84.5143 112.621 88.9374 109.012 94.3062 109.012C98.1469 109.012 101.26 112.472 101.26 116.739V132.192H107.441V116.78C107.441 109.544 101.606 103.628 94.3706 103.604ZM26.8391 117.833C26.8391 109.869 34.1455 103.412 43.1588 103.412C51.2931 103.412 58.039 108.672 59.2735 115.556C59.4072 116.297 59.4757 117.058 59.4757 117.833C59.4757 118.609 59.4072 119.37 59.2735 120.11H33.2326C34.3723 124.039 38.3838 126.941 43.1588 126.941C46.1923 126.941 48.9188 125.769 50.795 123.905H57.9617C55.3694 128.836 49.7162 132.254 43.1588 132.254C34.1455 132.254 26.8391 125.798 26.8391 117.833ZM53.0608 115.488C51.8946 111.594 47.9031 108.725 43.1588 108.725C39.148 108.725 35.6789 110.774 33.9952 113.758C33.7124 114.334 33.4636 115.017 33.4636 115.488H53.0608Z" fill="white"/>
<path d="M162.626 96.1226C161.393 95.3422 159.718 95.2382 157.823 94.8589C155.975 94.4895 154.411 94.1797 154.411 93.3429C154.411 92.5058 155.939 91.8267 157.823 91.8267C159.707 91.8267 161.234 92.5058 161.234 93.3429H164.266C164.266 91.0405 161.382 89.1734 157.823 89.1734C154.264 89.1734 151.379 91.0405 151.379 93.3429C151.379 94.4102 152 95.3846 153.019 96.1226C154.199 96.9756 155.95 97.1378 157.823 97.5125C159.718 97.8915 161.613 98.2765 161.613 99.2175C161.613 100.159 159.916 100.924 157.823 100.924C155.729 100.924 154.032 100.159 154.032 99.2175C154.032 99.1538 154.04 99.0911 154.056 99.0285H151.007C151.002 99.0911 151 99.1538 151 99.2175C151 101.625 154.054 103.577 157.823 103.577C161.591 103.577 164.645 101.625 164.645 99.2175C164.645 98.0075 163.873 96.9118 162.626 96.1226Z" fill="white"/>
<path d="M169.265 99.7864V94.8002H169.266V91.8433H172.299V89.541H169.266V86.1367H169.265V85.0041H166.233V89.5524H165.475V91.8266H166.233V99.7864C166.233 101.88 168.27 103.577 170.782 103.577H172.677V100.924H170.782C169.945 100.924 169.265 100.414 169.265 99.7864Z" fill="white"/>
<path d="M185.938 89.5629H185.938V91.3801C185.622 90.723 185.079 90.2014 184.409 89.9098C183.327 89.4388 182.109 89.1734 180.821 89.1734C176.321 89.1734 172.672 92.3978 172.672 96.3752C172.672 100.353 175.557 103.577 179.116 103.577C182.674 103.577 185.559 100.692 185.559 97.1332H182.527C182.527 99.2266 181 100.924 179.116 100.924C177.232 100.924 175.704 98.887 175.704 96.3752C175.704 93.8634 177.996 91.8267 180.821 91.8267C183.641 91.8267 185.929 93.8555 185.938 96.3605V98.2264H185.938V103.198H188.971V89.5524H185.938V89.5629Z" fill="white"/>
<path d="M203.296 89.5485H199.184L198.775 89.8935L193.881 93.9935V85.0019H193.873V85H190.841V103.194H193.873V98.2264H193.881V97.4981L194.781 96.738L200.712 103.194H204.315L196.811 95.0244L203.296 89.5485Z" fill="white"/>
<path d="M208.157 89.5485H205.124V103.194H208.157V89.5485Z" fill="white"/>
<path d="M208.157 85.758H205.124V88.7902H208.157V85.758Z" fill="white"/>
<path d="M218.203 89.1734C216.887 89.169 215.643 89.4415 214.542 89.9278C213.894 90.2141 213.373 90.7269 213.063 91.3623V89.541H210.03V89.5524H210.022V103.198H210.03V103.202H213.063V96.1114C213.217 93.7224 215.446 91.8266 218.171 91.8266C220.055 91.8266 221.582 93.5238 221.582 95.6171V103.198H224.615V95.6371C224.615 92.0877 221.752 89.1857 218.203 89.1734Z" fill="white"/>
<path d="M238.967 89.541V91.3785C238.651 90.7221 238.108 90.2012 237.439 89.9097C236.356 89.4388 235.139 89.1736 233.85 89.1736C229.35 89.1736 225.702 92.398 225.702 96.3752C225.702 100.353 228.586 103.577 232.145 103.577C235.704 103.577 238.589 100.692 238.589 97.1334H235.556C235.556 99.2265 234.029 100.924 232.145 100.924C230.261 100.924 228.734 98.8869 228.734 96.3752C228.734 93.8636 231.025 91.8269 233.85 91.8269C236.65 91.8269 238.924 93.8253 238.967 96.304V100.474H238.968V100.924C238.968 103.435 236.676 105.472 233.851 105.472H229.113V108.125H233.851C238.351 108.125 242 104.901 242 100.924V89.541H238.967Z" fill="white"/>
<defs>
<linearGradient id="paint0_linear_1_9583" x1="101.096" y1="39.5905" x2="120.982" y2="84.334" gradientUnits="userSpaceOnUse">
<stop stop-color="#B3B3B3"/>
<stop offset="1" stop-color="white" stop-opacity="0"/>
</linearGradient>
<linearGradient id="paint1_linear_1_9583" x1="109.743" y1="53.239" x2="117.812" y2="74.2972" gradientUnits="userSpaceOnUse">
<stop stop-color="#B3B3B3"/>
<stop offset="1" stop-color="white" stop-opacity="0"/>
</linearGradient>
</defs>
</svg>
