<svg width="245" height="149" viewBox="0 0 245 149" fill="none" xmlns="http://www.w3.org/2000/svg">
<path d="M68.676 3.9H74.877V5.044L70.132 11.804H74.955V13H68.546V11.856L73.291 5.096H68.676V3.9ZM82.3155 13H81.1195V11.921H80.9375C80.5389 12.7097 79.8239 13.104 78.7925 13.104C78.0819 13.104 77.4882 12.8743 77.0115 12.415C76.5435 11.9557 76.3095 11.3057 76.3095 10.465V6.63H77.5315V10.361C77.5315 10.907 77.6702 11.323 77.9475 11.609C78.2335 11.895 78.6409 12.038 79.1695 12.038C79.7675 12.038 80.2355 11.856 80.5735 11.492C80.9202 11.128 81.0935 10.6167 81.0935 9.958V6.63H82.3155V13ZM84.1317 6.63H85.3277V7.709H85.5097C85.9083 6.92033 86.6233 6.526 87.6547 6.526C88.3653 6.526 88.9547 6.75567 89.4227 7.215C89.8993 7.67433 90.1377 8.32433 90.1377 9.165V13H88.9157V9.269C88.9157 8.723 88.7727 8.307 88.4867 8.021C88.2093 7.735 87.8063 7.592 87.2777 7.592C86.6797 7.592 86.2073 7.774 85.8607 8.138C85.5227 8.502 85.3537 9.01333 85.3537 9.672V13H84.1317V6.63ZM91.6678 8.307C91.9192 7.76967 92.3005 7.32767 92.8118 6.981C93.3318 6.62567 93.9602 6.448 94.6968 6.448C95.5548 6.448 96.2395 6.67767 96.7508 7.137C97.2622 7.59633 97.5178 8.21167 97.5178 8.983V13H96.3218V11.999H96.1398C95.9838 12.337 95.7195 12.6187 95.3468 12.844C94.9742 13.0693 94.4888 13.182 93.8908 13.182C93.1802 13.182 92.6082 13.0043 92.1748 12.649C91.7502 12.2937 91.5378 11.83 91.5378 11.258C91.5378 10.1227 92.3482 9.477 93.9688 9.321L96.3218 9.1V8.931C96.3218 8.49767 96.1745 8.15967 95.8798 7.917C95.5938 7.66567 95.1908 7.54 94.6708 7.54C93.7088 7.54 93.0588 7.956 92.7208 8.788L91.6678 8.307ZM92.7728 11.206C92.7728 11.5093 92.8898 11.7477 93.1238 11.921C93.3578 12.0857 93.6828 12.168 94.0988 12.168C94.8182 12.168 95.3685 11.9817 95.7498 11.609C96.1312 11.2277 96.3218 10.7467 96.3218 10.166V10.062L94.0988 10.27C93.2148 10.348 92.7728 10.66 92.7728 11.206ZM99.2645 6.63H100.46V7.462H100.642C101.015 6.838 101.596 6.526 102.384 6.526C103.182 6.526 103.771 6.88133 104.152 7.592H104.334C104.681 6.88133 105.296 6.526 106.18 6.526C106.77 6.526 107.277 6.721 107.701 7.111C108.126 7.501 108.338 8.01233 108.338 8.645V13H107.116V8.723C107.116 8.359 106.995 8.07733 106.752 7.878C106.51 7.67 106.193 7.566 105.803 7.566C105.387 7.566 105.049 7.69167 104.789 7.943C104.538 8.19433 104.412 8.554 104.412 9.022V13H103.19V8.723C103.19 8.359 103.078 8.07733 102.852 7.878C102.627 7.67 102.324 7.566 101.942 7.566C101.518 7.566 101.167 7.69167 100.889 7.943C100.621 8.19433 100.486 8.554 100.486 9.022V13H99.2645V6.63ZM109.99 5.369C109.799 5.17833 109.704 4.94867 109.704 4.68C109.704 4.41133 109.799 4.186 109.99 4.004C110.181 3.81333 110.415 3.718 110.692 3.718C110.969 3.718 111.203 3.81333 111.394 4.004C111.585 4.186 111.68 4.41133 111.68 4.68C111.68 4.94867 111.585 5.17833 111.394 5.369C111.203 5.551 110.969 5.642 110.692 5.642C110.415 5.642 110.181 5.551 109.99 5.369ZM111.303 6.63V13H110.081V6.63H111.303ZM117.025 3.9H118.325V9.932C118.325 11.3013 119.027 11.986 120.431 11.986C121.835 11.986 122.537 11.3013 122.537 9.932V3.9H123.837V9.932C123.837 10.9807 123.538 11.7867 122.94 12.35C122.351 12.9047 121.515 13.182 120.431 13.182C119.348 13.182 118.507 12.9047 117.909 12.35C117.32 11.7867 117.025 10.9807 117.025 9.932V3.9ZM125.658 6.63H126.854V7.709H127.036C127.435 6.92033 128.15 6.526 129.181 6.526C129.892 6.526 130.481 6.75567 130.949 7.215C131.426 7.67433 131.664 8.32433 131.664 9.165V13H130.442V9.269C130.442 8.723 130.299 8.307 130.013 8.021C129.736 7.735 129.333 7.592 128.804 7.592C128.206 7.592 127.734 7.774 127.387 8.138C127.049 8.502 126.88 9.01333 126.88 9.672V13H125.658V6.63ZM133.311 5.369C133.121 5.17833 133.025 4.94867 133.025 4.68C133.025 4.41133 133.121 4.186 133.311 4.004C133.502 3.81333 133.736 3.718 134.013 3.718C134.291 3.718 134.525 3.81333 134.715 4.004C134.906 4.186 135.001 4.41133 135.001 4.68C135.001 4.94867 134.906 5.17833 134.715 5.369C134.525 5.551 134.291 5.642 134.013 5.642C133.736 5.642 133.502 5.551 133.311 5.369ZM134.624 6.63V13H133.402V6.63H134.624ZM135.799 6.63H137.125L138.971 11.83H139.127L140.973 6.63H142.299L139.92 13H138.178L135.799 6.63ZM142.927 9.763C142.927 8.81833 143.226 8.02533 143.824 7.384C144.422 6.74267 145.18 6.422 146.099 6.422C147.026 6.422 147.776 6.72533 148.348 7.332C148.928 7.93867 149.219 8.71 149.219 9.646V10.257H144.201C144.235 10.829 144.439 11.284 144.812 11.622C145.184 11.9513 145.657 12.116 146.229 12.116C147.061 12.116 147.667 11.7347 148.049 10.972L149.076 11.557C148.408 12.6403 147.468 13.182 146.255 13.182C145.275 13.182 144.474 12.857 143.85 12.207C143.234 11.5483 142.927 10.7337 142.927 9.763ZM144.201 9.269H147.945C147.927 8.723 147.754 8.28967 147.425 7.969C147.095 7.64833 146.653 7.488 146.099 7.488C145.544 7.488 145.098 7.644 144.76 7.956C144.43 8.268 144.244 8.70567 144.201 9.269ZM151.736 6.63V7.67H151.918C152.152 6.95933 152.707 6.604 153.582 6.604H154.31V7.8H153.192C152.733 7.8 152.382 7.93 152.139 8.19C151.905 8.44133 151.788 8.80533 151.788 9.282V13H150.566V6.63H151.736ZM155.197 8.333C155.197 7.75233 155.431 7.293 155.899 6.955C156.367 6.617 156.943 6.448 157.628 6.448C158.261 6.448 158.815 6.578 159.292 6.838C159.777 7.08933 160.276 7.501 160.787 8.073L159.877 8.723C159.227 7.88233 158.486 7.462 157.654 7.462C157.29 7.462 156.991 7.54 156.757 7.696C156.523 7.84333 156.406 8.05133 156.406 8.32C156.406 8.46733 156.436 8.58867 156.497 8.684C156.558 8.77933 156.666 8.85733 156.822 8.918C156.987 8.97 157.112 9.009 157.199 9.035C157.294 9.05233 157.468 9.07833 157.719 9.113L158.252 9.191C159.093 9.31233 159.73 9.50733 160.163 9.776C160.605 10.036 160.826 10.4693 160.826 11.076C160.826 11.7087 160.562 12.22 160.033 12.61C159.513 12.9913 158.841 13.182 158.018 13.182C157.195 13.182 156.51 12.9913 155.964 12.61C155.418 12.22 154.998 11.7433 154.703 11.18L155.795 10.595C155.994 11.0803 156.293 11.4617 156.692 11.739C157.091 12.0077 157.546 12.142 158.057 12.142C158.516 12.142 158.889 12.051 159.175 11.869C159.47 11.6783 159.617 11.427 159.617 11.115C159.617 11.0457 159.608 10.9807 159.591 10.92C159.574 10.8593 159.543 10.8073 159.5 10.764C159.457 10.712 159.418 10.6687 159.383 10.634C159.348 10.5993 159.292 10.569 159.214 10.543C159.136 10.5083 159.071 10.4823 159.019 10.465C158.976 10.4477 158.902 10.4303 158.798 10.413C158.694 10.387 158.62 10.3697 158.577 10.361C158.534 10.3523 158.451 10.3437 158.33 10.335C158.217 10.3177 158.144 10.3047 158.109 10.296L157.576 10.218C156.805 10.1053 156.215 9.906 155.808 9.62C155.401 9.334 155.197 8.905 155.197 8.333ZM161.766 9.763C161.766 8.81833 162.065 8.02533 162.663 7.384C163.261 6.74267 164.02 6.422 164.938 6.422C165.866 6.422 166.615 6.72533 167.187 7.332C167.768 7.93867 168.058 8.71 168.058 9.646V10.257H163.04C163.075 10.829 163.279 11.284 163.651 11.622C164.024 11.9513 164.496 12.116 165.068 12.116C165.9 12.116 166.507 11.7347 166.888 10.972L167.915 11.557C167.248 12.6403 166.308 13.182 165.094 13.182C164.115 13.182 163.313 12.857 162.689 12.207C162.074 11.5483 161.766 10.7337 161.766 9.763ZM163.04 9.269H166.784C166.767 8.723 166.594 8.28967 166.264 7.969C165.935 7.64833 165.493 7.488 164.938 7.488C164.384 7.488 163.937 7.644 163.599 7.956C163.27 8.268 163.084 8.70567 163.04 9.269Z" fill="white"/>
<path d="M127.604 71.9998C126.761 70.4568 124.849 69.9014 123.333 70.7581L110.994 77.7319L105.093 66.2598L114.239 43.978C114.752 42.7301 114.436 41.2889 113.451 40.38C112.466 39.4716 111.026 39.2917 109.854 39.9314L95.5662 47.7376L91.9543 40.7153C91.15 39.1521 89.251 38.5456 87.715 39.3655C86.1779 40.1836 85.584 42.1145 86.3882 43.6782L90.0315 50.7615L80.6553 55.8841C79.1272 56.7193 78.5538 58.6566 79.3742 60.2112C80.1952 61.7656 82.0982 62.3489 83.628 61.5148L92.9444 56.4248L98.1599 66.5649L87.8946 91.5733C87.3793 92.8289 87.7022 94.2791 88.6994 95.1864C89.2889 95.7231 90.0379 96 90.7936 96C91.3157 96 91.8411 95.8678 92.3185 95.598L108.414 86.5011L110.721 90.9854C111.282 92.0762 112.375 92.7001 113.506 92.7001C113.997 92.7001 114.495 92.5829 114.96 92.3352C116.497 91.5171 117.091 89.5863 116.287 88.0225L113.907 83.3965L126.384 76.3452C127.9 75.4878 128.447 73.5426 127.604 71.9998ZM98.4791 53.4009L105.033 49.8198L101.307 58.8986L98.4791 53.4009ZM97.179 85.5397L101.946 73.9262L105.501 80.8366L97.179 85.5397Z" fill="url(#paint0_linear_1_9582)"/>
<path fill-rule="evenodd" clip-rule="evenodd" d="M31.5395 85.2632C14.1207 85.2632 0 99.3839 0 116.803C0 134.221 14.1207 148.342 31.5395 148.342H109.461C126.879 148.342 141 134.221 141 116.803C141 99.3839 126.879 85.2632 109.461 85.2632H31.5395ZM72.1773 116.031C74.8005 116.476 77.1171 116.87 78.9379 118.022C81.3631 119.557 82.8646 121.687 82.8646 124.04C82.8646 128.721 76.9261 132.516 69.5999 132.516C62.2732 132.516 56.3346 128.721 56.3346 124.04C56.3346 123.916 56.3383 123.794 56.3485 123.672H62.2753C62.246 123.794 62.23 123.916 62.23 124.04C62.23 125.871 65.5297 127.357 69.5999 127.357C73.6694 127.357 76.969 125.871 76.969 124.04C76.969 122.21 73.284 121.462 69.5999 120.725C68.8958 120.584 68.2005 120.458 67.5203 120.336L67.5201 120.336L67.5198 120.336C64.6837 119.824 62.1109 119.36 60.2609 118.022C58.2781 116.588 57.0714 114.693 57.0714 112.618C57.0714 108.141 62.6803 104.511 69.5999 104.511C76.519 104.511 82.1276 108.141 82.1276 112.618H76.232C76.232 110.991 73.2627 109.67 69.5999 109.67C65.9368 109.67 62.9668 110.991 62.9668 112.618C62.9668 114.24 65.9864 114.843 69.5625 115.558L69.5999 115.566C70.4857 115.743 71.3469 115.889 72.1773 116.031ZM48.6543 118.511C48.6543 123.398 44.1582 127.359 38.6161 127.359C34.9192 127.359 31.923 124.058 31.923 119.985V105.239H25.9738V119.948C25.9685 123.267 27.2889 126.452 29.6462 128.809C32.0036 131.165 35.206 132.5 38.5532 132.521C41.0247 132.537 43.4721 132.037 45.736 131.054C46.9875 130.448 48.0335 129.568 48.6392 128.259V131.773H48.6543V131.784H54.6034V105.239H48.6543L48.6543 118.511ZM110.005 96.3959V96.3949H115.954V131.783H110.006V118.512C110.006 113.627 105.512 109.665 99.9673 109.665C94.4252 109.665 89.9299 113.627 89.9299 118.512C89.9299 123.398 92.9256 127.359 96.6216 127.359C100.317 127.359 103.313 124.058 103.313 119.986H109.262C109.262 121.632 108.935 123.262 108.3 124.782C107.665 126.303 106.734 127.685 105.56 128.849C104.387 130.013 102.994 130.936 101.46 131.566C99.9259 132.196 98.2823 132.52 96.6216 132.52C89.6402 132.52 83.9815 126.248 83.9815 118.512C83.9815 110.775 91.1391 104.505 99.9673 104.505C102.351 104.527 104.703 105.045 106.872 106.025C108.185 106.586 109.282 107.552 109.997 108.78V96.3959H110.005Z" fill="white"/>
<path d="M67.4013 63.0002C65.9919 62.991 64.5965 63.2785 63.3054 63.8442C62.5858 64.1653 62.0021 64.7296 61.6569 65.438V63.4215H60.0621V63.4241H58.2489V78.6907H61.6414V71.0574C61.6414 68.2473 64.2051 65.9688 67.3659 65.9688C69.4736 65.9688 71.1821 67.8676 71.1821 70.2097V78.6907H74.5744V70.2313C74.5777 68.3226 73.8249 66.4903 72.4806 65.1352C71.1363 63.78 69.31 63.0124 67.4013 63.0002Z" fill="white"/>
<path d="M52.7493 63.4244V71.0577C52.7493 73.8678 50.1856 76.1463 47.0253 76.1463C44.9172 76.1463 43.2086 74.2475 43.2086 71.9054V63.4244H39.8162V71.8838C39.8132 73.7925 40.5661 75.6247 41.9104 76.9798C43.2546 78.3349 45.0807 79.1026 46.9894 79.1149C48.3988 79.1241 49.7942 78.8365 51.0853 78.2709C51.8055 77.9492 52.3893 77.3843 52.7348 76.6753V78.691H56.1418V63.4244H52.7493Z" fill="white"/>
<path d="M24 65.0702V66.4251H33.2315L24 75.6037V78.6721H38.0222V75.6037H37.1789V75.6034H28.9607L29.4652 75.0231C29.4983 74.9883 29.531 74.9531 29.5627 74.9169L30.6092 73.8744L38.0222 66.2834V63.4259H24V65.0702Z" fill="white"/>
<path d="M165.626 96.1226C164.393 95.3422 162.718 95.2382 160.823 94.8589C158.975 94.4895 157.411 94.1797 157.411 93.3429C157.411 92.5058 158.939 91.8267 160.823 91.8267C162.707 91.8267 164.234 92.5058 164.234 93.3429H167.266C167.266 91.0405 164.382 89.1734 160.823 89.1734C157.264 89.1734 154.379 91.0405 154.379 93.3429C154.379 94.4102 155 95.3846 156.019 96.1226C157.199 96.9756 158.95 97.1378 160.823 97.5125C162.718 97.8915 164.613 98.2765 164.613 99.2175C164.613 100.159 162.916 100.924 160.823 100.924C158.729 100.924 157.032 100.159 157.032 99.2175C157.032 99.1538 157.04 99.0911 157.056 99.0285H154.007C154.002 99.0911 154 99.1538 154 99.2175C154 101.625 157.054 103.577 160.823 103.577C164.591 103.577 167.645 101.625 167.645 99.2175C167.645 98.0075 166.873 96.9118 165.626 96.1226Z" fill="white"/>
<path d="M172.265 99.7864V94.8002H172.266V91.8433H175.299V89.541H172.266V86.1367H172.265V85.0041H169.233V89.5524H168.475V91.8266H169.233V99.7864C169.233 101.88 171.27 103.577 173.782 103.577H175.677V100.924H173.782C172.945 100.924 172.265 100.414 172.265 99.7864Z" fill="white"/>
<path d="M188.938 89.5629H188.938V91.3801C188.622 90.723 188.079 90.2014 187.409 89.9098C186.327 89.4388 185.109 89.1734 183.821 89.1734C179.321 89.1734 175.672 92.3978 175.672 96.3752C175.672 100.353 178.557 103.577 182.116 103.577C185.674 103.577 188.559 100.692 188.559 97.1332H185.527C185.527 99.2266 184 100.924 182.116 100.924C180.232 100.924 178.704 98.887 178.704 96.3752C178.704 93.8634 180.996 91.8267 183.821 91.8267C186.641 91.8267 188.929 93.8555 188.938 96.3605V98.2264H188.938V103.198H191.971V89.5524H188.938V89.5629Z" fill="white"/>
<path d="M206.296 89.5485H202.184L201.775 89.8935L196.881 93.9935V85.0019H196.873V85H193.841V103.194H196.873V98.2264H196.881V97.4981L197.781 96.738L203.712 103.194H207.315L199.811 95.0244L206.296 89.5485Z" fill="white"/>
<path d="M211.157 89.5485H208.124V103.194H211.157V89.5485Z" fill="white"/>
<path d="M211.157 85.758H208.124V88.7902H211.157V85.758Z" fill="white"/>
<path d="M221.203 89.1734C219.887 89.169 218.643 89.4415 217.542 89.9278C216.894 90.2141 216.373 90.7269 216.063 91.3623V89.541H213.03V89.5524H213.022V103.198H213.03V103.202H216.063V96.1114C216.217 93.7224 218.446 91.8266 221.171 91.8266C223.055 91.8266 224.582 93.5238 224.582 95.6171V103.198H227.615V95.6371C227.615 92.0877 224.752 89.1857 221.203 89.1734Z" fill="white"/>
<path d="M241.967 89.541V91.3785C241.651 90.7221 241.108 90.2012 240.439 89.9097C239.356 89.4388 238.139 89.1736 236.85 89.1736C232.35 89.1736 228.702 92.398 228.702 96.3752C228.702 100.353 231.586 103.577 235.145 103.577C238.704 103.577 241.589 100.692 241.589 97.1334H238.556C238.556 99.2265 237.029 100.924 235.145 100.924C233.261 100.924 231.734 98.8869 231.734 96.3752C231.734 93.8636 234.025 91.8269 236.85 91.8269C239.65 91.8269 241.924 93.8253 241.967 96.304V100.474H241.968V100.924C241.968 103.435 239.676 105.472 236.851 105.472H232.113V108.125H236.851C241.351 108.125 245 104.901 245 100.924V89.541H241.967Z" fill="white"/>
<defs>
<linearGradient id="paint0_linear_1_9582" x1="90.049" y1="43.8718" x2="114.651" y2="88.7073" gradientUnits="userSpaceOnUse">
<stop stop-color="white" stop-opacity="0.66"/>
<stop offset="1" stop-color="white" stop-opacity="0"/>
</linearGradient>
</defs>
</svg>
