<svg width="254" height="136" viewBox="0 0 254 136" fill="none" xmlns="http://www.w3.org/2000/svg">
<path d="M73.624 13V11.18L78.408 5.343V5.161H73.767V3.9H79.851V5.72L75.067 11.557V11.739H79.903V13H73.624ZM83.8845 13.117C83.3991 13.117 82.9658 13.0087 82.5845 12.792C82.2031 12.5753 81.9041 12.2677 81.6875 11.869C81.4708 11.4703 81.3625 10.9937 81.3625 10.439V6.591H82.7015V10.348C82.7015 10.9027 82.8401 11.3143 83.1175 11.583C83.3948 11.843 83.7805 11.973 84.2745 11.973C84.8205 11.973 85.2581 11.791 85.5875 11.427C85.9255 11.0543 86.0945 10.5213 86.0945 9.828V6.591H87.4335V13H86.1205V12.038H85.9125C85.7911 12.298 85.5745 12.545 85.2625 12.779C84.9505 13.0043 84.4911 13.117 83.8845 13.117ZM89.4128 13V6.591H90.7258V7.553H90.9338C91.0551 7.293 91.2718 7.05033 91.5838 6.825C91.8958 6.59967 92.3595 6.487 92.9748 6.487C93.4601 6.487 93.8891 6.59533 94.2618 6.812C94.6431 7.02867 94.9421 7.33633 95.1588 7.735C95.3755 8.125 95.4838 8.59733 95.4838 9.152V13H94.1448V9.256C94.1448 8.70133 94.0061 8.294 93.7288 8.034C93.4515 7.76533 93.0701 7.631 92.5848 7.631C92.0301 7.631 91.5838 7.813 91.2458 8.177C90.9165 8.541 90.7518 9.06967 90.7518 9.763V13H89.4128ZM99.3999 13.182C98.9405 13.182 98.5289 13.104 98.1649 12.948C97.8095 12.792 97.5235 12.5623 97.3069 12.259C97.0989 11.9557 96.9949 11.5873 96.9949 11.154C96.9949 10.712 97.0989 10.348 97.3069 10.062C97.5235 9.76733 97.8139 9.54633 98.1779 9.399C98.5505 9.25167 98.9709 9.178 99.4389 9.178H101.389V8.762C101.389 8.38933 101.276 8.09033 101.051 7.865C100.826 7.63967 100.479 7.527 100.011 7.527C99.5515 7.527 99.2005 7.63533 98.9579 7.852C98.7152 8.06867 98.5549 8.35033 98.4769 8.697L97.2289 8.294C97.3329 7.94733 97.4975 7.63533 97.7229 7.358C97.9569 7.072 98.2645 6.84233 98.6459 6.669C99.0272 6.49567 99.4865 6.409 100.024 6.409C100.856 6.409 101.51 6.62133 101.987 7.046C102.464 7.47067 102.702 8.073 102.702 8.853V11.492C102.702 11.752 102.823 11.882 103.066 11.882H103.612V13H102.611C102.308 13 102.061 12.922 101.87 12.766C101.679 12.61 101.584 12.3977 101.584 12.129V12.09H101.389C101.32 12.22 101.216 12.3717 101.077 12.545C100.938 12.7183 100.735 12.87 100.466 13C100.197 13.1213 99.8419 13.182 99.3999 13.182ZM99.5949 12.077C100.132 12.077 100.566 11.9253 100.895 11.622C101.224 11.31 101.389 10.8853 101.389 10.348V10.218H99.5169C99.1615 10.218 98.8755 10.296 98.6589 10.452C98.4422 10.5993 98.3339 10.8203 98.3339 11.115C98.3339 11.4097 98.4465 11.6437 98.6719 11.817C98.8972 11.9903 99.2049 12.077 99.5949 12.077ZM104.914 13V6.591H106.227V7.345H106.435C106.556 7.11967 106.751 6.92033 107.02 6.747C107.288 6.57367 107.652 6.487 108.112 6.487C108.588 6.487 108.97 6.58667 109.256 6.786C109.55 6.97667 109.771 7.22367 109.919 7.527H110.127C110.274 7.23233 110.486 6.98533 110.764 6.786C111.05 6.58667 111.453 6.487 111.973 6.487C112.389 6.487 112.757 6.57367 113.078 6.747C113.398 6.91167 113.654 7.163 113.845 7.501C114.035 7.83033 114.131 8.242 114.131 8.736V13H112.792V8.84C112.792 8.45 112.683 8.151 112.467 7.943C112.259 7.72633 111.96 7.618 111.57 7.618C111.154 7.618 110.82 7.75233 110.569 8.021C110.317 8.28967 110.192 8.67533 110.192 9.178V13H108.853V8.84C108.853 8.45 108.744 8.151 108.528 7.943C108.32 7.72633 108.021 7.618 107.631 7.618C107.215 7.618 106.881 7.75233 106.63 8.021C106.378 8.28967 106.253 8.67533 106.253 9.178V13H104.914ZM116.06 13V6.591H117.399V13H116.06ZM116.736 5.72C116.476 5.72 116.255 5.63767 116.073 5.473C115.9 5.29967 115.813 5.07867 115.813 4.81C115.813 4.54133 115.9 4.32467 116.073 4.16C116.255 3.98667 116.476 3.9 116.736 3.9C117.005 3.9 117.226 3.98667 117.399 4.16C117.573 4.32467 117.659 4.54133 117.659 4.81C117.659 5.07867 117.573 5.29967 117.399 5.473C117.226 5.63767 117.005 5.72 116.736 5.72ZM126.067 13.182C125.348 13.182 124.728 13.052 124.208 12.792C123.697 12.532 123.298 12.1593 123.012 11.674C122.735 11.18 122.596 10.582 122.596 9.88V3.9H124.013V9.919C124.013 10.5603 124.191 11.0543 124.546 11.401C124.901 11.7477 125.408 11.921 126.067 11.921C126.726 11.921 127.233 11.7477 127.588 11.401C127.943 11.0543 128.121 10.5603 128.121 9.919V3.9H129.525V9.88C129.525 10.582 129.386 11.18 129.109 11.674C128.832 12.1593 128.433 12.532 127.913 12.792C127.393 13.052 126.778 13.182 126.067 13.182ZM131.396 13V6.591H132.709V7.553H132.917C133.039 7.293 133.255 7.05033 133.567 6.825C133.879 6.59967 134.343 6.487 134.958 6.487C135.444 6.487 135.873 6.59533 136.245 6.812C136.627 7.02867 136.926 7.33633 137.142 7.735C137.359 8.125 137.467 8.59733 137.467 9.152V13H136.128V9.256C136.128 8.70133 135.99 8.294 135.712 8.034C135.435 7.76533 135.054 7.631 134.568 7.631C134.014 7.631 133.567 7.813 133.229 8.177C132.9 8.541 132.735 9.06967 132.735 9.763V13H131.396ZM139.394 13V6.591H140.733V13H139.394ZM140.07 5.72C139.81 5.72 139.589 5.63767 139.407 5.473C139.234 5.29967 139.147 5.07867 139.147 4.81C139.147 4.54133 139.234 4.32467 139.407 4.16C139.589 3.98667 139.81 3.9 140.07 3.9C140.339 3.9 140.56 3.98667 140.733 4.16C140.907 4.32467 140.993 4.54133 140.993 4.81C140.993 5.07867 140.907 5.29967 140.733 5.473C140.56 5.63767 140.339 5.72 140.07 5.72ZM144.202 13L142.044 6.591H143.461L145.164 12.012H145.372L147.075 6.591H148.492L146.334 13H144.202ZM152.501 13.182C151.851 13.182 151.284 13.0477 150.798 12.779C150.313 12.5017 149.932 12.116 149.654 11.622C149.386 11.1193 149.251 10.5387 149.251 9.88V9.724C149.251 9.05667 149.386 8.476 149.654 7.982C149.923 7.47933 150.296 7.09367 150.772 6.825C151.258 6.54767 151.817 6.409 152.449 6.409C153.065 6.409 153.602 6.54767 154.061 6.825C154.529 7.09367 154.893 7.47067 155.153 7.956C155.413 8.44133 155.543 9.009 155.543 9.659V10.166H150.616C150.634 10.7293 150.82 11.18 151.175 11.518C151.539 11.8473 151.99 12.012 152.527 12.012C153.03 12.012 153.407 11.8993 153.658 11.674C153.918 11.4487 154.118 11.1887 154.256 10.894L155.361 11.466C155.24 11.7087 155.062 11.9643 154.828 12.233C154.603 12.5017 154.304 12.727 153.931 12.909C153.559 13.091 153.082 13.182 152.501 13.182ZM150.629 9.139H154.178C154.144 8.65367 153.97 8.27667 153.658 8.008C153.346 7.73067 152.939 7.592 152.436 7.592C151.934 7.592 151.522 7.73067 151.201 8.008C150.889 8.27667 150.699 8.65367 150.629 9.139ZM157.155 13V6.591H158.468V7.345H158.676C158.78 7.07633 158.945 6.88133 159.17 6.76C159.404 6.63 159.69 6.565 160.028 6.565H160.795V7.774H159.976C159.543 7.774 159.187 7.89533 158.91 8.138C158.633 8.372 158.494 8.736 158.494 9.23V13H157.155ZM164.669 13.182C163.854 13.182 163.178 13 162.641 12.636C162.103 12.272 161.774 11.7217 161.653 10.985L162.901 10.686C162.97 11.0413 163.087 11.323 163.252 11.531C163.416 11.739 163.62 11.8863 163.863 11.973C164.114 12.0597 164.383 12.103 164.669 12.103C165.093 12.103 165.418 12.0207 165.644 11.856C165.878 11.6913 165.995 11.479 165.995 11.219C165.995 10.959 165.886 10.7683 165.67 10.647C165.453 10.5257 165.132 10.426 164.708 10.348L164.266 10.27C163.832 10.192 163.438 10.0793 163.083 9.932C162.727 9.78467 162.446 9.581 162.238 9.321C162.03 9.061 161.926 8.72733 161.926 8.32C161.926 7.71333 162.151 7.24533 162.602 6.916C163.052 6.578 163.65 6.409 164.396 6.409C165.115 6.409 165.704 6.57367 166.164 6.903C166.632 7.22367 166.935 7.66133 167.074 8.216L165.826 8.567C165.748 8.177 165.583 7.904 165.332 7.748C165.08 7.58333 164.768 7.501 164.396 7.501C164.032 7.501 163.746 7.57033 163.538 7.709C163.33 7.839 163.226 8.02533 163.226 8.268C163.226 8.528 163.325 8.71867 163.525 8.84C163.733 8.96133 164.01 9.05233 164.357 9.113L164.812 9.191C165.271 9.269 165.691 9.37733 166.073 9.516C166.454 9.65467 166.753 9.854 166.97 10.114C167.195 10.374 167.308 10.7207 167.308 11.154C167.308 11.7953 167.069 12.2937 166.593 12.649C166.116 13.0043 165.475 13.182 164.669 13.182ZM171.811 13.182C171.161 13.182 170.593 13.0477 170.108 12.779C169.622 12.5017 169.241 12.116 168.964 11.622C168.695 11.1193 168.561 10.5387 168.561 9.88V9.724C168.561 9.05667 168.695 8.476 168.964 7.982C169.232 7.47933 169.605 7.09367 170.082 6.825C170.567 6.54767 171.126 6.409 171.759 6.409C172.374 6.409 172.911 6.54767 173.371 6.825C173.839 7.09367 174.203 7.47067 174.463 7.956C174.723 8.44133 174.853 9.009 174.853 9.659V10.166H169.926C169.943 10.7293 170.129 11.18 170.485 11.518C170.849 11.8473 171.299 12.012 171.837 12.012C172.339 12.012 172.716 11.8993 172.968 11.674C173.228 11.4487 173.427 11.1887 173.566 10.894L174.671 11.466C174.549 11.7087 174.372 11.9643 174.138 12.233C173.912 12.5017 173.613 12.727 173.241 12.909C172.868 13.091 172.391 13.182 171.811 13.182ZM169.939 9.139H173.488C173.453 8.65367 173.28 8.27667 172.968 8.008C172.656 7.73067 172.248 7.592 171.746 7.592C171.243 7.592 170.831 7.73067 170.511 8.008C170.199 8.27667 170.008 8.65367 169.939 9.139Z" fill="white"/>
<path d="M113.568 113.253C111.387 111.872 108.424 111.688 105.071 111.017C101.802 110.364 99.0351 109.816 99.0351 108.335C99.0351 106.854 101.738 105.653 105.071 105.653C108.404 105.653 111.106 106.854 111.106 108.335H116.471C116.471 104.262 111.367 100.958 105.071 100.958C98.7744 100.958 93.6707 104.262 93.6707 108.335C93.6707 110.223 94.7685 111.947 96.5728 113.253C98.66 114.762 101.759 115.049 105.071 115.712C108.424 116.383 111.777 117.064 111.777 118.729C111.777 120.395 108.774 121.747 105.071 121.747C101.368 121.747 98.3649 120.395 98.3649 118.729C98.3649 118.616 98.3792 118.505 98.4061 118.394H93.0126C93.0034 118.505 93 118.616 93 118.729C93 122.988 98.404 126.442 105.071 126.442C111.738 126.442 117.142 122.988 117.142 118.729C117.142 116.588 115.776 114.649 113.568 113.253Z" fill="white"/>
<path d="M125.315 119.735V110.914H125.316V105.682H130.683V101.609H125.316V95.5857H125.315V93.5819H119.951V101.629H118.61V105.653H119.951V119.735C119.951 123.439 123.554 126.442 127.998 126.442H131.351V121.747H127.998C126.518 121.747 125.315 120.846 125.315 119.735Z" fill="white"/>
<path d="M154.814 101.647H154.813V104.863C154.255 103.7 153.294 102.777 152.108 102.261C150.193 101.428 148.039 100.958 145.76 100.958C137.798 100.958 131.343 106.663 131.343 113.7C131.343 120.737 136.446 126.442 142.743 126.442C149.039 126.442 154.143 121.338 154.143 115.041H148.779C148.779 118.745 146.077 121.747 142.743 121.747C139.41 121.747 136.708 118.144 136.708 113.7C136.708 109.256 140.762 105.653 145.76 105.653C150.75 105.653 154.798 109.242 154.813 113.674V116.975H154.814V125.771H160.179V101.629H154.814V101.647Z" fill="white"/>
<path d="M185.524 101.622H178.248L177.525 102.232L168.867 109.486V93.5781H168.853V93.5747H163.488V125.764H168.853V116.975H168.867V115.687L170.459 114.342L180.952 125.764H187.327L174.049 111.31L185.524 101.622Z" fill="white"/>
<path d="M194.123 101.622H188.758V125.764H194.123V101.622Z" fill="white"/>
<path d="M194.123 94.9157H188.758V100.28H194.123V94.9157Z" fill="white"/>
<path d="M211.897 100.958C209.568 100.951 207.369 101.433 205.42 102.293C204.273 102.8 203.352 103.707 202.804 104.831V101.609H197.438V101.629H197.424V125.771H197.438V125.778H202.804V113.233C203.076 109.007 207.019 105.653 211.841 105.653C215.174 105.653 217.876 108.655 217.876 112.359V125.771H223.241V112.394C223.241 106.114 218.177 100.98 211.897 100.958Z" fill="white"/>
<path d="M248.633 101.609V104.86C248.074 103.698 247.114 102.777 245.93 102.261C244.014 101.428 241.86 100.959 239.581 100.959C231.62 100.959 225.164 106.663 225.164 113.7C225.164 120.737 230.268 126.442 236.564 126.442C242.861 126.442 247.964 121.338 247.964 115.041H242.599C242.599 118.745 239.897 121.747 236.564 121.747C233.23 121.747 230.528 118.144 230.528 113.7C230.528 109.257 234.583 105.653 239.581 105.653C244.534 105.653 248.557 109.189 248.633 113.574V120.952H248.635V121.747C248.635 126.191 244.581 129.795 239.583 129.795H231.199V134.489H239.583C247.544 134.489 254 128.784 254 121.747V101.609H248.633Z" fill="white"/>
<path d="M136.401 67.0002C134.992 66.991 133.596 67.2785 132.305 67.8442C131.586 68.1653 131.002 68.7296 130.657 69.438V67.4215H129.062V67.4241H127.249V82.6907H130.641V75.0574C130.641 72.2473 133.205 69.9688 136.366 69.9688C138.474 69.9688 140.182 71.8676 140.182 74.2097V82.6907H143.574V74.2313C143.578 72.3226 142.825 70.4903 141.481 69.1352C140.136 67.78 138.31 67.0124 136.401 67.0002Z" fill="white"/>
<path d="M121.749 67.4244V75.0577C121.749 77.8678 119.186 80.1463 116.025 80.1463C113.917 80.1463 112.209 78.2475 112.209 75.9054V67.4244H108.816V75.8838C108.813 77.7925 109.566 79.6247 110.91 80.9798C112.255 82.3349 114.081 83.1026 115.989 83.1149C117.399 83.1241 118.794 82.8365 120.085 82.2709C120.806 81.9492 121.389 81.3843 121.735 80.6753V82.691H125.142V67.4244H121.749Z" fill="white"/>
<path d="M93 69.0702V70.4251H102.232L93 79.6037V82.6721H107.022V79.6037H106.179V79.6034H97.9607L98.4652 79.0231C98.4983 78.9883 98.531 78.9531 98.5627 78.9169L99.6092 77.8744L107.022 70.2834V67.4259H93V69.0702Z" fill="white"/>
<path fill-rule="evenodd" clip-rule="evenodd" d="M78 97C78 118.539 60.5391 136 39 136C17.4609 136 0 118.539 0 97C0 75.4609 17.4609 58 39 58C60.5391 58 78 75.4609 78 97ZM24.0609 108.896C28.3134 112.972 33.7813 115.105 39.9352 115.105C40.3304 115.105 40.7281 115.096 41.1284 115.079C49.0272 114.731 53.728 111.325 56.2805 108.528C59.5077 104.992 61.2851 100.31 61.2851 95.3425C61.2851 91.3424 59.8012 87.588 57.1066 84.771C55.7465 83.3433 54.1093 82.2088 52.2957 81.4372C50.4821 80.6656 48.5302 80.2732 46.5597 80.2839C43.191 80.292 39.9487 81.5697 37.4779 83.8626C35.4282 85.7863 32.9847 89.3455 32.9847 95.3779H42.5652C42.5652 92.7814 43.3614 91.4891 44.0293 90.8623C44.7238 90.2348 45.6243 89.8842 46.5597 89.8772C47.2373 89.8673 47.9093 89.998 48.5338 90.2613C49.1582 90.5246 49.7214 90.9146 50.1878 91.4067C51.1828 92.4727 51.7266 93.8835 51.7046 95.3425C51.7046 97.9083 50.8183 100.293 49.2087 102.056C47.2749 104.175 44.4148 105.332 40.7078 105.495C36.6856 105.672 33.3132 104.484 30.6849 101.966C28.9269 100.281 27.5392 98.0269 26.5602 95.2655C25.4594 92.1608 24.9013 88.4919 24.9013 84.3606H15.3208C15.3208 89.5883 16.0647 94.3371 17.5318 98.475C19.0158 102.661 21.2125 106.167 24.0609 108.896Z" fill="white"/>
</svg>
