<svg width="20" height="22" viewBox="0 0 20 22" fill="none" xmlns="http://www.w3.org/2000/svg">
<mask id="path-1-inside-1_74_1228" fill="white">
<path fill-rule="evenodd" clip-rule="evenodd" d="M19.5262 9.68187C19.4796 9.65056 19.4282 9.6243 19.3727 9.60422C19.2974 9.57741 19.2198 9.56327 19.1428 9.56095C18.9187 9.55366 18.7002 9.64554 18.5634 9.81593C16.7363 12.077 13.7983 13.4277 10.7088 13.4277C10.49 13.4277 10.2712 13.4211 10.0527 13.4076C9.43727 13.3695 8.99188 12.8348 8.99188 12.2183C8.99188 11.2997 8.41805 10.8883 7.84881 10.8883C7.47697 10.8883 7.10513 11.0545 6.74706 11.3745L2.84501 14.9074C1.98656 15.6846 1.98656 16.944 2.84501 17.7212L6.74706 21.254C7.10513 21.5782 7.47697 21.7403 7.84881 21.7403C8.41805 21.7403 8.99188 21.3289 8.99188 20.4103C8.99188 19.865 9.4197 19.4195 9.96044 19.3491C10.6479 19.2595 11.3171 19.1149 11.9622 18.9201C12.1337 18.9048 12.3088 18.8673 12.4853 18.8052C16.3646 17.4408 19.2709 14.2161 19.803 10.2597C19.8071 10.2286 19.8085 10.1976 19.8074 10.1669C19.8024 9.97612 19.6965 9.79576 19.5262 9.68187Z"/>
</mask>
<path d="M19.5262 9.68187L18.7454 10.8439L18.7479 10.8456L19.5262 9.68187ZM19.3727 9.60422L19.8491 8.28776L19.8425 8.28541L19.3727 9.60422ZM19.1428 9.56095L19.0973 10.9602L19.1007 10.9603L19.1428 9.56095ZM18.5634 9.81593L19.6523 10.6959L19.6548 10.6927L18.5634 9.81593ZM10.0527 13.4076L10.1391 12.0103L10.0527 13.4076ZM6.74706 11.3745L5.81408 10.3307L5.80742 10.3367L6.74706 11.3745ZM2.84501 14.9074L3.78464 15.9452H3.78464L2.84501 14.9074ZM2.84501 17.7212L3.78464 16.6834L2.84501 17.7212ZM6.74706 21.254L7.68669 20.2162L6.74706 21.254ZM9.96044 19.3491L9.77955 17.9608H9.77955L9.96044 19.3491ZM11.9622 18.9201L11.8376 17.5257L11.6948 17.5384L11.5576 17.5799L11.9622 18.9201ZM12.4853 18.8052L12.9498 20.1259H12.9498L12.4853 18.8052ZM19.803 10.2597L21.1906 10.4463L21.1912 10.4415L19.803 10.2597ZM19.8074 10.1669L18.4078 10.2035L18.4083 10.2173L19.8074 10.1669ZM20.307 8.5198C20.1654 8.42469 20.0118 8.34663 19.8491 8.28777L18.8963 10.9207C18.8446 10.902 18.7938 10.8764 18.7454 10.8439L20.307 8.5198ZM19.8425 8.28541C19.6269 8.20857 19.4047 8.1682 19.1849 8.16158L19.1007 10.9603C19.0349 10.9583 18.968 10.9462 18.9029 10.923L19.8425 8.28541ZM19.1883 8.16169C18.5683 8.14152 17.911 8.39253 17.4719 8.93918L19.6548 10.6927C19.4895 10.8985 19.2692 10.9658 19.0973 10.9602L19.1883 8.16169ZM17.4745 8.93601C15.9319 10.845 13.406 12.0277 10.7088 12.0277V14.8277C14.1905 14.8277 17.5407 13.3089 19.6523 10.6959L17.4745 8.93601ZM10.7088 12.0277C10.5183 12.0277 10.3284 12.022 10.1391 12.0103L9.9662 14.8049C10.214 14.8202 10.4616 14.8277 10.7088 14.8277V12.0277ZM10.1391 12.0103C10.2293 12.0158 10.3047 12.0618 10.3458 12.1087C10.3821 12.1503 10.3919 12.1904 10.3919 12.2183H7.59188C7.59188 13.4794 8.52129 14.7155 9.9662 14.8049L10.1391 12.0103ZM10.3919 12.2183C10.3919 11.4571 10.1465 10.7491 9.63077 10.2259C9.12575 9.71367 8.46742 9.48825 7.84881 9.48825V12.2883C7.79944 12.2883 7.71264 12.2686 7.63685 12.1917C7.60068 12.155 7.58558 12.1229 7.58192 12.1131C7.57896 12.1051 7.59188 12.1345 7.59188 12.2183H10.3919ZM7.84881 9.48825C7.03568 9.48825 6.34578 9.8555 5.8141 10.3307L7.68001 12.4184C7.77098 12.3371 7.83245 12.3035 7.85963 12.2915C7.88315 12.2811 7.87675 12.2883 7.84881 12.2883V9.48825ZM5.80742 10.3367L1.90538 13.8696L3.78464 15.9452L7.68669 12.4124L5.80742 10.3367ZM1.90538 13.8696C0.433104 15.2025 0.433104 17.4261 1.90538 18.759L3.78464 16.6834C3.64292 16.5551 3.60117 16.4205 3.60117 16.3143C3.60117 16.2081 3.64292 16.0735 3.78464 15.9452L1.90538 13.8696ZM1.90538 18.759L5.80742 22.2919L7.68669 20.2162L3.78464 16.6834L1.90538 18.759ZM5.80742 22.2919C6.34966 22.7828 7.04209 23.1403 7.84881 23.1403V20.3403C7.87169 20.3403 7.87705 20.3463 7.8566 20.3373C7.83255 20.3267 7.77427 20.2955 7.68669 20.2162L5.80742 22.2919ZM7.84881 23.1403C8.46742 23.1403 9.12575 22.9149 9.63077 22.4027C10.1465 21.8795 10.3919 21.1715 10.3919 20.4103H7.59188C7.59188 20.494 7.57896 20.5235 7.58192 20.5155C7.58558 20.5057 7.60068 20.4736 7.63685 20.4369C7.71264 20.36 7.79945 20.3403 7.84881 20.3403V23.1403ZM10.3919 20.4103C10.3919 20.5145 10.3488 20.6008 10.3002 20.6532C10.2547 20.7024 10.1985 20.7299 10.1413 20.7373L9.77955 17.9608C8.6084 18.1134 7.59188 19.0962 7.59188 20.4103H10.3919ZM10.1413 20.7373C10.9047 20.6379 11.6488 20.4772 12.3669 20.2604L11.5576 17.5799C10.9854 17.7526 10.391 17.8811 9.77955 17.9608L10.1413 20.7373ZM12.0868 20.3146C12.3768 20.2887 12.666 20.2257 12.9498 20.1259L12.0208 17.4845C11.9516 17.5088 11.8906 17.521 11.8376 17.5257L12.0868 20.3146ZM12.9498 20.1259C17.2575 18.6108 20.5792 14.9919 21.1905 10.4463L18.4155 10.0731C17.9627 13.4403 15.4717 16.2708 12.0208 17.4845L12.9498 20.1259ZM21.1912 10.4415C21.2054 10.3327 21.2104 10.2239 21.2065 10.1164L18.4083 10.2173C18.4067 10.1712 18.4088 10.1245 18.4149 10.0779L21.1912 10.4415ZM21.2069 10.1302C21.1888 9.43757 20.8111 8.85693 20.3045 8.51814L18.7479 10.8456C18.5819 10.7346 18.416 10.5147 18.4079 10.2035L21.2069 10.1302Z" fill="#636363" mask="url(#path-1-inside-1_74_1228)"/>
<mask id="path-3-inside-2_74_1228" fill="white">
<path fill-rule="evenodd" clip-rule="evenodd" d="M0.703859 13.0999C0.61422 13.1019 0.522924 13.0878 0.434931 13.0565C0.368639 13.0325 0.308151 12.9997 0.254747 12.96C0.0997238 12.8453 0.00445179 12.6735 0.0001679 12.4924C-0.000842992 12.4622 0.000587522 12.4316 0.00459677 12.401C0.536707 8.4446 3.44301 5.21992 7.32233 3.85552C7.49869 3.7935 7.67355 3.75597 7.84489 3.74062C8.49013 3.54578 9.15957 3.40113 9.84718 3.31154C10.3879 3.24108 10.8157 2.79559 10.8157 2.25028C10.8157 1.33174 11.3896 0.920266 11.9588 0.920266C12.3306 0.920266 12.7025 1.08236 13.0606 1.40655L16.9626 4.9394C17.8211 5.71663 17.8211 6.97599 16.9626 7.75321L13.0606 11.2861C12.7025 11.6061 12.3306 11.7723 11.9588 11.7723C11.3896 11.7723 10.8157 11.3609 10.8157 10.4423C10.8157 9.82576 10.3703 9.2911 9.75495 9.25302C9.53642 9.2395 9.31763 9.23285 9.09884 9.23285C6.00933 9.23285 3.07132 10.5836 1.24425 12.8447C1.11534 13.0051 0.914032 13.096 0.703859 13.0999Z"/>
</mask>
<path d="M0.434931 13.0565L-0.0414983 14.3729L-0.0348931 14.3753L0.434931 13.0565ZM0.703859 13.0999L0.677647 11.7002L0.673557 11.7002L0.703859 13.0999ZM0.254747 12.96L1.09013 11.8365L1.0873 11.8344L0.254747 12.96ZM0.0001679 12.4924L1.39984 12.4593L1.39939 12.4456L0.0001679 12.4924ZM0.00459677 12.401L-1.38292 12.2144L-1.38356 12.2193L0.00459677 12.401ZM7.32233 3.85552L7.78684 5.17622L7.78684 5.17622L7.32233 3.85552ZM7.84489 3.74062L7.96983 5.13503L8.11248 5.12225L8.24959 5.08085L7.84489 3.74062ZM9.84718 3.31154L9.66629 1.92328L9.66629 1.92328L9.84718 3.31154ZM13.0606 1.40655L14.0002 0.368723L14.0002 0.368721L13.0606 1.40655ZM16.9626 4.9394L17.9022 3.90157L16.9626 4.9394ZM16.9626 7.75321L16.023 6.71538L16.9626 7.75321ZM13.0606 11.2861L13.9935 12.3299L14.0002 12.3239L13.0606 11.2861ZM9.75495 9.25302L9.66848 10.6503L9.75495 9.25302ZM1.24425 12.8447L0.155327 11.9647L0.152775 11.9679L1.24425 12.8447ZM-0.0348931 14.3753C0.217276 14.4651 0.478332 14.5051 0.734161 14.4996L0.673557 11.7002C0.750107 11.6986 0.828573 11.7105 0.904755 11.7377L-0.0348931 14.3753ZM-0.580635 14.0834C-0.417307 14.2049 -0.235829 14.3026 -0.0414926 14.3729L0.911354 11.74C0.973107 11.7624 1.03361 11.7945 1.09013 11.8365L-0.580635 14.0834ZM-1.39944 12.5255C-1.38388 13.1831 -1.04308 13.7414 -0.577801 14.0855L1.0873 11.8344C1.24253 11.9492 1.39279 12.1638 1.39978 12.4593L-1.39944 12.5255ZM-1.38356 12.2193C-1.39757 12.3263 -1.40259 12.4332 -1.39905 12.5392L1.39939 12.4456C1.40091 12.4911 1.39874 12.537 1.39276 12.5827L-1.38356 12.2193ZM6.85783 2.53483C2.55013 4.04989 -0.77156 7.66881 -1.38291 12.2144L1.3921 12.5876C1.84497 9.22038 4.33589 6.38995 7.78684 5.17622L6.85783 2.53483ZM7.71994 2.34621C7.43021 2.37217 7.14139 2.43509 6.85783 2.53483L7.78684 5.17622C7.85599 5.1519 7.91689 5.13978 7.96983 5.13503L7.71994 2.34621ZM9.66629 1.92328C8.90268 2.02277 8.15839 2.18352 7.44018 2.40039L8.24959 5.08085C8.82186 4.90804 9.41646 4.7795 10.0281 4.69981L9.66629 1.92328ZM9.41574 2.25028C9.41574 2.14612 9.45882 2.05976 9.50739 2.00736C9.55293 1.95822 9.60908 1.93073 9.66629 1.92328L10.0281 4.69981C11.1992 4.54721 12.2157 3.56436 12.2157 2.25028L9.41574 2.25028ZM11.9588 -0.479734C11.3402 -0.479734 10.6819 -0.254318 10.1768 0.257933C9.66109 0.781072 9.41574 1.48911 9.41574 2.25028L12.2157 2.25028C12.2157 2.16655 12.2287 2.13715 12.2257 2.14506C12.222 2.15488 12.2069 2.18702 12.1708 2.22371C12.095 2.30059 12.0082 2.32027 11.9588 2.32027L11.9588 -0.479734ZM14.0002 0.368721C13.458 -0.122207 12.7655 -0.479734 11.9588 -0.479734L11.9588 2.32027C11.9359 2.32027 11.9306 2.31428 11.951 2.32328C11.9751 2.33386 12.0333 2.36509 12.1209 2.44438L14.0002 0.368721ZM17.9022 3.90157L14.0002 0.368723L12.1209 2.44438L16.023 5.97723L17.9022 3.90157ZM17.9022 8.79104C19.3745 7.45807 19.3745 5.23454 17.9022 3.90157L16.023 5.97723C16.1647 6.10554 16.2064 6.24014 16.2064 6.34631C16.2064 6.45248 16.1647 6.58707 16.023 6.71538L17.9022 8.79104ZM14.0002 12.3239L17.9022 8.79104L16.023 6.71538L12.1209 10.2482L14.0002 12.3239ZM11.9588 13.1723C12.7719 13.1723 13.4618 12.8051 13.9935 12.3299L12.1276 10.2422C12.0366 10.3235 11.9752 10.3571 11.948 10.3691C11.9245 10.3795 11.9309 10.3723 11.9588 10.3723L11.9588 13.1723ZM9.41574 10.4423C9.41574 11.2035 9.66109 11.9115 10.1768 12.4347C10.6819 12.9469 11.3402 13.1723 11.9588 13.1723L11.9588 10.3723C12.0082 10.3723 12.095 10.392 12.1708 10.4689C12.2069 10.5056 12.222 10.5377 12.2257 10.5475C12.2287 10.5555 12.2157 10.5261 12.2157 10.4423L9.41574 10.4423ZM9.66848 10.6503C9.57827 10.6448 9.50287 10.5988 9.46182 10.5519C9.4255 10.5103 9.41574 10.4702 9.41574 10.4423L12.2157 10.4423C12.2157 9.18124 11.2863 7.94511 9.84142 7.8557L9.66848 10.6503ZM9.09884 10.6329C9.28927 10.6329 9.47922 10.6386 9.66848 10.6503L9.84142 7.8557C9.59361 7.84036 9.34598 7.83285 9.09884 7.83285L9.09884 10.6329ZM2.33316 13.7246C3.87576 11.8156 6.40159 10.6329 9.09884 10.6329L9.09884 7.83285C5.61708 7.83285 2.26688 9.35169 0.155331 11.9647L2.33316 13.7246ZM0.730072 14.4997C1.31363 14.4887 1.9218 14.2367 2.33572 13.7214L0.152775 11.9679C0.308872 11.7736 0.514433 11.7032 0.677647 11.7002L0.730072 14.4997Z" fill="#636363" mask="url(#path-3-inside-2_74_1228)"/>
</svg>
